<svg width="120" height="32" viewBox="0 0 120 32" fill="none" xmlns="http://www.w3.org/2000/svg">
<g clip-path="url(#clip0_1505_1197)">
<path d="M45.2018 28.2175V12.9621H39.5157V10.0284H54.0724V12.9621H48.3931V28.2175H45.2018Z" fill="#071121"/>
<path d="M61.4112 28.3989C60.0048 28.3989 58.8104 28.1078 57.828 27.5255C56.8556 26.9563 56.0757 26.1093 55.5885 25.0934C55.0623 23.9625 54.8026 22.7259 54.8293 21.4789C54.8045 20.2207 55.0729 18.974 55.6131 17.8375C56.113 16.8095 56.8993 15.9479 57.8773 15.3561C58.9589 14.733 60.1925 14.4228 61.4403 14.4603C62.3691 14.4383 63.2912 14.6242 64.1389 15.0045C64.8885 15.358 65.5513 15.8717 66.0805 16.5095C66.6055 17.1483 67.0031 17.8819 67.2517 18.6706C67.5108 19.4946 67.6326 20.3556 67.6123 21.2191C67.5944 21.4251 67.5765 21.6267 67.5608 21.8238C67.5451 22.0209 67.516 22.2314 67.4824 22.4531H57.9624C58.0061 23.0288 58.1685 23.5892 58.4394 24.0991C58.699 24.5914 59.0906 25.0016 59.5703 25.2838C60.132 25.5971 60.7683 25.7519 61.4112 25.7317C61.8282 25.7339 62.2435 25.6781 62.6451 25.566C63.0204 25.4631 63.374 25.2931 63.6887 25.0643C63.9781 24.8546 64.1906 24.5556 64.2934 24.2133H67.4287C67.2487 25.1108 66.8213 25.94 66.1947 26.6073C65.5955 27.2249 64.8588 27.6922 64.0448 27.9712C63.1974 28.2617 62.3069 28.4063 61.4112 28.3989ZM58.0139 20.1128H64.5487C64.5554 19.5732 64.4228 19.0409 64.1635 18.5676C63.9092 18.106 63.5306 17.7251 63.0706 17.468C62.5441 17.1932 61.9555 17.059 61.3619 17.0783C60.7348 17.0592 60.1147 17.2142 59.5703 17.5262C59.1092 17.7953 58.7275 18.1816 58.464 18.6459C58.2065 19.096 58.0527 19.5979 58.0139 20.115V20.1128Z" fill="#071121"/>
<path d="M75.6632 28.3989C74.2568 28.3989 73.0624 28.1078 72.08 27.5255C71.1073 26.9568 70.3273 26.1096 69.8405 25.0934C69.3143 23.9625 69.0546 22.7259 69.0813 21.4789C69.0576 20.2201 69.3283 18.9731 69.8719 17.8375C70.3704 16.8086 71.1569 15.9465 72.136 15.3561C73.2174 14.7323 74.4512 14.4221 75.699 14.4603C76.6226 14.4405 77.5391 14.6264 78.3819 15.0045C79.1323 15.3568 79.7953 15.8707 80.3236 16.5095C80.8486 17.1483 81.2462 17.8819 81.4948 18.6706C81.755 19.4943 81.8768 20.3555 81.8554 21.2191C81.8375 21.4251 81.8218 21.6267 81.8039 21.8238C81.7859 22.0208 81.7613 22.2314 81.7277 22.4531H72.2166C72.2607 23.0284 72.4222 23.5886 72.6914 24.0991C72.9519 24.5914 73.3443 25.0016 73.8246 25.2838C74.3855 25.5971 75.021 25.7519 75.6632 25.7317C76.0809 25.7341 76.497 25.6783 76.8994 25.5659C77.274 25.463 77.6268 25.2931 77.9407 25.0643C78.2309 24.8553 78.4435 24.556 78.5454 24.2133H81.6807C81.4991 25.1107 81.071 25.9397 80.4445 26.6073C79.8457 27.2243 79.1099 27.6915 78.2968 27.9712C77.4494 28.2614 76.5589 28.406 75.6632 28.3989ZM72.2681 20.1128H78.803C78.809 19.5732 78.6763 19.0412 78.4178 18.5676C78.1633 18.1054 77.7837 17.7244 77.3226 17.468C76.7963 17.1895 76.2069 17.0522 75.6117 17.0693C74.9846 17.0508 74.3647 17.2058 73.8201 17.5172C73.3594 17.7869 72.9779 18.1731 72.7138 18.637C72.4554 19.0896 72.303 19.595 72.2681 20.115V20.1128Z" fill="#071121"/>
<path d="M83.8463 28.2175V10.0284H86.9816V20.0882H88.9367L92.5198 14.6597H96.0448L91.6397 21.1183L96.4009 28.2175H92.746L89.1315 22.8427H86.995V28.2175H83.8463Z" fill="#071121"/>
<path d="M103.451 28.3989C102.041 28.3989 100.847 28.1078 99.8676 27.5255C98.8949 26.9568 98.1149 26.1096 97.6281 25.0934C97.1027 23.9623 96.8437 22.7258 96.8712 21.4789C96.8411 20.2217 97.1049 18.9748 97.6416 17.8375C98.1401 16.8086 98.9266 15.9465 99.9057 15.3561C100.987 14.7323 102.221 14.4221 103.469 14.4603C104.401 14.4363 105.326 14.6223 106.176 15.0045C106.927 15.3573 107.591 15.8711 108.12 16.5095C108.644 17.1493 109.04 17.8837 109.287 18.6728C109.547 19.4966 109.669 20.3577 109.647 21.2213C109.632 21.4274 109.614 21.6289 109.596 21.826C109.578 22.0231 109.553 22.2336 109.52 22.4553H100.002C100.046 23.031 100.208 23.5914 100.479 24.1013C100.738 24.5941 101.13 25.0045 101.61 25.286C102.172 25.5995 102.808 25.7544 103.451 25.7339C103.868 25.7361 104.283 25.6804 104.685 25.5682C105.059 25.4653 105.412 25.2953 105.726 25.0665C106.016 24.8575 106.229 24.5583 106.331 24.2155H109.466C109.284 25.1129 108.856 25.9419 108.23 26.6095C107.631 27.227 106.896 27.6943 106.082 27.9734C105.235 28.2629 104.346 28.4068 103.451 28.3989ZM100.053 20.1128H106.599C106.606 19.5731 106.474 19.0409 106.214 18.5676C105.957 18.1045 105.574 17.7234 105.11 17.468C104.584 17.19 103.994 17.0527 103.399 17.0693C102.772 17.0509 102.152 17.2059 101.608 17.5172C101.147 17.7869 100.765 18.1731 100.501 18.637C100.242 19.0894 100.089 19.5948 100.053 20.115V20.1128Z" fill="#071121"/>
<path d="M117.548 28.2175C116.623 28.2445 115.702 28.0924 114.834 27.7696C114.151 27.5042 113.585 27.0029 113.24 26.3565C112.887 25.7056 112.711 24.8307 112.711 23.7318V17.4389H110.631V14.6597H112.713V10.8794H115.849V14.6597H119.013V17.4389H115.851V23.331C115.851 24.0162 115.969 24.5403 116.211 24.8986C116.453 25.2569 116.991 25.4383 117.833 25.4383H118.917V28.2175H117.548Z" fill="#071121"/>
<path d="M32.0381 6.54152C32.1002 6.72563 32.219 6.8853 32.3776 6.99757C32.5361 7.10985 32.7262 7.16894 32.9205 7.16634H32.9339V8.145H32.9205C32.7255 8.14208 32.5347 8.20127 32.3757 8.314C32.2167 8.42674 32.0976 8.58716 32.0359 8.77205C31.9878 8.91285 31.974 9.06308 31.9956 9.21028C32.0172 9.35749 32.0736 9.49742 32.1601 9.61848C32.2465 9.73955 32.3606 9.83826 32.4929 9.90643C32.6251 9.9746 32.7717 10.0103 32.9205 10.0105H32.9339V10.9891H32.9205C32.7255 10.9862 32.5347 11.0454 32.3757 11.1581C32.2167 11.2709 32.0976 11.4313 32.0359 11.6162C31.9883 11.7569 31.9748 11.9069 31.9966 12.0538C32.0184 12.2007 32.0749 12.3403 32.1613 12.461C32.2477 12.5818 32.3616 12.6803 32.4936 12.7483C32.6256 12.8164 32.7719 12.8521 32.9205 12.8524H32.9339V13.5847H32.9205C32.5975 13.5853 32.288 13.7138 32.0597 13.9422C31.8313 14.1705 31.7028 14.4801 31.7022 14.803H26.0184C24.5061 14.8013 23.0564 14.1996 21.9873 13.1301C21.9873 13.1301 14.9016 5.56959 12.2366 3.38385H31.7313C31.7313 3.70464 31.8578 4.0125 32.0834 4.24059C32.3089 4.46868 32.6154 4.59859 32.9361 4.60213V5.30533H32.9205C32.7721 5.30602 32.6261 5.34194 32.4944 5.41014C32.3627 5.47834 32.249 5.57686 32.1629 5.69758C32.0767 5.81831 32.0205 5.95778 31.9988 6.10451C31.9771 6.25124 31.9905 6.40103 32.0381 6.54152Z" fill="url(#paint0_linear_1505_1197)"/>
<path d="M22.3702 18.8117V30.8041C22.0519 30.8041 21.7463 30.9288 21.5189 31.1515C21.2916 31.3743 21.1606 31.6773 21.1542 31.9955H20.4487C20.4487 31.7484 20.3506 31.5115 20.1759 31.3368C20.0011 31.1621 19.7642 31.0639 19.5171 31.0639C19.27 31.0639 19.0331 31.1621 18.8583 31.3368C18.6836 31.5115 18.5855 31.7484 18.5855 31.9955H17.6068C17.6068 31.7484 17.5087 31.5115 17.334 31.3368C17.1592 31.1621 16.9223 31.0639 16.6752 31.0639C16.4281 31.0639 16.1911 31.1621 16.0164 31.3368C15.8417 31.5115 15.7436 31.7484 15.7436 31.9955H14.7672C14.7554 31.7561 14.652 31.5303 14.4784 31.3649C14.3047 31.1996 14.0742 31.1074 13.8344 31.1074C13.5946 31.1074 13.3641 31.1996 13.1904 31.3649C13.0168 31.5303 12.9134 31.7561 12.9017 31.9955H12.1693C12.1693 31.673 12.0412 31.3637 11.8132 31.1357C11.5851 30.9076 11.2758 30.7795 10.9533 30.7795V14.7806H20.7018C21.7689 15.851 22.3687 17.3003 22.3702 18.8117Z" fill="url(#paint1_linear_1505_1197)"/>
<path d="M0.895794 11.6207C0.833906 11.4361 0.715231 11.2759 0.556747 11.1628C0.398264 11.0498 0.208091 10.9898 0.0134369 10.9914H0V10.015H0.0134369C0.21017 10.0199 0.403319 9.96174 0.564541 9.84888C0.725762 9.73603 0.846568 9.57447 0.909231 9.38792C0.957152 9.24634 0.970477 9.09535 0.948091 8.94757C0.925705 8.7998 0.868258 8.65953 0.780556 8.5385C0.692854 8.41747 0.577447 8.3192 0.443987 8.25191C0.310527 8.18462 0.162894 8.15027 0.0134369 8.15172H0V7.16635H0.0134369C0.21017 7.17132 0.403319 7.11311 0.564541 7.00026C0.725762 6.8874 0.846568 6.72584 0.909231 6.53929C0.955829 6.39811 0.968129 6.24786 0.945113 6.10098C0.922097 5.9541 0.864428 5.81481 0.776878 5.69465C0.689329 5.57449 0.574417 5.47691 0.441657 5.40998C0.308897 5.34306 0.162106 5.30872 0.0134369 5.30981H0V4.57526H0.0134369C0.336157 4.57526 0.645693 4.44722 0.8741 4.21923C1.10251 3.99124 1.23112 3.68194 1.23172 3.35922H6.91553C8.42776 3.3609 9.87754 3.96256 10.9466 5.03212C10.9466 5.03212 18.0346 12.5926 20.6973 14.7806C21.1387 15.2236 21.5048 15.7357 21.7812 16.2967C21.1318 15.3248 19.8866 14.7985 17.7502 14.7828H1.20484C1.20663 14.4611 1.08084 14.1517 0.855014 13.9226C0.629188 13.6934 0.321737 13.563 0 13.5601L0 12.8569H0.0134369C0.16176 12.8562 0.307796 12.8203 0.439512 12.7521C0.571228 12.6839 0.684853 12.5853 0.771023 12.4646C0.857194 12.3439 0.913443 12.2044 0.935136 12.0577C0.956829 11.911 0.943345 11.7612 0.895794 11.6207Z" fill="url(#paint2_linear_1505_1197)"/>
</g>
<defs>
<linearGradient id="paint0_linear_1505_1197" x1="16.9462" y1="8.98704" x2="28.6968" y2="9.09006" gradientUnits="userSpaceOnUse">
<stop stop-color="#CCFFCC"/>
<stop offset="0.21" stop-color="#A3FFA3"/>
<stop offset="0.38" stop-color="#89FF89"/>
<stop offset="0.48" stop-color="#80FF80"/>
<stop offset="0.8" stop-color="#47D96B"/>
<stop offset="0.96" stop-color="#30C963"/>
</linearGradient>
<linearGradient id="paint1_linear_1505_1197" x1="16.6618" y1="30.6854" x2="16.6618" y2="11.8066" gradientUnits="userSpaceOnUse">
<stop offset="0.11" stop-color="#30C963"/>
<stop offset="0.23" stop-color="#2AAE56"/>
<stop offset="0.46" stop-color="#208340"/>
<stop offset="0.65" stop-color="#186330"/>
<stop offset="0.82" stop-color="#145026"/>
<stop offset="0.94" stop-color="#124923"/>
</linearGradient>
<linearGradient id="paint2_linear_1505_1197" x1="16.8297" y1="9.84925" x2="4.46105" y2="9.74175" gradientUnits="userSpaceOnUse">
<stop stop-color="#B8FFB8"/>
<stop offset="0.02" stop-color="#B4FFB4"/>
<stop offset="0.2" stop-color="#97FF97"/>
<stop offset="0.36" stop-color="#86FF86"/>
<stop offset="0.48" stop-color="#80FF80"/>
<stop offset="0.57" stop-color="#6CF279"/>
<stop offset="0.75" stop-color="#4BDB6D"/>
<stop offset="0.9" stop-color="#37CE66"/>
<stop offset="1" stop-color="#30C963"/>
</linearGradient>
<clipPath id="clip0_1505_1197">
<rect width="119.015" height="32" fill="white"/>
</clipPath>
</defs>
</svg>
