<svg width="340" height="180" viewBox="0 0 340 180" fill="none" xmlns="http://www.w3.org/2000/svg">
<g clip-path="url(#clip0_1382_1999)">
<rect x="5.73465" y="36.6299" width="313" height="194" rx="8" transform="rotate(-6.7 5.73465 36.6299)" fill="#141714"/>
<rect x="6.28957" y="37.0681" width="312" height="193" rx="7.5" transform="rotate(-6.7 6.28957 37.0681)" stroke="#141714" stroke-opacity="0.75"/>
<rect x="0.768784" y="37.2131" width="313" height="194" rx="8" transform="rotate(-6.7 0.768784 37.2131)" fill="#E7ECE7"/>
<rect x="1.3237" y="37.6514" width="312" height="193" rx="7.5" transform="rotate(-6.7 1.3237 37.6514)" stroke="#141714" stroke-opacity="0.75"/>
<g filter="url(#filter0_i_1382_1999)">
<rect x="37.5636" y="61.8499" width="270" height="149.945" rx="8" fill="#141714"/>
<rect x="48.0401" y="72.9084" width="249.047" height="95.2344" rx="4" fill="white" fill-opacity="0.1"/>
<rect x="48.3311" y="73.1995" width="248.465" height="94.6523" rx="3.70898" stroke="white" stroke-opacity="0.1" stroke-width="0.582031"/>
<path d="M57.5907 90.1045H58.5299L60.4083 93.266H60.4876L62.366 90.1045H63.3052L60.858 94.0861V96.8772H60.0379V94.0861L57.5907 90.1045ZM65.6052 96.983C65.1467 96.983 64.7443 96.8739 64.3982 96.6556C64.0542 96.4374 63.7853 96.132 63.5913 95.7396C63.3995 95.3472 63.3036 94.8886 63.3036 94.3639C63.3036 93.8348 63.3995 93.3729 63.5913 92.9782C63.7853 92.5836 64.0542 92.2772 64.3982 92.0589C64.7443 91.8406 65.1467 91.7315 65.6052 91.7315C66.0638 91.7315 66.465 91.8406 66.809 92.0589C67.1551 92.2772 67.4241 92.5836 67.6159 92.9782C67.8099 93.3729 67.9069 93.8348 67.9069 94.3639C67.9069 94.8886 67.8099 95.3472 67.6159 95.7396C67.4241 96.132 67.1551 96.4374 66.809 96.6556C66.465 96.8739 66.0638 96.983 65.6052 96.983ZM65.6052 96.2819C65.9536 96.2819 66.2402 96.1926 66.465 96.0141C66.6899 95.8355 66.8564 95.6007 66.9644 95.3097C67.0724 95.0187 67.1264 94.7034 67.1264 94.3639C67.1264 94.0244 67.0724 93.708 66.9644 93.4148C66.8564 93.1216 66.6899 92.8846 66.465 92.7038C66.2402 92.523 65.9536 92.4326 65.6052 92.4326C65.2569 92.4326 64.9703 92.523 64.7454 92.7038C64.5205 92.8846 64.3541 93.1216 64.246 93.4148C64.138 93.708 64.084 94.0244 64.084 94.3639C64.084 94.7034 64.138 95.0187 64.246 95.3097C64.3541 95.6007 64.5205 95.8355 64.7454 96.0141C64.9703 96.1926 65.2569 96.2819 65.6052 96.2819ZM72.2994 94.8004V91.7977H73.0799V96.8772H72.2994V96.0174H72.2465C72.1274 96.2753 71.9423 96.4947 71.6909 96.6755C71.4396 96.854 71.1221 96.9433 70.7385 96.9433C70.421 96.9433 70.1388 96.8739 69.8919 96.735C69.645 96.5939 69.451 96.3823 69.3099 96.1001C69.1688 95.8157 69.0982 95.4574 69.0982 95.0253V91.7977H69.8787V94.9724C69.8787 95.3428 69.9823 95.6382 70.1895 95.8586C70.399 96.0791 70.6658 96.1893 70.9898 96.1893C71.1838 96.1893 71.3812 96.1397 71.5818 96.0405C71.7846 95.9413 71.9544 95.7892 72.0911 95.5842C72.23 95.3791 72.2994 95.1179 72.2994 94.8004ZM74.5093 96.8772V91.7977H75.2633V92.5649H75.3162C75.4088 92.3135 75.5764 92.1096 75.8189 91.9531C76.0614 91.7965 76.3348 91.7183 76.639 91.7183C76.6963 91.7183 76.768 91.7194 76.854 91.7216C76.94 91.7238 77.005 91.7271 77.0491 91.7315V92.5252C77.0226 92.5186 76.962 92.5087 76.8672 92.4954C76.7746 92.48 76.6765 92.4723 76.5729 92.4723C76.326 92.4723 76.1055 92.5241 75.9115 92.6277C75.7197 92.7291 75.5675 92.8702 75.4551 93.051C75.3449 93.2296 75.2898 93.4335 75.2898 93.6628V96.8772H74.5093ZM82.7231 96.983C82.2336 96.983 81.8114 96.875 81.4565 96.6589C81.1037 96.4407 80.8315 96.1364 80.6397 95.7462C80.4501 95.3538 80.3553 94.8974 80.3553 94.3771C80.3553 93.8568 80.4501 93.3982 80.6397 93.0014C80.8315 92.6024 81.0982 92.2915 81.4399 92.0688C81.7839 91.8439 82.1851 91.7315 82.6437 91.7315C82.9083 91.7315 83.1695 91.7756 83.4275 91.8638C83.6854 91.952 83.9202 92.0953 84.1318 92.2937C84.3435 92.4899 84.5121 92.7501 84.6378 93.0742C84.7635 93.3982 84.8263 93.7973 84.8263 94.2713V94.602H80.9108V93.9274H84.0326C84.0326 93.6408 83.9753 93.385 83.8607 93.1601C83.7482 92.9353 83.5873 92.7578 83.3778 92.6277C83.1706 92.4976 82.9259 92.4326 82.6437 92.4326C82.3328 92.4326 82.0639 92.5098 81.8368 92.6641C81.6119 92.8162 81.4388 93.0146 81.3176 93.2593C81.1963 93.5041 81.1357 93.7664 81.1357 94.0464V94.4962C81.1357 94.8798 81.2018 95.205 81.3341 95.4717C81.4686 95.7363 81.6549 95.938 81.893 96.0769C82.1311 96.2136 82.4078 96.2819 82.7231 96.2819C82.9281 96.2819 83.1133 96.2533 83.2786 96.196C83.4462 96.1364 83.5906 96.0482 83.7119 95.9314C83.8331 95.8123 83.9268 95.6646 83.9929 95.4883L84.7469 95.6999C84.6676 95.9556 84.5342 96.1805 84.3468 96.3745C84.1594 96.5663 83.9279 96.7163 83.6523 96.8243C83.3767 96.9301 83.067 96.983 82.7231 96.983ZM87.5083 96.9962C87.1864 96.9962 86.8943 96.9356 86.6319 96.8144C86.3696 96.6909 86.1612 96.5134 86.0069 96.2819C85.8526 96.0482 85.7754 95.766 85.7754 95.4353C85.7754 95.1443 85.8327 94.9084 85.9474 94.7276C86.062 94.5447 86.2152 94.4014 86.4071 94.2977C86.5989 94.1941 86.8105 94.117 87.042 94.0663C87.2757 94.0133 87.5105 93.9715 87.7464 93.9406C88.055 93.9009 88.3053 93.8711 88.4971 93.8513C88.6911 93.8292 88.8322 93.7929 88.9204 93.7422C89.0108 93.6915 89.056 93.6033 89.056 93.4776V93.4511C89.056 93.1249 88.9667 92.8713 88.7881 92.6905C88.6117 92.5098 88.3439 92.4194 87.9845 92.4194C87.6119 92.4194 87.3198 92.5009 87.1081 92.6641C86.8965 92.8272 86.7477 93.0014 86.6617 93.1866L85.9209 92.922C86.0532 92.6134 86.2296 92.3731 86.45 92.2011C86.6727 92.0269 86.9152 91.9057 87.1776 91.8373C87.4421 91.7668 87.7023 91.7315 87.958 91.7315C88.1212 91.7315 88.3086 91.7514 88.5202 91.791C88.7341 91.8285 88.9402 91.9068 89.1386 92.0258C89.3393 92.1449 89.5057 92.3246 89.638 92.5649C89.7703 92.8052 89.8364 93.1271 89.8364 93.5305V96.8772H89.056V96.1893H89.0163C88.9634 96.2996 88.8752 96.4175 88.7517 96.5432C88.6283 96.6689 88.464 96.7758 88.259 96.864C88.0539 96.9522 87.8037 96.9962 87.5083 96.9962ZM87.6273 96.2952C87.936 96.2952 88.1961 96.2345 88.4078 96.1133C88.6216 95.992 88.7826 95.8355 88.8906 95.6437C89.0008 95.4519 89.056 95.2502 89.056 95.0385V94.3242C89.0229 94.3639 88.9501 94.4003 88.8377 94.4333C88.7275 94.4642 88.5996 94.4918 88.4541 94.516C88.3108 94.538 88.1708 94.5579 88.0341 94.5755C87.8996 94.591 87.7905 94.6042 87.7067 94.6152C87.5039 94.6417 87.3143 94.6847 87.1379 94.7442C86.9637 94.8015 86.8226 94.8886 86.7146 95.0054C86.6088 95.1201 86.5559 95.2766 86.5559 95.475C86.5559 95.7462 86.6562 95.9512 86.8568 96.0901C87.0596 96.2268 87.3165 96.2952 87.6273 96.2952ZM91.2609 96.8772V91.7977H92.0149V92.5649H92.0678C92.1604 92.3135 92.328 92.1096 92.5705 91.9531C92.813 91.7965 93.0864 91.7183 93.3906 91.7183C93.4479 91.7183 93.5196 91.7194 93.6056 91.7216C93.6915 91.7238 93.7566 91.7271 93.8007 91.7315V92.5252C93.7742 92.5186 93.7136 92.5087 93.6188 92.4954C93.5262 92.48 93.4281 92.4723 93.3245 92.4723C93.0775 92.4723 92.8571 92.5241 92.6631 92.6277C92.4713 92.7291 92.3191 92.8702 92.2067 93.051C92.0965 93.2296 92.0413 93.4335 92.0413 93.6628V96.8772H91.2609ZM95.5063 93.8215V96.8772H94.7258V91.7977H95.4798V92.5913H95.5459C95.665 92.3334 95.8458 92.1261 96.0883 91.9696C96.3308 91.8109 96.6439 91.7315 97.0275 91.7315C97.3714 91.7315 97.6723 91.8021 97.9303 91.9432C98.1882 92.0821 98.3888 92.2937 98.5322 92.5781C98.6755 92.8603 98.7471 93.2175 98.7471 93.6496V96.8772H97.9667V93.7025C97.9667 93.3034 97.863 92.9926 97.6558 92.7699C97.4486 92.545 97.1642 92.4326 96.8026 92.4326C96.5535 92.4326 96.3308 92.4866 96.1346 92.5946C95.9406 92.7027 95.7873 92.8603 95.6749 93.0675C95.5625 93.2748 95.5063 93.5261 95.5063 93.8215ZM100.173 96.8772V91.7977H100.954V96.8772H100.173ZM100.57 90.9511C100.418 90.9511 100.287 90.8993 100.177 90.7956C100.069 90.692 100.015 90.5674 100.015 90.4219C100.015 90.2764 100.069 90.1519 100.177 90.0483C100.287 89.9446 100.418 89.8928 100.57 89.8928C100.722 89.8928 100.852 89.9446 100.96 90.0483C101.071 90.1519 101.126 90.2764 101.126 90.4219C101.126 90.5674 101.071 90.692 100.96 90.7956C100.852 90.8993 100.722 90.9511 100.57 90.9511ZM103.164 93.8215V96.8772H102.383V91.7977H103.137V92.5913H103.203C103.322 92.3334 103.503 92.1261 103.746 91.9696C103.988 91.8109 104.301 91.7315 104.685 91.7315C105.029 91.7315 105.33 91.8021 105.588 91.9432C105.846 92.0821 106.046 92.2937 106.19 92.5781C106.333 92.8603 106.404 93.2175 106.404 93.6496V96.8772H105.624V93.7025C105.624 93.3034 105.52 92.9926 105.313 92.7699C105.106 92.545 104.822 92.4326 104.46 92.4326C104.211 92.4326 103.988 92.4866 103.792 92.5946C103.598 92.7027 103.445 92.8603 103.332 93.0675C103.22 93.2748 103.164 93.5261 103.164 93.8215ZM109.881 98.8879C109.504 98.8879 109.18 98.8393 108.909 98.7423C108.638 98.6475 108.412 98.5219 108.231 98.3653C108.052 98.211 107.91 98.0457 107.804 97.8693L108.426 97.4328C108.496 97.5254 108.586 97.6312 108.694 97.7502C108.802 97.8715 108.949 97.9762 109.137 98.0644C109.326 98.1548 109.574 98.2 109.881 98.2C110.291 98.2 110.629 98.1008 110.896 97.9024C111.163 97.7039 111.296 97.3931 111.296 96.9698V95.938H111.23C111.173 96.0306 111.091 96.1452 110.985 96.2819C110.882 96.4164 110.732 96.5366 110.536 96.6424C110.342 96.746 110.079 96.7978 109.749 96.7978C109.339 96.7978 108.97 96.7008 108.644 96.5068C108.32 96.3128 108.063 96.0306 107.874 95.6602C107.686 95.2898 107.592 94.8401 107.592 94.311C107.592 93.7907 107.684 93.3376 107.867 92.9518C108.05 92.5638 108.305 92.2639 108.631 92.0523C108.957 91.8384 109.334 91.7315 109.762 91.7315C110.093 91.7315 110.355 91.7866 110.549 91.8969C110.745 92.0049 110.895 92.1284 110.999 92.2672C111.105 92.4039 111.186 92.5164 111.243 92.6046H111.323V91.7977H112.077V97.0227C112.077 97.4592 111.978 97.8142 111.779 98.0876C111.583 98.3631 111.318 98.5649 110.985 98.6927C110.655 98.8228 110.287 98.8879 109.881 98.8879ZM109.854 96.0967C110.168 96.0967 110.432 96.0251 110.648 95.8818C110.864 95.7385 111.028 95.5324 111.141 95.2634C111.253 94.9944 111.31 94.6725 111.31 94.2977C111.31 93.9318 111.254 93.6088 111.144 93.3288C111.034 93.0488 110.871 92.8294 110.655 92.6707C110.439 92.512 110.172 92.4326 109.854 92.4326C109.524 92.4326 109.248 92.5164 109.028 92.6839C108.809 92.8515 108.645 93.0764 108.535 93.3586C108.427 93.6408 108.373 93.9538 108.373 94.2977C108.373 94.6505 108.428 94.9624 108.538 95.2336C108.651 95.5026 108.816 95.7142 109.034 95.8686C109.255 96.0207 109.528 96.0967 109.854 96.0967ZM117.103 92.9353L116.402 93.1337C116.358 93.0168 116.293 92.9033 116.207 92.7931C116.123 92.6806 116.009 92.588 115.863 92.5153C115.718 92.4425 115.531 92.4061 115.304 92.4061C114.994 92.4061 114.735 92.4778 114.527 92.6211C114.322 92.7622 114.22 92.9419 114.22 93.1601C114.22 93.3541 114.29 93.5074 114.431 93.6198C114.572 93.7322 114.793 93.8259 115.093 93.9009L115.847 94.0861C116.301 94.1963 116.639 94.365 116.862 94.5921C117.085 94.8169 117.196 95.1069 117.196 95.4618C117.196 95.7528 117.112 96.013 116.945 96.2423C116.779 96.4715 116.548 96.6523 116.25 96.7846C115.953 96.9169 115.606 96.983 115.212 96.983C114.694 96.983 114.265 96.8706 113.925 96.6457C113.586 96.4208 113.371 96.0923 113.281 95.6602L114.021 95.475C114.092 95.7484 114.225 95.9534 114.421 96.0901C114.62 96.2268 114.879 96.2952 115.199 96.2952C115.562 96.2952 115.851 96.218 116.065 96.0637C116.281 95.9071 116.389 95.7197 116.389 95.5015C116.389 95.3251 116.327 95.1774 116.204 95.0583C116.08 94.9371 115.891 94.8467 115.635 94.7872L114.789 94.5888C114.323 94.4785 113.982 94.3077 113.763 94.0762C113.547 93.8425 113.439 93.5504 113.439 93.1998C113.439 92.9132 113.52 92.6597 113.681 92.4392C113.844 92.2187 114.065 92.0457 114.345 91.92C114.628 91.7943 114.947 91.7315 115.304 91.7315C115.807 91.7315 116.202 91.8417 116.488 92.0622C116.777 92.2827 116.982 92.5737 117.103 92.9353Z" fill="white"/>
<path d="M63.707 122.782V103.734H64.9273V122.782H63.707ZM66.9437 110.021C66.8842 109.421 66.6287 108.955 66.1773 108.622C65.7259 108.29 65.1133 108.124 64.3395 108.124C63.8137 108.124 63.3697 108.198 63.0076 108.347C62.6455 108.491 62.3677 108.692 62.1742 108.95C61.9857 109.208 61.8915 109.5 61.8915 109.828C61.8815 110.101 61.9386 110.339 62.0626 110.542C62.1916 110.745 62.3677 110.921 62.5909 111.07C62.8141 111.214 63.0721 111.341 63.3647 111.45C63.6574 111.554 63.9699 111.643 64.3023 111.718L65.6714 112.045C66.3361 112.194 66.9462 112.392 67.5018 112.64C68.0574 112.888 68.5385 113.193 68.9453 113.556C69.352 113.918 69.667 114.344 69.8903 114.835C70.1184 115.326 70.235 115.889 70.24 116.524C70.235 117.457 69.9969 118.265 69.5257 118.95C69.0594 119.63 68.3848 120.158 67.5018 120.535C66.6238 120.907 65.5647 121.093 64.3246 121.093C63.0944 121.093 62.0229 120.904 61.1102 120.527C60.2024 120.15 59.4931 119.592 58.9821 118.853C58.4762 118.109 58.2108 117.189 58.186 116.093H61.3036C61.3384 116.604 61.4847 117.03 61.7427 117.373C62.0056 117.71 62.3553 117.965 62.7918 118.139C63.2333 118.308 63.7318 118.392 64.2874 118.392C64.833 118.392 65.3068 118.313 65.7086 118.154C66.1153 117.995 66.4303 117.774 66.6535 117.492C66.8768 117.209 66.9884 116.884 66.9884 116.517C66.9884 116.175 66.8867 115.887 66.6833 115.654C66.4849 115.421 66.1922 115.222 65.8053 115.059C65.4233 114.895 64.9546 114.746 64.399 114.612L62.7397 114.195C61.4549 113.883 60.4405 113.394 59.6964 112.73C58.9524 112.065 58.5828 111.17 58.5878 110.043C58.5828 109.121 58.8284 108.315 59.3244 107.625C59.8254 106.936 60.5124 106.398 61.3855 106.011C62.2585 105.624 63.2506 105.43 64.3618 105.43C65.4928 105.43 66.4799 105.624 67.3232 106.011C68.1715 106.398 68.8312 106.936 69.3024 107.625C69.7737 108.315 70.0168 109.113 70.0316 110.021H66.9437ZM71.249 118.199V115.661L77.6108 105.639H79.7984V109.151H78.5037L74.4932 115.498V115.617H83.5337V118.199H71.249ZM78.5633 120.877V117.425L78.6228 116.301V105.639H81.6437V120.877H78.5633ZM90.8171 121.212C89.5373 121.207 88.4361 120.892 87.5134 120.267C86.5957 119.642 85.8889 118.737 85.3928 117.551C84.9017 116.366 84.6587 114.939 84.6636 113.273C84.6636 111.611 84.9092 110.195 85.4003 109.024C85.8963 107.853 86.6032 106.963 87.5209 106.353C88.4435 105.738 89.5423 105.43 90.8171 105.43C92.092 105.43 93.1882 105.738 94.1059 106.353C95.0286 106.968 95.7379 107.861 96.234 109.032C96.73 110.197 96.9756 111.611 96.9706 113.273C96.9706 114.944 96.7226 116.373 96.2265 117.559C95.7355 118.744 95.0311 119.649 94.1134 120.274C93.1957 120.9 92.0969 121.212 90.8171 121.212ZM90.8171 118.541C91.6902 118.541 92.3871 118.102 92.908 117.224C93.4288 116.346 93.6868 115.029 93.6818 113.273C93.6818 112.117 93.5628 111.155 93.3247 110.386C93.0915 109.617 92.7592 109.039 92.3276 108.652C91.901 108.265 91.3975 108.072 90.8171 108.072C89.949 108.072 89.2546 108.506 88.7337 109.374C88.2129 110.242 87.95 111.542 87.945 113.273C87.945 114.443 88.0616 115.421 88.2947 116.204C88.5328 116.983 88.8676 117.569 89.2992 117.96C89.7308 118.347 90.2367 118.541 90.8171 118.541ZM101.291 118.794L101.209 119.612C101.144 120.267 101.02 120.919 100.837 121.569C100.658 122.224 100.47 122.817 100.271 123.348C100.078 123.878 99.9217 124.295 99.8026 124.598H97.749C97.8234 124.305 97.9251 123.896 98.0541 123.37C98.183 122.849 98.3046 122.264 98.4187 121.614C98.5327 120.964 98.6047 120.302 98.6344 119.627L98.6716 118.794H101.291ZM108.682 121.212C107.402 121.207 106.301 120.892 105.378 120.267C104.461 119.642 103.754 118.737 103.258 117.551C102.767 116.366 102.524 114.939 102.529 113.273C102.529 111.611 102.774 110.195 103.265 109.024C103.761 107.853 104.468 106.963 105.386 106.353C106.309 105.738 107.407 105.43 108.682 105.43C109.957 105.43 111.053 105.738 111.971 106.353C112.894 106.968 113.603 107.861 114.099 109.032C114.595 110.197 114.841 111.611 114.836 113.273C114.836 114.944 114.588 116.373 114.092 117.559C113.6 118.744 112.896 119.649 111.978 120.274C111.061 120.9 109.962 121.212 108.682 121.212ZM108.682 118.541C109.555 118.541 110.252 118.102 110.773 117.224C111.294 116.346 111.552 115.029 111.547 113.273C111.547 112.117 111.428 111.155 111.19 110.386C110.957 109.617 110.624 109.039 110.193 108.652C109.766 108.265 109.262 108.072 108.682 108.072C107.814 108.072 107.12 108.506 106.599 109.374C106.078 110.242 105.815 111.542 105.81 113.273C105.81 114.443 105.927 115.421 106.16 116.204C106.398 116.983 106.733 117.569 107.164 117.96C107.596 118.347 108.102 118.541 108.682 118.541ZM122.27 121.212C120.99 121.207 119.889 120.892 118.966 120.267C118.048 119.642 117.341 118.737 116.845 117.551C116.354 116.366 116.111 114.939 116.116 113.273C116.116 111.611 116.362 110.195 116.853 109.024C117.349 107.853 118.056 106.963 118.973 106.353C119.896 105.738 120.995 105.43 122.27 105.43C123.545 105.43 124.641 105.738 125.559 106.353C126.481 106.968 127.191 107.861 127.687 109.032C128.183 110.197 128.428 111.611 128.423 113.273C128.423 114.944 128.175 116.373 127.679 117.559C127.188 118.744 126.484 119.649 125.566 120.274C124.648 120.9 123.55 121.212 122.27 121.212ZM122.27 118.541C123.143 118.541 123.84 118.102 124.361 117.224C124.881 116.346 125.139 115.029 125.134 113.273C125.134 112.117 125.015 111.155 124.777 110.386C124.544 109.617 124.212 109.039 123.78 108.652C123.354 108.265 122.85 108.072 122.27 108.072C121.402 108.072 120.707 108.506 120.186 109.374C119.665 110.242 119.403 111.542 119.398 113.273C119.398 114.443 119.514 115.421 119.747 116.204C119.985 116.983 120.32 117.569 120.752 117.96C121.183 118.347 121.689 118.541 122.27 118.541ZM135.857 121.212C134.578 121.207 133.476 120.892 132.554 120.267C131.636 119.642 130.929 118.737 130.433 117.551C129.942 116.366 129.699 114.939 129.704 113.273C129.704 111.611 129.949 110.195 130.44 109.024C130.937 107.853 131.643 106.963 132.561 106.353C133.484 105.738 134.582 105.43 135.857 105.43C137.132 105.43 138.228 105.738 139.146 106.353C140.069 106.968 140.778 107.861 141.274 109.032C141.77 110.197 142.016 111.611 142.011 113.273C142.011 114.944 141.763 116.373 141.267 117.559C140.776 118.744 140.071 119.649 139.154 120.274C138.236 120.9 137.137 121.212 135.857 121.212ZM135.857 118.541C136.73 118.541 137.427 118.102 137.948 117.224C138.469 116.346 138.727 115.029 138.722 113.273C138.722 112.117 138.603 111.155 138.365 110.386C138.132 109.617 137.799 109.039 137.368 108.652C136.941 108.265 136.438 108.072 135.857 108.072C134.989 108.072 134.295 108.506 133.774 109.374C133.253 110.242 132.99 111.542 132.985 113.273C132.985 114.443 133.102 115.421 133.335 116.204C133.573 116.983 133.908 117.569 134.339 117.96C134.771 118.347 135.277 118.541 135.857 118.541Z" fill="white"/>
<path d="M63.1729 151.569V144.779M63.1729 144.779L59.7777 148.174M63.1729 144.779L66.5681 148.174" stroke="#06CC06" stroke-width="1.16406" stroke-linecap="round" stroke-linejoin="round"/>
<path d="M72.0973 150.017V149.293L74.6582 145.248H75.2282V146.313H74.8665L73.0349 149.212V149.258H76.5448V150.017H72.0973ZM74.907 151.174V149.797L74.9128 149.467V145.248H75.7607V151.174H74.907ZM79.6164 151.272C79.1592 151.271 78.7686 151.15 78.4445 150.911C78.1204 150.672 77.8725 150.323 77.7008 149.866C77.5291 149.409 77.4433 148.858 77.4433 148.214C77.4433 147.572 77.5291 147.023 77.7008 146.567C77.8744 146.112 78.1233 145.765 78.4474 145.526C78.7734 145.287 79.1631 145.167 79.6164 145.167C80.0697 145.167 80.4585 145.287 80.7825 145.529C81.1066 145.768 81.3545 146.115 81.5262 146.57C81.6998 147.024 81.7866 147.572 81.7866 148.214C81.7866 148.86 81.7008 149.412 81.5291 149.869C81.3574 150.324 81.1095 150.673 80.7854 150.914C80.4613 151.153 80.0717 151.272 79.6164 151.272ZM79.6164 150.5C80.0177 150.5 80.3311 150.304 80.5568 149.912C80.7845 149.521 80.8983 148.955 80.8983 148.214C80.8983 147.722 80.8462 147.306 80.742 146.967C80.6398 146.625 80.4922 146.367 80.2993 146.191C80.1083 146.014 79.8807 145.925 79.6164 145.925C79.2171 145.925 78.9036 146.122 78.676 146.515C78.4483 146.909 78.3336 147.475 78.3316 148.214C78.3316 148.708 78.3828 149.125 78.485 149.467C78.5892 149.806 78.7367 150.064 78.9277 150.239C79.1187 150.413 79.3483 150.5 79.6164 150.5ZM85.9064 150.063V149.75C85.9064 149.527 85.9527 149.322 86.0453 149.137C86.1398 148.95 86.2768 148.8 86.4562 148.688C86.6375 148.575 86.8565 148.518 87.1131 148.518C87.3754 148.518 87.5953 148.574 87.7728 148.686C87.9503 148.797 88.0843 148.947 88.175 149.134C88.2676 149.321 88.3139 149.527 88.3139 149.75V150.063C88.3139 150.287 88.2676 150.492 88.175 150.679C88.0824 150.864 87.9464 151.014 87.767 151.128C87.5895 151.24 87.3716 151.296 87.1131 151.296C86.8526 151.296 86.6327 151.24 86.4533 151.128C86.2739 151.014 86.1379 150.864 86.0453 150.679C85.9527 150.492 85.9064 150.287 85.9064 150.063ZM86.5806 149.75V150.063C86.5806 150.229 86.6202 150.379 86.6993 150.514C86.7784 150.649 86.9163 150.717 87.1131 150.717C87.3079 150.717 87.4439 150.649 87.5211 150.514C87.5982 150.379 87.6368 150.229 87.6368 150.063V149.75C87.6368 149.585 87.5992 149.434 87.524 149.299C87.4506 149.164 87.3137 149.096 87.1131 149.096C86.9201 149.096 86.7832 149.164 86.7022 149.299C86.6211 149.434 86.5806 149.585 86.5806 149.75ZM82.926 146.672V146.359C82.926 146.135 82.9723 145.93 83.0649 145.743C83.1594 145.556 83.2964 145.406 83.4758 145.294C83.6571 145.182 83.8761 145.126 84.1326 145.126C84.395 145.126 84.6149 145.182 84.7924 145.294C84.9698 145.406 85.1039 145.556 85.1946 145.743C85.2853 145.93 85.3306 146.135 85.3306 146.359V146.672C85.3306 146.895 85.2843 147.101 85.1917 147.288C85.101 147.473 84.966 147.623 84.7866 147.736C84.6091 147.848 84.3911 147.904 84.1326 147.904C83.8703 147.904 83.6494 147.848 83.47 147.736C83.2925 147.623 83.1575 147.473 83.0649 147.288C82.9723 147.101 82.926 146.895 82.926 146.672ZM83.6031 146.359V146.672C83.6031 146.837 83.6417 146.988 83.7188 147.123C83.7979 147.258 83.9359 147.326 84.1326 147.326C84.3255 147.326 84.4606 147.258 84.5377 147.123C84.6168 146.988 84.6564 146.837 84.6564 146.672V146.359C84.6564 146.193 84.6188 146.043 84.5435 145.908C84.4683 145.773 84.3313 145.705 84.1326 145.705C83.9397 145.705 83.8028 145.773 83.7217 145.908C83.6426 146.043 83.6031 146.193 83.6031 146.359ZM83.2009 151.174L87.2751 145.248H87.9667L83.8925 151.174H83.2009Z" fill="#06CC06"/>
<path d="M98.3615 146.729L96.7497 151.174H95.8237L94.2091 146.729H95.138L96.2636 150.15H96.3099L97.4326 146.729H98.3615ZM102.505 147.815L101.721 147.953C101.688 147.853 101.636 147.758 101.565 147.667C101.495 147.576 101.401 147.502 101.281 147.444C101.162 147.386 101.012 147.357 100.833 147.357C100.588 147.357 100.383 147.412 100.219 147.522C100.055 147.63 99.9732 147.77 99.9732 147.942C99.9732 148.09 100.028 148.21 100.138 148.301C100.248 148.391 100.426 148.466 100.671 148.524L101.377 148.686C101.786 148.78 102.09 148.926 102.291 149.122C102.492 149.319 102.592 149.575 102.592 149.889C102.592 150.156 102.515 150.393 102.36 150.601C102.208 150.808 101.995 150.97 101.721 151.087C101.449 151.205 101.134 151.264 100.775 151.264C100.277 151.264 99.871 151.158 99.5565 150.945C99.2421 150.731 99.0492 150.428 98.9778 150.034L99.814 149.907C99.8661 150.125 99.9732 150.29 100.135 150.401C100.297 150.511 100.509 150.566 100.769 150.566C101.053 150.566 101.279 150.508 101.449 150.39C101.619 150.27 101.704 150.125 101.704 149.953C101.704 149.814 101.651 149.697 101.547 149.603C101.445 149.508 101.288 149.437 101.076 149.389L100.323 149.224C99.9086 149.129 99.6019 148.979 99.4032 148.772C99.2064 148.566 99.108 148.305 99.108 147.988C99.108 147.726 99.1813 147.496 99.3279 147.3C99.4745 147.103 99.6771 146.949 99.9356 146.839C100.194 146.728 100.49 146.672 100.824 146.672C101.304 146.672 101.682 146.776 101.958 146.984C102.234 147.191 102.416 147.467 102.505 147.815ZM106.565 145.248V151.174H105.7V145.248H106.565ZM109.022 151.272C108.741 151.272 108.486 151.22 108.258 151.116C108.031 151.01 107.85 150.857 107.717 150.656C107.586 150.455 107.52 150.21 107.52 149.918C107.52 149.667 107.569 149.461 107.665 149.299C107.762 149.137 107.892 149.009 108.056 148.914C108.22 148.82 108.403 148.748 108.606 148.7C108.808 148.652 109.015 148.615 109.225 148.59C109.491 148.559 109.707 148.534 109.873 148.515C110.039 148.494 110.159 148.46 110.235 148.414C110.31 148.367 110.348 148.292 110.348 148.188V148.168C110.348 147.915 110.276 147.719 110.133 147.58C109.993 147.441 109.782 147.372 109.503 147.372C109.211 147.372 108.982 147.436 108.814 147.566C108.648 147.693 108.533 147.835 108.47 147.991L107.656 147.806C107.753 147.536 107.894 147.318 108.079 147.152C108.266 146.984 108.481 146.863 108.724 146.787C108.967 146.71 109.223 146.672 109.491 146.672C109.669 146.672 109.857 146.693 110.055 146.735C110.256 146.776 110.443 146.851 110.617 146.961C110.792 147.071 110.936 147.228 111.048 147.433C111.16 147.635 111.216 147.898 111.216 148.223V151.174H110.371V150.566H110.336C110.28 150.678 110.196 150.788 110.084 150.896C109.972 151.004 109.829 151.094 109.653 151.165C109.478 151.237 109.267 151.272 109.022 151.272ZM109.21 150.578C109.45 150.578 109.654 150.531 109.824 150.436C109.995 150.342 110.126 150.218 110.214 150.066C110.305 149.911 110.35 149.747 110.35 149.571V148.998C110.32 149.029 110.26 149.058 110.171 149.085C110.084 149.11 109.985 149.132 109.873 149.151C109.761 149.169 109.652 149.185 109.546 149.201C109.44 149.214 109.351 149.226 109.28 149.235C109.112 149.257 108.959 149.292 108.82 149.342C108.683 149.393 108.573 149.465 108.49 149.559C108.409 149.652 108.368 149.775 108.368 149.93C108.368 150.144 108.447 150.306 108.606 150.416C108.764 150.524 108.965 150.578 109.21 150.578ZM115.699 147.815L114.914 147.953C114.882 147.853 114.83 147.758 114.758 147.667C114.689 147.576 114.594 147.502 114.475 147.444C114.355 147.386 114.205 147.357 114.026 147.357C113.781 147.357 113.577 147.412 113.413 147.522C113.249 147.63 113.167 147.77 113.167 147.942C113.167 148.09 113.222 148.21 113.332 148.301C113.442 148.391 113.619 148.466 113.864 148.524L114.57 148.686C114.979 148.78 115.284 148.926 115.484 149.122C115.685 149.319 115.785 149.575 115.785 149.889C115.785 150.156 115.708 150.393 115.554 150.601C115.402 150.808 115.188 150.97 114.914 151.087C114.642 151.205 114.327 151.264 113.968 151.264C113.47 151.264 113.064 151.158 112.75 150.945C112.436 150.731 112.243 150.428 112.171 150.034L113.008 149.907C113.06 150.125 113.167 150.29 113.329 150.401C113.491 150.511 113.702 150.566 113.962 150.566C114.246 150.566 114.473 150.508 114.642 150.39C114.812 150.27 114.897 150.125 114.897 149.953C114.897 149.814 114.845 149.697 114.741 149.603C114.639 149.508 114.481 149.437 114.269 149.389L113.517 149.224C113.102 149.129 112.795 148.979 112.597 148.772C112.4 148.566 112.301 148.305 112.301 147.988C112.301 147.726 112.375 147.496 112.521 147.3C112.668 147.103 112.871 146.949 113.129 146.839C113.388 146.728 113.684 146.672 114.017 146.672C114.498 146.672 114.876 146.776 115.152 146.984C115.428 147.191 115.61 147.467 115.699 147.815ZM118.811 146.729V147.424H116.384V146.729H118.811ZM117.035 145.665H117.9V149.869C117.9 150.037 117.925 150.163 117.975 150.248C118.025 150.331 118.09 150.388 118.169 150.419C118.25 150.448 118.338 150.462 118.432 150.462C118.502 150.462 118.563 150.457 118.615 150.448C118.667 150.438 118.707 150.43 118.736 150.425L118.892 151.139C118.842 151.159 118.771 151.178 118.678 151.197C118.586 151.218 118.47 151.23 118.331 151.232C118.103 151.236 117.891 151.195 117.694 151.11C117.498 151.026 117.339 150.894 117.217 150.717C117.095 150.539 117.035 150.317 117.035 150.048V145.665ZM121.925 151.174V146.729H122.755V147.453H122.81C122.903 147.208 123.054 147.017 123.265 146.88C123.475 146.741 123.727 146.672 124.02 146.672C124.317 146.672 124.566 146.741 124.766 146.88C124.969 147.019 125.119 147.21 125.215 147.453H125.261C125.367 147.216 125.536 147.027 125.768 146.886C125.999 146.743 126.275 146.672 126.595 146.672C126.998 146.672 127.327 146.798 127.582 147.051C127.839 147.303 127.967 147.684 127.967 148.194V151.174H127.102V148.275C127.102 147.974 127.02 147.756 126.856 147.621C126.692 147.486 126.496 147.418 126.268 147.418C125.987 147.418 125.768 147.505 125.611 147.679C125.455 147.85 125.377 148.071 125.377 148.341V151.174H124.515V148.22C124.515 147.979 124.439 147.785 124.289 147.638C124.139 147.491 123.943 147.418 123.702 147.418C123.538 147.418 123.386 147.462 123.247 147.548C123.11 147.633 122.999 147.752 122.915 147.904C122.832 148.057 122.79 148.233 122.79 148.434V151.174H121.925ZM130.999 151.264C130.582 151.264 130.218 151.168 129.908 150.977C129.597 150.786 129.356 150.519 129.184 150.176C129.013 149.832 128.927 149.431 128.927 148.972C128.927 148.511 129.013 148.108 129.184 147.762C129.356 147.417 129.597 147.149 129.908 146.958C130.218 146.767 130.582 146.672 130.999 146.672C131.415 146.672 131.779 146.767 132.09 146.958C132.4 147.149 132.641 147.417 132.813 147.762C132.985 148.108 133.07 148.511 133.07 148.972C133.07 149.431 132.985 149.832 132.813 150.176C132.641 150.519 132.4 150.786 132.09 150.977C131.779 151.168 131.415 151.264 130.999 151.264ZM131.001 150.537C131.272 150.537 131.495 150.466 131.673 150.323C131.85 150.181 131.981 149.991 132.066 149.753C132.153 149.516 132.197 149.255 132.197 148.969C132.197 148.686 132.153 148.425 132.066 148.188C131.981 147.949 131.85 147.757 131.673 147.612C131.495 147.467 131.272 147.395 131.001 147.395C130.729 147.395 130.504 147.467 130.324 147.612C130.147 147.757 130.015 147.949 129.928 148.188C129.843 148.425 129.801 148.686 129.801 148.969C129.801 149.255 129.843 149.516 129.928 149.753C130.015 149.991 130.147 150.181 130.324 150.323C130.504 150.466 130.729 150.537 131.001 150.537ZM134.901 148.535V151.174H134.036V146.729H134.867V147.453H134.922C135.024 147.218 135.184 147.028 135.402 146.886C135.622 146.743 135.899 146.672 136.232 146.672C136.535 146.672 136.801 146.735 137.028 146.863C137.256 146.988 137.432 147.175 137.558 147.424C137.683 147.673 137.746 147.98 137.746 148.347V151.174H136.881V148.451C136.881 148.129 136.797 147.877 136.629 147.696C136.461 147.513 136.231 147.421 135.937 147.421C135.737 147.421 135.558 147.464 135.402 147.551C135.248 147.638 135.125 147.765 135.034 147.933C134.946 148.099 134.901 148.3 134.901 148.535ZM140.981 146.729V147.424H138.553V146.729H140.981ZM139.204 145.665H140.069V149.869C140.069 150.037 140.094 150.163 140.145 150.248C140.195 150.331 140.259 150.388 140.338 150.419C140.42 150.448 140.507 150.462 140.602 150.462C140.671 150.462 140.732 150.457 140.784 150.448C140.836 150.438 140.877 150.43 140.906 150.425L141.062 151.139C141.012 151.159 140.94 151.178 140.848 151.197C140.755 151.218 140.639 151.23 140.501 151.232C140.273 151.236 140.061 151.195 139.864 151.11C139.667 151.026 139.508 150.894 139.386 150.717C139.265 150.539 139.204 150.317 139.204 150.048V145.665ZM142.899 148.535V151.174H142.033V145.248H142.887V147.453H142.942C143.046 147.214 143.205 147.024 143.419 146.883C143.634 146.742 143.913 146.672 144.259 146.672C144.563 146.672 144.83 146.734 145.057 146.86C145.287 146.985 145.464 147.172 145.59 147.421C145.717 147.668 145.781 147.977 145.781 148.347V151.174H144.915V148.451C144.915 148.125 144.832 147.872 144.664 147.693C144.496 147.512 144.262 147.421 143.963 147.421C143.759 147.421 143.576 147.464 143.414 147.551C143.254 147.638 143.127 147.765 143.035 147.933C142.944 148.099 142.899 148.3 142.899 148.535Z" fill="white" fill-opacity="0.75"/>
<path d="M288.274 101.901C276.089 102.903 275.335 126.888 263.274 129.651C253.329 131.929 248.293 118.998 238.274 120.401C227.408 121.922 223.93 135.396 213.274 138.901H288.274V101.901Z" fill="url(#paint0_linear_1382_1999)" fill-opacity="0.2"/>
<path d="M213.274 138.901C223.93 135.396 227.408 121.922 238.274 120.401C248.293 118.998 253.329 131.929 263.274 129.651C275.335 126.888 276.089 102.903 288.274 101.901" stroke="#12B76A" stroke-width="1.16406" stroke-linecap="round" stroke-linejoin="round"/>
</g>
</g>
<defs>
<filter id="filter0_i_1382_1999" x="37.5636" y="61.8499" width="270" height="161.586" filterUnits="userSpaceOnUse" color-interpolation-filters="sRGB">
<feFlood flood-opacity="0" result="BackgroundImageFix"/>
<feBlend mode="normal" in="SourceGraphic" in2="BackgroundImageFix" result="shape"/>
<feColorMatrix in="SourceAlpha" type="matrix" values="0 0 0 0 0 0 0 0 0 0 0 0 0 0 0 0 0 0 127 0" result="hardAlpha"/>
<feOffset dy="11.6406"/>
<feGaussianBlur stdDeviation="17.4609"/>
<feComposite in2="hardAlpha" operator="arithmetic" k2="-1" k3="1"/>
<feColorMatrix type="matrix" values="0 0 0 0 1 0 0 0 0 1 0 0 0 0 1 0 0 0 0.25 0"/>
<feBlend mode="normal" in2="shape" result="effect1_innerShadow_1382_1999"/>
</filter>
<linearGradient id="paint0_linear_1382_1999" x1="250.774" y1="138.901" x2="250.774" y2="126.182" gradientUnits="userSpaceOnUse">
<stop stop-color="#2C2F2C"/>
<stop offset="1" stop-color="#94D5AE" stop-opacity="0.67"/>
</linearGradient>
<clipPath id="clip0_1382_1999">
<rect width="318" height="194" fill="white" transform="translate(0.768799 37.2131) rotate(-6.7)"/>
</clipPath>
</defs>
</svg>
