<svg width="48" height="48" viewBox="0 0 48 48" fill="none" xmlns="http://www.w3.org/2000/svg">
<path d="M9.8499 18.4503C9.17314 16.42 7.57998 14.8269 5.5497 14.1501C3.48343 13.4613 3.48343 10.5387 5.5497 9.8499C7.57998 9.17314 9.17314 7.57998 9.8499 5.5497C10.5387 3.48343 13.4613 3.48343 14.1501 5.5497C14.8269 7.57998 16.42 9.17314 18.4503 9.8499C20.5166 10.5387 20.5166 13.4613 18.4503 14.1501C16.42 14.8269 14.8269 16.42 14.1501 18.4503C13.4613 20.5166 10.5387 20.5166 9.8499 18.4503Z" fill="white" fill-opacity="0.75"/>
<path d="M26.2373 41.288C25.053 37.735 22.265 34.947 18.712 33.7627C15.096 32.5574 15.096 27.4427 18.712 26.2373C22.265 25.053 25.053 22.265 26.2373 18.712C27.4427 15.096 32.5574 15.096 33.7627 18.712C34.947 22.265 37.735 25.053 41.288 26.2373C44.904 27.4427 44.904 32.5574 41.288 33.7627C37.735 34.947 34.947 37.735 33.7627 41.288C32.5574 44.904 27.4427 44.904 26.2373 41.288Z" fill="white" fill-opacity="0.75"/>
<path d="M9.8499 18.4503C9.17314 16.42 7.57998 14.8269 5.5497 14.1501C3.48343 13.4613 3.48343 10.5387 5.5497 9.8499C7.57998 9.17314 9.17314 7.57998 9.8499 5.5497C10.5387 3.48343 13.4613 3.48343 14.1501 5.5497C14.8269 7.57998 16.42 9.17314 18.4503 9.8499C20.5166 10.5387 20.5166 13.4613 18.4503 14.1501C16.42 14.8269 14.8269 16.42 14.1501 18.4503C13.4613 20.5166 10.5387 20.5166 9.8499 18.4503Z" stroke="url(#paint0_linear_408_37270)" stroke-linecap="round" stroke-linejoin="round"/>
<path d="M26.2373 41.288C25.053 37.735 22.265 34.947 18.712 33.7627C15.096 32.5574 15.096 27.4427 18.712 26.2373C22.265 25.053 25.053 22.265 26.2373 18.712C27.4427 15.096 32.5574 15.096 33.7627 18.712C34.947 22.265 37.735 25.053 41.288 26.2373C44.904 27.4427 44.904 32.5574 41.288 33.7627C37.735 34.947 34.947 37.735 33.7627 41.288C32.5574 44.904 27.4427 44.904 26.2373 41.288Z" stroke="url(#paint1_linear_408_37270)" stroke-linecap="round" stroke-linejoin="round"/>
<defs>
<linearGradient id="paint0_linear_408_37270" x1="24" y1="4" x2="36.5" y2="44" gradientUnits="userSpaceOnUse">
<stop stop-color="white"/>
<stop offset="1" stop-color="white" stop-opacity="0"/>
</linearGradient>
<linearGradient id="paint1_linear_408_37270" x1="24" y1="4" x2="36.5" y2="44" gradientUnits="userSpaceOnUse">
<stop stop-color="white"/>
<stop offset="1" stop-color="white" stop-opacity="0"/>
</linearGradient>
</defs>
</svg>
