<svg width="56" height="56" viewBox="0 0 56 56" fill="none"
    xmlns="http://www.w3.org/2000/svg">
    <rect x="4" y="4" width="48" height="48" rx="24" fill="#E1EDFA"/>
    <rect x="4" y="4" width="48" height="48" rx="24" stroke="#F4F9FF" stroke-width="8"/>
    <path d="M21.0911 22.4166C20.5409 22.3685 20.0558 22.7755 20.0077 23.3257C19.9596 23.8759 20.3666 24.3609 20.9168 24.409L22.9091 24.5833C23.4593 24.6315 23.9444 24.2245 23.9925 23.6743C24.0406 23.1241 23.6336 22.6391 23.0835 22.5909L21.0911 22.4166Z" fill="#0662CC"/>
    <path d="M32.0077 24.3257C32.0558 23.7755 32.5409 23.3685 33.0911 23.4166L35.0835 23.5909C35.6336 23.6391 36.0406 24.1241 35.9925 24.6743C35.9444 25.2245 35.4593 25.6315 34.9091 25.5833L32.9168 25.409C32.3666 25.3609 31.9596 24.8759 32.0077 24.3257Z" fill="#0662CC"/>
    <path d="M21.0911 31.0038C20.5409 30.9557 20.0558 31.3626 20.0077 31.9128C19.9596 32.463 20.3666 32.948 20.9168 32.9962L22.9091 33.1705C23.4593 33.2186 23.9444 32.8116 23.9925 32.2615C24.0406 31.7113 23.6336 31.2262 23.0835 31.1781L21.0911 31.0038Z" fill="#0662CC"/>
    <path d="M32.0077 33.3257C32.0558 32.7755 32.5409 32.3685 33.0911 32.4166L35.0835 32.5909C35.6336 32.6391 36.0406 33.1241 35.9925 33.6743C35.9444 34.2245 35.4593 34.6315 34.9091 34.5833L32.9168 34.409C32.3666 34.3609 31.9596 33.8759 32.0077 33.3257Z" fill="#0662CC"/>
    <path fill-rule="evenodd" clip-rule="evenodd" d="M28 25C29.6569 25 31 26.3431 31 28C31 29.6568 29.6569 31 28 31C26.3431 31 25 29.6568 25 28C25 26.3431 26.3431 25 28 25ZM29 28C29 27.4477 28.5523 27 28 27C27.4477 27 27 27.4477 27 28C27 28.5523 27.4477 29 28 29C28.5523 29 29 28.5523 29 28Z" fill="#0662CC"/>
    <path fill-rule="evenodd" clip-rule="evenodd" d="M21.2443 19.2416C18.9311 19.043 17 20.8759 17 23.1686V31.1596C17 33.2848 18.655 35.0305 20.7482 35.2066C21.6063 35.2788 22.6588 35.3733 23.9024 35.4952C24.1254 35.5171 24.621 35.6182 25.3377 35.7839C25.8089 35.8929 26.3392 36.0209 26.8964 36.1554C27.1591 36.2188 27.4286 36.2839 27.6998 36.3488C28.5391 36.5499 29.3972 36.7506 30.1357 36.9017C30.8428 37.0464 31.5356 37.1667 31.9958 37.1687C33.1394 37.1735 34.2579 37.1519 35.2151 37.1227C37.3562 37.0574 39 35.2885 39 33.1812V25.1928C39 22.8804 37.0564 21.0729 34.7836 21.1343C33.931 21.1573 32.9751 21.1728 32.0042 21.1687C31.7734 21.1677 31.2712 21.0927 30.5366 20.9423C29.8335 20.7985 29.0034 20.6045 28.1657 20.4039C27.9033 20.341 27.6395 20.2773 27.3793 20.2145L27.3782 20.2143C26.8155 20.0784 26.269 19.9465 25.7883 19.8353C25.1081 19.6781 24.4759 19.5418 24.0976 19.5048C22.9986 19.397 22.0468 19.3105 21.2443 19.2416ZM19 23.1686C19 22.0188 19.9566 21.1384 21.0733 21.2343C21.8678 21.3024 22.8116 21.3883 23.9024 21.4952C24.1254 21.5171 24.621 21.6182 25.3377 21.7839C25.8089 21.8929 26.3394 22.021 26.8967 22.1555C27.1596 22.2189 27.4284 22.2838 27.6998 22.3488C28.5391 22.5499 29.3972 22.7506 30.1357 22.9017C30.8428 23.0464 31.5356 23.1667 31.9958 23.1687C32.9924 23.1729 33.9697 23.157 34.8377 23.1336C36.0241 23.1015 37 24.0447 37 25.1928V33.1812C37 34.2426 36.1803 35.0923 35.1541 35.1236C34.2131 35.1523 33.1187 35.1734 32.0042 35.1687C31.7734 35.1677 31.2712 35.0927 30.5366 34.9424C29.8335 34.7985 29.0034 34.6045 28.1657 34.4039C27.903 34.3409 27.639 34.2772 27.3784 34.2143C26.8156 34.0784 26.269 33.9465 25.7883 33.8353C25.1081 33.6781 24.4759 33.5418 24.0976 33.5048C22.8447 33.3819 21.783 33.2866 20.9159 33.2137C19.8341 33.1226 19 32.2208 19 31.1596V23.1686Z" fill="#0662CC"/>
</svg>
