<svg width="20" height="21" viewBox="0 0 20 21" fill="none" xmlns="http://www.w3.org/2000/svg">
<path fill-rule="evenodd" clip-rule="evenodd" d="M6.66666 1.33331C7.12689 1.33331 7.49999 1.70641 7.49999 2.16665V2.99998H12.5V2.16665C12.5 1.70641 12.8731 1.33331 13.3333 1.33331C13.7936 1.33331 14.1667 1.70641 14.1667 2.16665V2.99998H15C16.8409 2.99998 18.3333 4.49236 18.3333 6.33331V15.5C18.3333 17.3409 16.8409 18.8333 15 18.8333H4.99999C3.15904 18.8333 1.66666 17.3409 1.66666 15.5V6.33331C1.66666 4.49236 3.15904 2.99998 4.99999 2.99998H5.83332V2.16665C5.83332 1.70641 6.20642 1.33331 6.66666 1.33331ZM12.5 4.66665C12.5 5.12688 12.8731 5.49998 13.3333 5.49998C13.7936 5.49998 14.1667 5.12688 14.1667 4.66665H15C15.9205 4.66665 16.6667 5.41284 16.6667 6.33331V6.74998H3.33332V6.33331C3.33332 5.41284 4.07952 4.66665 4.99999 4.66665H5.83332C5.83332 5.12688 6.20642 5.49998 6.66666 5.49998C7.12689 5.49998 7.49999 5.12688 7.49999 4.66665H12.5ZM16.6667 8.41665H3.33332V15.5C3.33332 16.4205 4.07952 17.1666 4.99999 17.1666H15C15.9205 17.1666 16.6667 16.4205 16.6667 15.5V8.41665Z" fill="#5E665E"/>
</svg>
