<svg width="16" height="16" viewBox="0 0 16 16" fill="none"
    xmlns="http://www.w3.org/2000/svg">
    <path d="M3.33203 11.6667C3.33203 11.2985 3.63051 11 3.9987 11H8.66536C9.03355 11 9.33203 11.2985 9.33203 11.6667C9.33203 12.0349 9.03355 12.3333 8.66536 12.3333H3.9987C3.63051 12.3333 3.33203 12.0349 3.33203 11.6667Z" fill="#ffffff"/>
    <path d="M10.6654 11C10.2972 11 9.9987 11.2985 9.9987 11.6667C9.9987 12.0349 10.2972 12.3333 10.6654 12.3333H11.9987C12.3669 12.3333 12.6654 12.0349 12.6654 11.6667C12.6654 11.2985 12.3669 11 11.9987 11H10.6654Z" fill="#ffffff"/>
    <path fill-rule="evenodd" clip-rule="evenodd" d="M5.33203 1C5.70022 1 5.9987 1.29848 5.9987 1.66667V2.33333H9.9987V1.66667C9.9987 1.29848 10.2972 1 10.6654 1C11.0336 1 11.332 1.29848 11.332 1.66667V2.33333H11.9987C13.4715 2.33333 14.6654 3.52724 14.6654 5V12.3333C14.6654 13.8061 13.4715 15 11.9987 15H3.9987C2.52594 15 1.33203 13.8061 1.33203 12.3333V5C1.33203 3.52724 2.52594 2.33333 3.9987 2.33333H4.66536V1.66667C4.66536 1.29848 4.96384 1 5.33203 1ZM9.9987 3.66667C9.9987 4.03486 10.2972 4.33333 10.6654 4.33333C11.0336 4.33333 11.332 4.03486 11.332 3.66667H11.9987C12.7351 3.66667 13.332 4.26362 13.332 5V5.33333H2.66536V5C2.66536 4.26362 3.26232 3.66667 3.9987 3.66667H4.66536C4.66536 4.03486 4.96384 4.33333 5.33203 4.33333C5.70022 4.33333 5.9987 4.03486 5.9987 3.66667H9.9987ZM13.332 6.66667H2.66536V12.3333C2.66536 13.0697 3.26232 13.6667 3.9987 13.6667H11.9987C12.7351 13.6667 13.332 13.0697 13.332 12.3333V6.66667Z" fill="#ffffff"/>
</svg>
