<svg width="18" height="18" viewBox="0 0 18 18" fill="none" xmlns="http://www.w3.org/2000/svg">
<path fill-rule="evenodd" clip-rule="evenodd" d="M5.66675 0.333313C6.12699 0.333313 6.50008 0.706409 6.50008 1.16665V1.99998H11.5001V1.16665C11.5001 0.706409 11.8732 0.333313 12.3334 0.333313C12.7937 0.333313 13.1667 0.706409 13.1667 1.16665V1.99998H14.0001C15.841 1.99998 17.3334 3.49236 17.3334 5.33331V14.5C17.3334 16.3409 15.841 17.8333 14.0001 17.8333H4.00008C2.15913 17.8333 0.666748 16.3409 0.666748 14.5V5.33331C0.666748 3.49236 2.15913 1.99998 4.00008 1.99998H4.83342V1.16665C4.83342 0.706409 5.20651 0.333313 5.66675 0.333313ZM11.5001 3.66665C11.5001 4.12688 11.8732 4.49998 12.3334 4.49998C12.7937 4.49998 13.1667 4.12688 13.1667 3.66665H14.0001C14.9206 3.66665 15.6667 4.41284 15.6667 5.33331V5.74998H2.33341V5.33331C2.33341 4.41284 3.07961 3.66665 4.00008 3.66665H4.83342C4.83342 4.12688 5.20651 4.49998 5.66675 4.49998C6.12699 4.49998 6.50008 4.12688 6.50008 3.66665H11.5001ZM15.6667 7.41665H2.33341V14.5C2.33341 15.4205 3.07961 16.1666 4.00008 16.1666H14.0001C14.9206 16.1666 15.6667 15.4205 15.6667 14.5V7.41665Z" fill="#5E665E"/>
</svg>
