<svg width="40" height="41" viewBox="0 0 40 41" fill="none" xmlns="http://www.w3.org/2000/svg">
<path d="M0.5 8.5C0.5 4.35786 3.85786 1 8 1H32C36.1421 1 39.5 4.35786 39.5 8.5V32.5C39.5 36.6421 36.1421 40 32 40H8C3.85786 40 0.5 36.6421 0.5 32.5V8.5Z" fill="#F7FAF7"/>
<path d="M0.5 8.5C0.5 4.35786 3.85786 1 8 1H32C36.1421 1 39.5 4.35786 39.5 8.5V32.5C39.5 36.6421 36.1421 40 32 40H8C3.85786 40 0.5 36.6421 0.5 32.5V8.5Z" stroke="#E7ECE7"/>
<path fill-rule="evenodd" clip-rule="evenodd" d="M16.6667 11.3333C17.127 11.3333 17.5001 11.7064 17.5001 12.1666V13H22.5001V12.1666C22.5001 11.7064 22.8732 11.3333 23.3334 11.3333C23.7937 11.3333 24.1667 11.7064 24.1667 12.1666V13H25.0001C26.841 13 28.3334 14.4924 28.3334 16.3333V25.5C28.3334 27.3409 26.841 28.8333 25.0001 28.8333H15.0001C13.1591 28.8333 11.6667 27.3409 11.6667 25.5V16.3333C11.6667 14.4924 13.1591 13 15.0001 13H15.8334V12.1666C15.8334 11.7064 16.2065 11.3333 16.6667 11.3333ZM22.5001 14.6666C22.5001 15.1269 22.8732 15.5 23.3334 15.5C23.7937 15.5 24.1667 15.1269 24.1667 14.6666H25.0001C25.9206 14.6666 26.6667 15.4128 26.6667 16.3333V16.75H13.3334V16.3333C13.3334 15.4128 14.0796 14.6666 15.0001 14.6666H15.8334C15.8334 15.1269 16.2065 15.5 16.6667 15.5C17.127 15.5 17.5001 15.1269 17.5001 14.6666H22.5001ZM26.6667 18.4166H13.3334V25.5C13.3334 26.4205 14.0796 27.1666 15.0001 27.1666H25.0001C25.9206 27.1666 26.6667 26.4205 26.6667 25.5V18.4166Z" fill="#5E665E"/>
</svg>
