<svg width="16" height="16" viewBox="0 0 16 16" fill="none"
    xmlns="http://www.w3.org/2000/svg">
    <path d="M3.33341 4.33335C2.96522 4.33335 2.66675 4.63183 2.66675 5.00002C2.66675 5.36821 2.96522 5.66669 3.33341 5.66669H4.66675C5.03494 5.66669 5.33341 5.36821 5.33341 5.00002C5.33341 4.63183 5.03494 4.33335 4.66675 4.33335H3.33341Z" fill="#141714"/>
    <path d="M10.6667 5.00002C10.6667 4.63183 10.9652 4.33335 11.3334 4.33335H12.6667C13.0349 4.33335 13.3334 4.63183 13.3334 5.00002C13.3334 5.36821 13.0349 5.66669 12.6667 5.66669H11.3334C10.9652 5.66669 10.6667 5.36821 10.6667 5.00002Z" fill="#141714"/>
    <path d="M3.33341 10.3334C2.96522 10.3334 2.66675 10.6318 2.66675 11C2.66675 11.3682 2.96522 11.6667 3.33341 11.6667H4.66675C5.03494 11.6667 5.33341 11.3682 5.33341 11C5.33341 10.6318 5.03494 10.3334 4.66675 10.3334H3.33341Z" fill="#141714"/>
    <path d="M10.6667 11C10.6667 10.6318 10.9652 10.3334 11.3334 10.3334H12.6667C13.0349 10.3334 13.3334 10.6318 13.3334 11C13.3334 11.3682 13.0349 11.6667 12.6667 11.6667H11.3334C10.9652 11.6667 10.6667 11.3682 10.6667 11Z" fill="#141714"/>
    <path fill-rule="evenodd" clip-rule="evenodd" d="M8.00008 6.00002C9.10465 6.00002 10.0001 6.89545 10.0001 8.00002C10.0001 9.10459 9.10465 10 8.00008 10C6.89551 10 6.00008 9.10459 6.00008 8.00002C6.00008 6.89545 6.89551 6.00002 8.00008 6.00002ZM8.66675 8.00002C8.66675 7.63183 8.36827 7.33335 8.00008 7.33335C7.63189 7.33335 7.33341 7.63183 7.33341 8.00002C7.33341 8.36821 7.63189 8.66669 8.00008 8.66669C8.36827 8.66669 8.66675 8.36821 8.66675 8.00002Z" fill="#141714"/>
    <path fill-rule="evenodd" clip-rule="evenodd" d="M3.33341 2.66669C1.86066 2.66669 0.666748 3.86059 0.666748 5.33335V10.6667C0.666748 12.1394 1.86065 13.3334 3.33341 13.3334H12.6667C14.1395 13.3334 15.3334 12.1394 15.3334 10.6667V5.33335C15.3334 3.86059 14.1395 2.66669 12.6667 2.66669H3.33341ZM2.00008 5.33335C2.00008 4.59697 2.59703 4.00002 3.33341 4.00002H12.6667C13.4031 4.00002 14.0001 4.59697 14.0001 5.33335V10.6667C14.0001 11.4031 13.4031 12 12.6667 12H3.33341C2.59703 12 2.00008 11.4031 2.00008 10.6667V5.33335Z" fill="#141714"/>
</svg>
