<svg width="56" height="56" viewBox="0 0 56 56" fill="none" xmlns="http://www.w3.org/2000/svg">
<rect x="4" y="4" width="48" height="48" rx="24" fill="#E1EDFA"/>
<rect x="4" y="4" width="48" height="48" rx="24" stroke="#F4F9FF" stroke-width="8"/>
<path d="M21.2929 30.9597C20.9024 31.3502 20.9024 31.9833 21.2929 32.3739C21.6834 32.7644 22.3166 32.7644 22.7071 32.3739L26.0678 29.0132L27.3675 30.0746C27.7759 30.4081 28.3731 30.3673 28.7322 29.9812L32.0028 26.4652L33.2705 27.8174C33.6482 28.2203 34.281 28.2407 34.6839 27.863C35.0869 27.4852 35.1073 26.8524 34.7295 26.4495L32.7295 24.3162C32.54 24.114 32.2751 23.9996 31.9981 24.0001C31.721 24.0006 31.4565 24.1161 31.2678 24.319L27.9064 27.9325L26.6325 26.8922C26.2349 26.5675 25.6559 26.5966 25.2929 26.9597L21.2929 30.9597Z" fill="#0662CC"/>
<path fill-rule="evenodd" clip-rule="evenodd" d="M21 19C18.7909 19 17 20.7909 17 23V33C17 35.2091 18.7909 37 21 37H35C37.2091 37 39 35.2091 39 33V23C39 20.7909 37.2091 19 35 19H21ZM19 23C19 21.8954 19.8954 21 21 21H35C36.1046 21 37 21.8954 37 23V33C37 34.1046 36.1046 35 35 35H21C19.8954 35 19 34.1046 19 33V23Z" fill="#0662CC"/>
</svg>
