<svg width="20" height="20" viewBox="0 0 20 20" fill="none"
    xmlns="http://www.w3.org/2000/svg">
    <path d="M10.0013 7.08342C10.0013 6.62318 9.62821 6.25008 9.16797 6.25008C8.70773 6.25008 8.33464 6.62318 8.33464 7.08342V11.2501C8.33464 11.7103 8.70773 12.0834 9.16797 12.0834H11.668C12.1282 12.0834 12.5013 11.7103 12.5013 11.2501C12.5013 10.7898 12.1282 10.4167 11.668 10.4167H10.0013V7.08342Z" fill="#ffffff"/>
    <path fill-rule="evenodd" clip-rule="evenodd" d="M10.0013 1.66675C5.39893 1.66675 1.66797 5.39771 1.66797 10.0001C1.66797 14.6025 5.39893 18.3334 10.0013 18.3334C14.6037 18.3334 18.3346 14.6025 18.3346 10.0001C18.3346 5.39771 14.6037 1.66675 10.0013 1.66675ZM3.33464 10.0001C3.33464 6.31818 6.3194 3.33341 10.0013 3.33341C13.6832 3.33341 16.668 6.31818 16.668 10.0001C16.668 13.682 13.6832 16.6667 10.0013 16.6667C6.3194 16.6667 3.33464 13.682 3.33464 10.0001Z" fill="#ffffff"/>
</svg>
