<svg width="21" height="20" viewBox="0 0 21 20" fill="none" xmlns="http://www.w3.org/2000/svg">
<path d="M9.32142 7.64306C8.99598 7.31762 8.46834 7.31762 8.14291 7.64306C7.81747 7.9685 7.81747 8.49613 8.14291 8.82157L9.32142 10.0001L8.14291 11.1786C7.81747 11.504 7.81747 12.0317 8.14291 12.3571C8.46834 12.6825 8.99598 12.6825 9.32142 12.3571L10.4999 11.1786L11.6784 12.3571C12.0039 12.6825 12.5315 12.6825 12.857 12.3571C13.1824 12.0317 13.1824 11.504 12.857 11.1786L11.6784 10.0001L12.857 8.82157C13.1824 8.49613 13.1824 7.9685 12.857 7.64306C12.5315 7.31762 12.0039 7.31762 11.6784 7.64306L10.4999 8.82157L9.32142 7.64306Z" fill="#800009"/>
<path fill-rule="evenodd" clip-rule="evenodd" d="M10.5 1.66675C5.89759 1.66675 2.16663 5.39771 2.16663 10.0001C2.16663 14.6025 5.89759 18.3334 10.5 18.3334C15.1023 18.3334 18.8333 14.6025 18.8333 10.0001C18.8333 5.39771 15.1023 1.66675 10.5 1.66675ZM3.83329 10.0001C3.83329 6.31818 6.81806 3.33341 10.5 3.33341C14.1819 3.33341 17.1666 6.31818 17.1666 10.0001C17.1666 13.682 14.1819 16.6667 10.5 16.6667C6.81806 16.6667 3.83329 13.682 3.83329 10.0001Z" fill="#800009"/>
</svg>
