<svg width="28" height="29" viewBox="0 0 28 29" fill="none" xmlns="http://www.w3.org/2000/svg">
<path d="M6.99935 11.5833C6.99935 8.03942 9.87219 5.16659 13.416 5.16659C16.5552 5.16659 19.17 7.42196 19.7242 10.401C19.8019 10.8188 20.1006 11.1613 20.5039 11.295C22.8265 12.0653 24.4993 14.2554 24.4993 16.8333C24.4993 20.0549 21.8877 22.6666 18.666 22.6666C18.0217 22.6666 17.4993 23.1889 17.4993 23.8333C17.4993 24.4776 18.0217 24.9999 18.666 24.9999C23.1763 24.9999 26.8327 21.3436 26.8327 16.8333C26.8327 13.4587 24.7866 10.5647 21.87 9.31942C20.872 5.58425 17.4664 2.83325 13.416 2.83325C8.58352 2.83325 4.66602 6.75076 4.66602 11.5833C4.66602 11.7002 4.66832 11.8168 4.67288 11.9327C2.57824 13.1412 1.16602 15.4046 1.16602 17.9999C1.16602 21.8659 4.30002 24.9999 8.16602 24.9999C8.81035 24.9999 9.33268 24.4776 9.33268 23.8333C9.33268 23.1889 8.81035 22.6666 8.16602 22.6666C5.58869 22.6666 3.49935 20.5772 3.49935 17.9999C3.49935 16.0664 4.67556 14.4048 6.35611 13.6969C6.84242 13.492 7.13067 12.9862 7.05908 12.4634C7.01975 12.1762 6.99935 11.8824 6.99935 11.5833Z" fill="#3E453E"/>
<path d="M13.2243 17.1279C13.6663 16.735 14.3324 16.735 14.7744 17.1279L16.5244 18.6835C17.006 19.1116 17.0494 19.849 16.6213 20.3306C16.2468 20.7519 15.6356 20.8378 15.166 20.5661V26.1666C15.166 26.8109 14.6437 27.3333 13.9993 27.3333C13.355 27.3333 12.8327 26.8109 12.8327 26.1666V20.5661C12.3631 20.8378 11.7519 20.7519 11.3774 20.3306C10.9493 19.849 10.9927 19.1116 11.4743 18.6835L13.2243 17.1279Z" fill="#3E453E"/>
</svg>
