<svg width="20" height="20" viewBox="0 0 20 20" fill="none" xmlns="http://www.w3.org/2000/svg">
<path fill-rule="evenodd" clip-rule="evenodd" d="M19.167 2.85785C19.167 1.70044 18.0163 0.895408 16.929 1.29217L10.8474 3.51142L4.74047 3.98896C3.0056 4.12462 1.66699 5.57198 1.66699 7.31215V8.52119C1.66699 10.2614 3.0056 11.7087 4.74047 11.8444L5.0843 11.8713L5.67073 16.9657C5.81511 18.22 6.87701 19.1667 8.13955 19.1667C9.62887 19.1667 10.7837 17.8657 10.6072 16.3869L10.1149 12.2646L10.8474 12.3219L16.929 14.5412C18.0163 14.9379 19.167 14.1329 19.167 12.9755V2.85785ZM4.8704 5.65055L10.1926 5.23438V10.599L4.8704 10.1828C4.00296 10.115 3.33366 9.39128 3.33366 8.52119V7.31215C3.33366 6.44206 4.00296 5.71838 4.8704 5.65055ZM17.5003 12.9755L11.8593 10.917V4.91633L17.5003 2.85785L17.5003 12.9755ZM7.32646 16.7751L6.77721 12.0036L8.42058 12.1322L8.95224 16.5845C9.0104 17.0715 8.63005 17.5 8.13955 17.5C7.72374 17.5 7.37401 17.1882 7.32646 16.7751Z" fill="#141714"/>
</svg>
