<svg width="20" height="20" viewBox="0 0 20 20" fill="none" xmlns="http://www.w3.org/2000/svg">
<path fill-rule="evenodd" clip-rule="evenodd" d="M10.3908 5.09183C11.6176 5.09183 12.6122 6.08638 12.6122 7.31322C12.6122 8.54006 11.6176 9.5346 10.3908 9.5346C9.16394 9.5346 8.16939 8.54006 8.16939 7.31322C8.16939 6.08638 9.16394 5.09183 10.3908 5.09183ZM10.9455 7.31322C10.9455 7.00686 10.6971 6.7585 10.3908 6.7585C10.0844 6.7585 9.83606 7.00686 9.83606 7.31322C9.83606 7.61958 10.0844 7.86794 10.3908 7.86794C10.6971 7.86794 10.9455 7.61958 10.9455 7.31322Z" fill="#141714"/>
<path fill-rule="evenodd" clip-rule="evenodd" d="M2.61719 4.95504C2.61719 3.11409 4.10957 1.6217 5.95052 1.6217H14.831C16.672 1.6217 18.1644 3.11409 18.1644 4.95504V9.6714C18.1644 10.1256 18.0735 10.5585 17.9091 10.953L17.6756 12.6696C17.5832 13.3489 17.2948 13.947 16.8784 14.42C16.8673 14.4545 16.8539 14.4886 16.838 14.5223L16.0483 16.196C15.1599 18.0792 12.7815 18.6959 11.0899 17.4817L3.93178 12.3437C3.87149 12.3004 3.81869 12.2506 3.77367 12.1958C3.06545 11.5846 2.61719 10.6803 2.61719 9.6714V4.95504ZM14.831 13.0047C15.2155 13.0047 15.5847 12.9396 15.9284 12.8199C15.6258 13.6086 14.7556 14.0689 13.9047 13.8199L11.1183 13.0047H14.831ZM4.867 3.6886C4.51006 3.99428 4.28385 4.44824 4.28385 4.95504V9.6714C4.28385 10.1782 4.51006 10.6322 4.867 10.9378C4.7617 10.7983 4.69927 10.6246 4.69927 10.4363C4.69927 9.9761 5.07236 9.603 5.5326 9.603H6.92065C7.38089 9.603 7.75398 9.9761 7.75398 10.4363C7.75398 10.8966 7.38089 11.2697 6.92065 11.2697H5.5326C5.51094 11.2697 5.48947 11.2688 5.46823 11.2672C5.6209 11.3133 5.78282 11.3381 5.95052 11.3381H14.831C14.9987 11.3381 15.1607 11.3133 15.3133 11.2672C15.2921 11.2688 15.2706 11.2697 15.249 11.2697H13.8609C13.4007 11.2697 13.0276 10.8966 13.0276 10.4363C13.0276 9.9761 13.4007 9.603 13.8609 9.603H15.249C15.7092 9.603 16.0823 9.9761 16.0823 10.4363C16.0823 10.6246 16.0199 10.7983 15.9146 10.9378C16.2715 10.6322 16.4977 10.1782 16.4977 9.6714V4.95504C16.4977 4.44824 16.2715 3.99428 15.9146 3.6886C16.0199 3.82813 16.0823 4.00182 16.0823 4.1901C16.0823 4.65034 15.7092 5.02344 15.249 5.02344H13.8609C13.4007 5.02344 13.0276 4.65034 13.0276 4.1901C13.0276 3.72987 13.4007 3.35677 13.8609 3.35677H15.249C15.2706 3.35677 15.2921 3.3576 15.3133 3.35922C15.1607 3.31314 14.9987 3.28837 14.831 3.28837H5.95052C5.78282 3.28837 5.6209 3.31314 5.46823 3.35922C5.48947 3.3576 5.51094 3.35677 5.5326 3.35677H6.92065C7.38089 3.35677 7.75398 3.72987 7.75398 4.1901C7.75398 4.65034 7.38089 5.02344 6.92065 5.02344H5.5326C5.07236 5.02344 4.69927 4.65034 4.69927 4.1901C4.69927 4.00182 4.7617 3.82813 4.867 3.6886ZM14.5073 15.5524C14.1561 15.5664 13.7955 15.5245 13.4367 15.4195L9.45043 14.2533L12.0618 16.1277C12.887 16.7201 14.0392 16.4409 14.5073 15.5524Z" fill="#141714"/>
</svg>
