<svg width="20" height="20" viewBox="0 0 20 20" fill="none"
    xmlns="http://www.w3.org/2000/svg">
    <path d="M6.66667 5C6.20643 5 5.83333 5.3731 5.83333 5.83334C5.83333 6.29357 6.20643 6.66667 6.66667 6.66667H13.3333C13.7936 6.66667 14.1667 6.29357 14.1667 5.83334C14.1667 5.3731 13.7936 5 13.3333 5H6.66667Z" fill="#141714"/>
    <path d="M5.83333 10C5.83333 9.53976 6.20643 9.16667 6.66667 9.16667H13.3333C13.7936 9.16667 14.1667 9.53976 14.1667 10C14.1667 10.4602 13.7936 10.8333 13.3333 10.8333H6.66667C6.20643 10.8333 5.83333 10.4602 5.83333 10Z" fill="#141714"/>
    <path d="M6.66667 13.3333C6.20643 13.3333 5.83333 13.7064 5.83333 14.1667C5.83333 14.6269 6.20643 15 6.66667 15H8.88889C9.34913 15 9.72222 14.6269 9.72222 14.1667C9.72222 13.7064 9.34913 13.3333 8.88889 13.3333H6.66667Z" fill="#141714"/>
    <path d="M11.1111 13.3333C10.6509 13.3333 10.2778 13.7064 10.2778 14.1667C10.2778 14.6269 10.6509 15 11.1111 15H13.3333C13.7936 15 14.1667 14.6269 14.1667 14.1667C14.1667 13.7064 13.7936 13.3333 13.3333 13.3333H11.1111Z" fill="#141714"/>
    <path fill-rule="evenodd" clip-rule="evenodd" d="M12.9015 18.251C12.9952 18.2745 13.0861 18.3081 13.1724 18.3512C15.1607 19.3454 17.5 17.8996 17.5 15.6767V4.16667C17.5 2.32572 16.0076 0.833336 14.1667 0.833336H5.83333C3.99238 0.833336 2.5 2.32572 2.5 4.16667V15.6767C2.5 17.8996 4.83933 19.3454 6.82757 18.3512C6.91395 18.3081 7.00479 18.2745 7.09848 18.251L9.59577 17.6267C9.86117 17.5604 10.1388 17.5604 10.4042 17.6267L12.9015 18.251ZM4.16667 4.16667C4.16667 3.24619 4.91286 2.5 5.83333 2.5H14.1667C15.0871 2.5 15.8333 3.24619 15.8333 4.16667V15.6767C15.8333 16.6606 14.7979 17.3006 13.9178 16.8605C13.7226 16.763 13.5174 16.687 13.3057 16.6341L10.8085 16.0098C10.2777 15.8771 9.72235 15.8771 9.19155 16.0098L6.69426 16.6341C6.48259 16.687 6.27736 16.763 6.08221 16.8605C5.20214 17.3006 4.16667 16.6606 4.16667 15.6767V4.16667Z" fill="#141714"/>
</svg>
