<svg width="56" height="56" viewBox="0 0 56 56" fill="none" xmlns="http://www.w3.org/2000/svg">
<rect x="4" y="4" width="48" height="48" rx="24" fill="#FAE1E3"/>
<rect x="4" y="4" width="48" height="48" rx="24" stroke="#FFF4F5" stroke-width="8"/>
<path d="M23.9996 22.5C23.9996 21.9477 23.5519 21.5 22.9996 21.5C22.4473 21.5 21.9996 21.9477 21.9996 22.5V24.5C21.9996 25.0523 22.4473 25.5 22.9996 25.5C23.5519 25.5 23.9996 25.0523 23.9996 24.5V22.5Z" fill="#CC0613"/>
<path d="M22.9996 26C23.5519 26 23.9996 26.4477 23.9996 27V29C23.9996 29.5523 23.5519 30 22.9996 30C22.4473 30 21.9996 29.5523 21.9996 29V27C21.9996 26.4477 22.4473 26 22.9996 26Z" fill="#CC0613"/>
<path d="M23.9996 31.5C23.9996 30.9477 23.5519 30.5 22.9996 30.5C22.4473 30.5 21.9996 30.9477 21.9996 31.5V33.5C21.9996 34.0523 22.4473 34.5 22.9996 34.5C23.5519 34.5 23.9996 34.0523 23.9996 33.5V31.5Z" fill="#CC0613"/>
<path fill-rule="evenodd" clip-rule="evenodd" d="M38.4996 33L38.4996 32.7082C38.4996 32.0872 38.355 31.4748 38.0773 30.9194L37.1726 29.11C36.8517 28.468 36.8993 27.7033 37.2974 27.1061L37.8278 26.3105C38.2659 25.6534 38.4996 24.8814 38.4996 24.0917V23C38.4996 20.7909 36.7087 19 34.4996 19H20.8737C18.4806 19 16.629 21.0974 16.9258 23.472C16.9976 24.0457 17.1934 24.5969 17.4999 25.0872L18.6579 26.94C19.0632 27.5885 19.0632 28.4115 18.6579 29.06L17.6076 30.7404C17.2103 31.3761 16.9996 32.1107 16.9996 32.8604L16.9996 33C16.9996 35.2091 18.7905 37 20.9996 37H34.4996C36.7088 37 38.4996 35.2091 38.4996 33ZM36.4996 32.7082L36.4996 33C36.4996 34.1046 35.6042 35 34.4996 35L20.9996 35C19.895 35 18.9996 34.1046 18.9996 33V32.8604C18.9996 32.4855 19.105 32.1183 19.3036 31.8004L20.3539 30.12C21.1645 28.8229 21.1645 27.1771 20.3539 25.88L19.1959 24.0272C19.0435 23.7834 18.9461 23.5093 18.9104 23.224C18.7628 22.0431 19.6836 21 20.8737 21L34.4996 21C35.6042 21 36.4996 21.8954 36.4996 23V24.0917C36.4996 24.4865 36.3827 24.8725 36.1637 25.2011L35.6333 25.9967C34.837 27.1911 34.7418 28.7205 35.3838 30.0044L36.2885 31.8138C36.4273 32.0915 36.4996 32.3977 36.4996 32.7082Z" fill="#CC0613"/>
</svg>
