<svg width="20" height="20" viewBox="0 0 20 20" fill="none" xmlns="http://www.w3.org/2000/svg">
<path fill-rule="evenodd" clip-rule="evenodd" d="M10.8333 1.66659C10.8333 1.20635 10.4602 0.833252 10 0.833252C9.53976 0.833252 9.16667 1.20635 9.16667 1.66659V2.49992C6.86548 2.49992 5 4.3654 5 6.66658C5 8.96777 6.86548 10.8333 9.16667 10.8333V15.8333C7.78595 15.8333 6.66667 14.714 6.66667 13.3333C6.66667 12.873 6.29357 12.4999 5.83333 12.4999C5.3731 12.4999 5 12.873 5 13.3333C5 15.6344 6.86548 17.4999 9.16667 17.4999V18.3333C9.16667 18.7935 9.53976 19.1666 10 19.1666C10.4602 19.1666 10.8333 18.7935 10.8333 18.3333V17.4999C13.1345 17.4999 15 15.6344 15 13.3333C15 11.0321 13.1345 9.16658 10.8333 9.16658V4.16658C12.214 4.16658 13.3333 5.28587 13.3333 6.66658C13.3333 7.12682 13.7064 7.49992 14.1667 7.49992C14.6269 7.49992 15 7.12682 15 6.66658C15 4.3654 13.1345 2.49992 10.8333 2.49992V1.66659ZM9.16667 4.16658C7.78595 4.16658 6.66667 5.28587 6.66667 6.66658C6.66667 8.0473 7.78595 9.16658 9.16667 9.16658V4.16658ZM10.8333 10.8333V15.8333C12.214 15.8333 13.3333 14.714 13.3333 13.3333C13.3333 11.9525 12.214 10.8333 10.8333 10.8333Z" fill="#5E665E"/>
</svg>
