<svg width="56" height="56" viewBox="0 0 56 56" fill="none"
    xmlns="http://www.w3.org/2000/svg">
    <rect x="4" y="4" width="48" height="48" rx="24" fill="#E7ECE7"/>
    <rect x="4" y="4" width="48" height="48" rx="24" stroke="#F9FAFB" stroke-width="8"/>
    <path fill-rule="evenodd" clip-rule="evenodd" d="M29 18C29 17.4477 28.5523 17 28 17C27.4477 17 27 17.4477 27 18V19C24.2386 19 22 21.2386 22 24C22 26.7614 24.2386 29 27 29V35C25.3431 35 24 33.6569 24 32C24 31.4477 23.5523 31 23 31C22.4477 31 22 31.4477 22 32C22 34.7614 24.2386 37 27 37V38C27 38.5523 27.4477 39 28 39C28.5523 39 29 38.5523 29 38V37C31.7614 37 34 34.7614 34 32C34 29.2386 31.7614 27 29 27V21C30.6569 21 32 22.3431 32 24C32 24.5523 32.4477 25 33 25C33.5523 25 34 24.5523 34 24C34 21.2386 31.7614 19 29 19V18ZM27 21C25.3431 21 24 22.3431 24 24C24 25.6569 25.3431 27 27 27V21ZM29 29V35C30.6569 35 32 33.6569 32 32C32 30.3431 30.6569 29 29 29Z" fill="#141714"/>
</svg>
