<svg width="56" height="57" viewBox="0 0 56 57" fill="none"
    xmlns="http://www.w3.org/2000/svg">
    <rect x="4" y="4.5" width="48" height="48" rx="24" fill="#E1EDFA"/>
    <rect x="4" y="4.5" width="48" height="48" rx="24" stroke="#F4F9FF" stroke-width="8"/>
    <path d="M23.9996 23C23.9996 22.4477 23.5519 22 22.9996 22C22.4473 22 21.9996 22.4477 21.9996 23V25C21.9996 25.5523 22.4473 26 22.9996 26C23.5519 26 23.9996 25.5523 23.9996 25V23Z" fill="#0662CC"/>
    <path d="M22.9996 26.5C23.5519 26.5 23.9996 26.9477 23.9996 27.5V29.5C23.9996 30.0523 23.5519 30.5 22.9996 30.5C22.4473 30.5 21.9996 30.0523 21.9996 29.5V27.5C21.9996 26.9477 22.4473 26.5 22.9996 26.5Z" fill="#0662CC"/>
    <path d="M23.9996 32C23.9996 31.4477 23.5519 31 22.9996 31C22.4473 31 21.9996 31.4477 21.9996 32V34C21.9996 34.5523 22.4473 35 22.9996 35C23.5519 35 23.9996 34.5523 23.9996 34V32Z" fill="#0662CC"/>
    <path fill-rule="evenodd" clip-rule="evenodd" d="M38.4996 33.5L38.4996 33.2082C38.4996 32.5872 38.355 31.9748 38.0773 31.4194L37.1726 29.61C36.8517 28.968 36.8993 28.2033 37.2974 27.6061L37.8278 26.8105C38.2659 26.1534 38.4996 25.3814 38.4996 24.5917V23.5C38.4996 21.2909 36.7087 19.5 34.4996 19.5H20.8737C18.4806 19.5 16.629 21.5974 16.9258 23.972C16.9976 24.5457 17.1934 25.0969 17.4999 25.5872L18.6579 27.44C19.0632 28.0885 19.0632 28.9115 18.6579 29.56L17.6076 31.2404C17.2103 31.8761 16.9996 32.6107 16.9996 33.3604L16.9996 33.5C16.9996 35.7091 18.7905 37.5 20.9996 37.5H34.4996C36.7088 37.5 38.4996 35.7091 38.4996 33.5ZM36.4996 33.2082L36.4996 33.5C36.4996 34.6046 35.6042 35.5 34.4996 35.5L20.9996 35.5C19.895 35.5 18.9996 34.6046 18.9996 33.5V33.3604C18.9996 32.9855 19.105 32.6183 19.3036 32.3004L20.3539 30.62C21.1645 29.3229 21.1645 27.6771 20.3539 26.38L19.1959 24.5272C19.0435 24.2834 18.9461 24.0093 18.9104 23.724C18.7628 22.5431 19.6836 21.5 20.8737 21.5L34.4996 21.5C35.6042 21.5 36.4996 22.3954 36.4996 23.5V24.5917C36.4996 24.9865 36.3827 25.3725 36.1637 25.7011L35.6333 26.4967C34.837 27.6911 34.7418 29.2205 35.3838 30.5044L36.2885 32.3138C36.4273 32.5915 36.4996 32.8977 36.4996 33.2082Z" fill="#0662CC"/>
</svg>
