<svg width="56" height="56" viewBox="0 0 56 56" fill="none"
    xmlns="http://www.w3.org/2000/svg">
    <rect x="4" y="4" width="48" height="48" rx="24" fill="#FAF4E1"/>
    <rect x="4" y="4" width="48" height="48" rx="24" stroke="#FFFCF4" stroke-width="8"/>
    <path fill-rule="evenodd" clip-rule="evenodd" d="M26.5004 20.877C27.1273 19.7077 28.8722 19.7077 29.4991 20.877L35.8102 32.6501C36.3643 33.6837 35.6176 35 34.3109 35H21.6886C20.3819 35 19.6352 33.6837 20.1893 32.6501L26.5004 20.877ZM30.3804 20.4046L31.2618 19.9321C29.8808 17.356 26.1187 17.356 24.7377 19.9321L18.4266 31.7052C17.1152 34.1516 18.9625 37 21.6886 37H34.3109C37.037 37 38.8843 34.1516 37.5729 31.7052L31.2618 19.9321L30.3804 20.4046ZM27.9998 22C28.552 22 28.9998 22.4477 28.9998 23V30C28.9998 30.5523 28.552 31 27.9998 31C27.4475 31 26.9998 30.5523 26.9998 30V23C26.9998 22.4477 27.4475 22 27.9998 22ZM27.9997 34C27.3094 34 26.7497 33.4404 26.7497 32.75C26.7497 32.0596 27.3094 31.5 27.9997 31.5C28.6901 31.5 29.2497 32.0596 29.2497 32.75C29.2497 33.4404 28.6901 34 27.9997 34Z" fill="#CC7F13"/>
</svg>
