<svg width="56" height="56" viewBox="0 0 56 56" fill="none"
    xmlns="http://www.w3.org/2000/svg">
    <rect x="4" y="4" width="48" height="48" rx="24" fill="#E7ECE7"/>
    <rect x="4" y="4" width="48" height="48" rx="24" stroke="#F9FAFB" stroke-width="8"/>
    <path fill-rule="evenodd" clip-rule="evenodd" d="M39 19.4295C39 18.0406 37.6191 17.0746 36.3144 17.5507L29.0165 20.2138L21.6882 20.7868C19.6063 20.9496 18 22.6864 18 24.7746V26.2255C18 28.3137 19.6063 30.0505 21.6882 30.2133L22.1008 30.2456L22.8045 36.3589C22.9777 37.8641 24.252 39.0001 25.7671 39.0001C27.5542 39.0001 28.9401 37.4389 28.7282 35.6643L28.1375 30.7176L29.0165 30.7864L36.3144 33.4495C37.6191 33.9256 39 32.9595 39 31.5707V19.4295ZM21.8441 22.7807L28.2308 22.2813V28.7188L21.8441 28.2194C20.8032 28.138 20 27.2696 20 26.2255V24.7746C20 23.7305 20.8032 22.8621 21.8441 22.7807ZM37 31.5707L30.2308 29.1005V21.8997L37 19.4295L37 31.5707ZM24.7914 36.1302L24.1323 30.4044L26.1043 30.5586L26.7423 35.9015C26.8121 36.4859 26.3557 37.0001 25.7671 37.0001C25.2681 37.0001 24.8484 36.6259 24.7914 36.1302Z" fill="#141714"/>
</svg>
