<svg width="20" height="20" viewBox="0 0 20 20" fill="none"
    xmlns="http://www.w3.org/2000/svg">
    <path d="M4.99967 7.91667C4.99967 5.38537 7.0517 3.33334 9.58301 3.33334C11.8253 3.33334 13.693 4.94432 14.0889 7.07224C14.1444 7.37063 14.3577 7.61525 14.6458 7.7108C16.3048 8.26101 17.4997 9.82538 17.4997 11.6667C17.4997 13.9679 15.6342 15.8333 13.333 15.8333C12.8728 15.8333 12.4997 16.2064 12.4997 16.6667C12.4997 17.1269 12.8728 17.5 13.333 17.5C16.5547 17.5 19.1663 14.8883 19.1663 11.6667C19.1663 9.25629 17.7049 7.18915 15.6216 6.29965C14.9087 3.63167 12.4761 1.66667 9.58301 1.66667C6.13123 1.66667 3.33301 4.46489 3.33301 7.91667C3.33301 8.00024 3.33465 8.08346 3.33791 8.1663C1.84174 9.0295 0.833008 10.6462 0.833008 12.5C0.833008 15.2614 3.07158 17.5 5.83301 17.5C6.29324 17.5 6.66634 17.1269 6.66634 16.6667C6.66634 16.2064 6.29324 15.8333 5.83301 15.8333C3.99206 15.8333 2.49967 14.341 2.49967 12.5C2.49967 11.1189 3.33982 9.93207 4.54022 9.42641C4.88758 9.28008 5.09348 8.91881 5.04234 8.54537C5.01424 8.34022 4.99967 8.13037 4.99967 7.91667Z" fill="#141714"/>
    <path d="M9.44604 11.8772C9.76178 11.5965 10.2376 11.5965 10.5533 11.8772L11.8033 12.9883C12.1473 13.294 12.1783 13.8208 11.8725 14.1648C11.605 14.4657 11.1684 14.5271 10.833 14.333V18.3333C10.833 18.7936 10.4599 19.1667 9.99967 19.1667C9.53944 19.1667 9.16634 18.7936 9.16634 18.3333V14.333C8.83092 14.5271 8.39432 14.4657 8.12683 14.1648C7.82107 13.8208 7.85205 13.294 8.19604 12.9883L9.44604 11.8772Z" fill="#141714"/>
</svg>
