<svg width="20" height="20" viewBox="0 0 20 20" fill="none" xmlns="http://www.w3.org/2000/svg">
<path d="M3.57903 11.6523C3.81708 12.0462 3.69073 12.5585 3.29684 12.7965C2.90294 13.0346 2.39065 12.9082 2.15261 12.5143C1.8142 11.9544 1.58459 11.4718 1.44958 11.1603C1.25626 10.7143 1.28431 10.2121 1.51982 9.7915C1.87921 9.14973 2.7871 7.66611 4.18629 6.33307C5.58226 5.00308 7.54653 3.75 9.99994 3.75C12.4534 3.75 14.4176 5.00308 15.8136 6.33307C17.2128 7.66611 18.1207 9.14973 18.4801 9.7915C18.7156 10.2121 18.7436 10.7143 18.5503 11.1603C18.4153 11.4718 18.1857 11.9544 17.8473 12.5143C17.6092 12.9082 17.0969 13.0346 16.7031 12.7965C16.3092 12.5585 16.1828 12.0462 16.4209 11.6523C16.693 11.2019 16.8819 10.8124 16.9965 10.5537C16.6584 9.95778 15.8576 8.67693 14.664 7.53975C13.4311 6.36513 11.8582 5.41667 9.99994 5.41667C8.14165 5.41667 6.56883 6.36513 5.33593 7.53975C4.14233 8.67693 3.34153 9.95778 3.0034 10.5537C3.11797 10.8124 3.30684 11.2019 3.57903 11.6523Z" fill="#3E453E"/>
<path fill-rule="evenodd" clip-rule="evenodd" d="M9.99994 6.66667C7.69876 6.66667 5.83328 8.53215 5.83328 10.8333C5.83328 13.1345 7.69876 15 9.99994 15C12.3011 15 14.1666 13.1345 14.1666 10.8333C14.1666 8.53215 12.3011 6.66667 9.99994 6.66667ZM7.49994 10.8333C7.49994 9.45262 8.61923 8.33333 9.99994 8.33333C11.3807 8.33333 12.4999 9.45262 12.4999 10.8333C12.4999 12.214 11.3807 13.3333 9.99994 13.3333C8.61923 13.3333 7.49994 12.214 7.49994 10.8333Z" fill="#3E453E"/>
</svg>
