<svg width="19" height="16" viewBox="0 0 19 16" fill="none" xmlns="http://www.w3.org/2000/svg">
<path d="M16.7557 0.744078C17.0812 1.06951 17.0812 1.59715 16.7557 1.92259L3.42238 15.2559C3.09694 15.5814 2.56931 15.5814 2.24387 15.2559C1.91843 14.9305 1.91843 14.4028 2.24387 14.0774L15.5772 0.744078C15.9026 0.418641 16.4303 0.418641 16.7557 0.744078Z" fill="#667185"/>
<path d="M12.6661 2.4767C11.7275 2.03469 10.6692 1.75 9.49978 1.75C7.04636 1.75 5.0821 3.00308 3.68612 4.33307C2.28693 5.66611 1.37904 7.14973 1.01966 7.7915C0.784139 8.21207 0.756089 8.71426 0.949412 9.16031C1.08442 9.47181 1.31403 9.95437 1.65244 10.5143C1.89049 10.9082 2.40277 11.0346 2.79667 10.7965C3.19056 10.5585 3.31691 10.0462 3.07886 9.65232C2.80667 9.20192 2.6178 8.81241 2.50324 8.55369C2.84136 7.95778 3.64216 6.67693 4.83576 5.53975C6.06866 4.36513 7.64148 3.41667 9.49978 3.41667C10.1682 3.41667 10.7996 3.53937 11.3916 3.75116L12.6661 2.4767Z" fill="#667185"/>
<path d="M14.2419 5.61491C15.3924 6.73288 16.1656 7.97087 16.4963 8.55369C16.3818 8.81241 16.1929 9.20192 15.9207 9.65232C15.6826 10.0462 15.809 10.5585 16.2029 10.7965C16.5968 11.0346 17.1091 10.9082 17.3471 10.5143C17.6855 9.95437 17.9151 9.47181 18.0501 9.1603C18.2435 8.71426 18.2154 8.21207 17.9799 7.7915C17.6298 7.16625 16.759 5.74193 15.4205 4.43629L14.2419 5.61491Z" fill="#667185"/>
<path d="M9.49979 4.66667C9.80264 4.66667 10.0979 4.69898 10.3824 4.76034L8.66758 6.47519C7.95633 6.7262 7.39266 7.28987 7.14165 8.00112L5.42679 9.71597C5.36543 9.43148 5.33312 9.13618 5.33312 8.83333C5.33312 6.53215 7.19861 4.66667 9.49979 4.66667Z" fill="#667185"/>
<path d="M9.49979 11.3333C9.2074 11.3333 8.92672 11.2831 8.66592 11.1909L7.41505 12.4418C8.02823 12.7968 8.74028 13 9.49979 13C11.801 13 13.6665 11.1345 13.6665 8.83333C13.6665 8.07382 13.4632 7.36177 13.1082 6.74859L11.8573 7.99947C11.9496 8.26027 11.9998 8.54094 11.9998 8.83333C11.9998 10.214 10.8805 11.3333 9.49979 11.3333Z" fill="#667185"/>
</svg>
