<svg width="24" height="25" viewBox="0 0 24 25" fill="none"
    xmlns="http://www.w3.org/2000/svg">
    <path d="M0 12.2891C0 18.9165 5.37258 24.2891 12 24.2891C18.6274 24.2891 24 18.9165 24 12.2891C24 5.66165 18.6274 0.289062 12 0.289062C5.37258 0.289062 0 5.66165 0 12.2891Z" fill="#141714"/>
    <path d="M18 12.2891C18 8.98906 15.3 6.28906 12 6.28906C8.7 6.28906 6 8.98906 6 12.2891C6 15.2891 8.175 17.7641 11.025 18.2141V14.0141H9.525V12.2891H11.025V10.9391C11.025 9.43906 11.925 8.61406 13.275 8.61406C13.95 8.61406 14.625 8.76406 14.625 8.76406V10.2641H13.875C13.125 10.2641 12.9 10.7141 12.9 11.1641V12.2891H14.55L14.25 14.0141H12.825V18.2891C15.825 17.8391 18 15.2891 18 12.2891Z" fill="white"/>
</svg>
