<svg width="56" height="57" viewBox="0 0 56 57" fill="none" xmlns="http://www.w3.org/2000/svg">
<rect x="4" y="4.5" width="48" height="48" rx="24" fill="#FAE1E3"/>
<rect x="4" y="4.5" width="48" height="48" rx="24" stroke="#FFF4F5" stroke-width="8"/>
<path fill-rule="evenodd" clip-rule="evenodd" d="M28.6325 18.6568C28.2219 18.52 27.7781 18.52 27.3675 18.6568L19.3675 21.3235C18.5509 21.5957 18 22.36 18 23.2209V25.5001C18 26.6047 18.8954 27.5001 20 27.5001H21V32.5001H20C18.8954 32.5001 18 33.3955 18 34.5001V36.5001C18 37.6047 18.8954 38.5001 20 38.5001H36C37.1046 38.5001 38 37.6047 38 36.5001V34.5001C38 33.3955 37.1046 32.5001 36 32.5001H35V27.5001H36C37.1046 27.5001 38 26.6047 38 25.5001V23.2209C38 22.36 37.4491 21.5957 36.6325 21.3235L28.6325 18.6568ZM33 32.5001V27.5001H31V32.5001H33ZM29 32.5001V27.5001H27V32.5001H29ZM25 32.5001V27.5001H23V32.5001H25ZM20 34.5001V36.5001H36V34.5001H20ZM20 25.5001L20 23.2209L28 20.5542L36 23.2209V25.5001H20Z" fill="#CC0613"/>
</svg>
