<svg width="20" height="21" viewBox="0 0 20 21" fill="none" xmlns="http://www.w3.org/2000/svg">
<path fill-rule="evenodd" clip-rule="evenodd" d="M9.99992 7.16665C8.15897 7.16665 6.66658 8.65903 6.66658 10.5C6.66658 12.3409 8.15897 13.8333 9.99992 13.8333C11.8409 13.8333 13.3333 12.3409 13.3333 10.5C13.3333 8.65903 11.8409 7.16665 9.99992 7.16665ZM8.33325 10.5C8.33325 9.5795 9.07944 8.83331 9.99992 8.83331C10.9204 8.83331 11.6666 9.5795 11.6666 10.5C11.6666 11.4205 10.9204 12.1666 9.99992 12.1666C9.07944 12.1666 8.33325 11.4205 8.33325 10.5Z" fill="#5E665E"/>
<path fill-rule="evenodd" clip-rule="evenodd" d="M9.99992 1.33331C10.4602 1.33331 10.8333 1.70641 10.8333 2.16665V3.04575C14.3096 3.43004 17.0699 6.1903 17.4541 9.66665H18.3333C18.7935 9.66665 19.1666 10.0397 19.1666 10.5C19.1666 10.9602 18.7935 11.3333 18.3333 11.3333H17.4541C17.0699 14.8097 14.3096 17.5699 10.8333 17.9542V18.8333C10.8333 19.2935 10.4602 19.6666 9.99992 19.6666C9.53968 19.6666 9.16658 19.2935 9.16658 18.8333V17.9542C5.69024 17.5699 2.92998 14.8097 2.54569 11.3333H1.66659C1.20635 11.3333 0.833252 10.9602 0.833252 10.5C0.833252 10.0397 1.20635 9.66665 1.66659 9.66665H2.54569C2.92998 6.1903 5.69024 3.43004 9.16658 3.04575V2.16665C9.16658 1.70641 9.53968 1.33331 9.99992 1.33331ZM15.8333 10.5C15.8333 7.27832 13.2216 4.66665 9.99992 4.66665C6.77826 4.66665 4.16658 7.27832 4.16658 10.5C4.16658 13.7216 6.77826 16.3333 9.99992 16.3333C13.2216 16.3333 15.8333 13.7216 15.8333 10.5Z" fill="#5E665E"/>
</svg>
