<svg width="49" height="155" viewBox="0 0 49 155" fill="none" xmlns="http://www.w3.org/2000/svg">
<g clip-path="url(#clip0_300_30468)">
<g filter="white">
<path fill-rule="evenodd" clip-rule="evenodd" d="M40.832 9.95211L40.832 37.7717C40.832 41.1545 38.0898 43.8967 34.707 43.8967L32.4782 43.8967C31.269 43.8967 30.0868 43.5388 29.0807 42.868L27.4562 41.7851C25.6274 40.5658 23.2854 40.42 21.3195 41.403L17.6253 43.2501C16.7748 43.6753 15.837 43.8967 14.8861 43.8967L14.2904 43.8967C10.9076 43.8967 8.16537 41.1545 8.16537 37.7717L8.16537 10.2092C8.16537 6.8265 10.9076 4.08424 14.2904 4.08424L14.5754 4.08424C15.7234 4.08424 16.8482 4.40684 17.8217 5.01525L21.2525 7.15951C23.2386 8.40085 25.7588 8.40085 27.7449 7.15951L31.5278 4.79525C32.2772 4.32688 33.1196 4.02746 33.9965 3.91785C37.6261 3.46415 40.832 6.29427 40.832 9.95211ZM35.7279 16.3342C36.8554 16.3342 37.7695 15.4202 37.7695 14.2926C37.7695 13.165 36.8554 12.2509 35.7279 12.2509L31.6445 12.2509C30.5169 12.2509 29.6029 13.165 29.6029 14.2926C29.6029 15.4202 30.5169 16.3342 31.6445 16.3342L35.7279 16.3342ZM28.582 14.2926C28.582 15.4202 27.6679 16.3342 26.5404 16.3342L22.457 16.3342C21.3294 16.3342 20.4154 15.4202 20.4154 14.2926C20.4154 13.165 21.3294 12.2509 22.457 12.2509L26.5404 12.2509C27.6679 12.2509 28.582 13.165 28.582 14.2926ZM17.3529 16.3342C18.4804 16.3342 19.3945 15.4202 19.3945 14.2926C19.3945 13.165 18.4804 12.2509 17.3529 12.2509L13.2695 12.2509C12.1419 12.2509 11.2279 13.165 11.2279 14.2926C11.2279 15.4202 12.1419 16.3342 13.2695 16.3342L17.3529 16.3342Z" fill="url(#paint0_linear_300_30468)"/>
<path fill-rule="evenodd" clip-rule="evenodd" d="M40.832 9.95211L40.832 37.7717C40.832 41.1545 38.0898 43.8967 34.707 43.8967L32.4782 43.8967C31.269 43.8967 30.0868 43.5388 29.0807 42.868L27.4562 41.7851C25.6274 40.5658 23.2854 40.42 21.3195 41.403L17.6253 43.2501C16.7748 43.6753 15.837 43.8967 14.8861 43.8967L14.2904 43.8967C10.9076 43.8967 8.16537 41.1545 8.16537 37.7717L8.16537 10.2092C8.16537 6.8265 10.9076 4.08424 14.2904 4.08424L14.5754 4.08424C15.7234 4.08424 16.8482 4.40684 17.8217 5.01525L21.2525 7.15951C23.2386 8.40085 25.7588 8.40085 27.7449 7.15951L31.5278 4.79525C32.2772 4.32688 33.1196 4.02746 33.9965 3.91785C37.6261 3.46415 40.832 6.29427 40.832 9.95211ZM35.7279 16.3342C36.8554 16.3342 37.7695 15.4202 37.7695 14.2926C37.7695 13.165 36.8554 12.2509 35.7279 12.2509L31.6445 12.2509C30.5169 12.2509 29.6029 13.165 29.6029 14.2926C29.6029 15.4202 30.5169 16.3342 31.6445 16.3342L35.7279 16.3342ZM28.582 14.2926C28.582 15.4202 27.6679 16.3342 26.5404 16.3342L22.457 16.3342C21.3294 16.3342 20.4154 15.4202 20.4154 14.2926C20.4154 13.165 21.3294 12.2509 22.457 12.2509L26.5404 12.2509C27.6679 12.2509 28.582 13.165 28.582 14.2926ZM17.3529 16.3342C18.4804 16.3342 19.3945 15.4202 19.3945 14.2926C19.3945 13.165 18.4804 12.2509 17.3529 12.2509L13.2695 12.2509C12.1419 12.2509 11.2279 13.165 11.2279 14.2926C11.2279 15.4202 12.1419 16.3342 13.2695 16.3342L17.3529 16.3342Z" stroke="url(#paint1_linear_300_30468)" stroke-linecap="round" stroke-linejoin="round"/>
</g>
</g>
<path d="M22.3333 56C22.3333 57.4728 23.5272 58.6667 25 58.6667C26.4728 58.6667 27.6667 57.4728 27.6667 56C27.6667 54.5272 26.4728 53.3333 25 53.3333C23.5272 53.3333 22.3333 54.5272 22.3333 56ZM24.5 154.5C24.5 154.776 24.7239 155 25 155C25.2761 155 25.5 154.776 25.5 154.5H24.5ZM24.5 56V154.5H25.5V56H24.5Z" fill="url(#paint2_linear_300_30468)"/>
<defs>
<filter id="filter0_di_300_30468" x="-4.33594" y="-8.63008" width="57.668" height="65.0268" filterUnits="userSpaceOnUse" color-interpolation-filters="sRGB">
<feFlood flood-opacity="0" result="BackgroundImageFix"/>
<feColorMatrix in="SourceAlpha" type="matrix" values="0 0 0 0 0 0 0 0 0 0 0 0 0 0 0 0 0 0 127 0" result="hardAlpha"/>
<feMorphology radius="12" operator="dilate" in="SourceAlpha" result="effect1_dropShadow_300_30468"/>
<feOffset/>
<feColorMatrix type="matrix" values="0 0 0 0 0.4 0 0 0 0 0.8 0 0 0 0 0.4 0 0 0 1 0"/>
<feBlend mode="normal" in2="BackgroundImageFix" result="effect1_dropShadow_300_30468"/>
<feBlend mode="normal" in="SourceGraphic" in2="effect1_dropShadow_300_30468" result="shape"/>
<feColorMatrix in="SourceAlpha" type="matrix" values="0 0 0 0 0 0 0 0 0 0 0 0 0 0 0 0 0 0 127 0" result="hardAlpha"/>
<feOffset dy="10"/>
<feGaussianBlur stdDeviation="3.65"/>
<feComposite in2="hardAlpha" operator="arithmetic" k2="-1" k3="1"/>
<feColorMatrix type="matrix" values="0 0 0 0 1 0 0 0 0 1 0 0 0 0 1 0 0 0 0.25 0"/>
<feBlend mode="normal" in2="shape" result="effect2_innerShadow_300_30468"/>
</filter>
<linearGradient id="paint0_linear_300_30468" x1="40.832" y1="23.8834" x2="8.16537" y2="23.8834" gradientUnits="userSpaceOnUse">
<stop stop-color="#9FFF9F"/>
<stop offset="1" stop-color="#66CC66"/>
</linearGradient>
<linearGradient id="paint1_linear_300_30468" x1="18.1468" y1="0.605012" x2="18.4493" y2="45.6729" gradientUnits="userSpaceOnUse">
<stop stop-color="white" stop-opacity="0.66"/>
<stop offset="1" stop-color="white" stop-opacity="0"/>
</linearGradient>
<linearGradient id="paint2_linear_300_30468" x1="25.5" y1="56" x2="25.5" y2="144" gradientUnits="userSpaceOnUse">
<stop stop-color="#66CC66"/>
<stop offset="1" stop-color="#66CC66" stop-opacity="0"/>
</linearGradient>
<clipPath id="clip0_300_30468">
<rect width="49" height="49" fill="white" transform="translate(49) rotate(90)"/>
</clipPath>
</defs>
</svg>
