<svg width="24" height="24" viewBox="0 0 24 24" fill="none" xmlns="http://www.w3.org/2000/svg">
<rect x="0.5" y="0.5" width="23" height="23" rx="7.5" fill="white"/>
<rect x="0.5" y="0.5" width="23" height="23" rx="7.5" stroke="#E7ECE7"/>
<path fill-rule="evenodd" clip-rule="evenodd" d="M16.5 12C16.5 14.4853 14.4853 16.5 12 16.5C9.51472 16.5 7.5 14.4853 7.5 12C7.5 9.51472 9.51472 7.5 12 7.5C14.4853 7.5 16.5 9.51472 16.5 12ZM12 9C12.2761 9 12.5 9.22386 12.5 9.5V13C12.5 13.2761 12.2761 13.5 12 13.5C11.7239 13.5 11.5 13.2761 11.5 13L11.5 9.5C11.5 9.22386 11.7239 9 12 9ZM11.375 14.375C11.375 14.7202 11.6548 15 12 15C12.3452 15 12.625 14.7202 12.625 14.375C12.625 14.0298 12.3452 13.75 12 13.75C11.6548 13.75 11.375 14.0298 11.375 14.375Z" fill="#5E665E"/>
</svg>
