<svg width="24" height="25" viewBox="0 0 24 25" fill="none"
    xmlns="http://www.w3.org/2000/svg">
    <path d="M0 12.2891C0 18.9165 5.37258 24.2891 12 24.2891C18.6274 24.2891 24 18.9165 24 12.2891C24 5.66165 18.6274 0.289062 12 0.289062C5.37258 0.289062 0 5.66165 0 12.2891Z" fill="#141714"/>
    <path d="M12 7.18896C13.65 7.18896 13.875 7.18896 14.55 7.18896C15.15 7.18896 15.45 7.33896 15.675 7.41396C15.975 7.56397 16.2 7.63897 16.425 7.86397C16.65 8.08897 16.8 8.31397 16.875 8.61397C16.95 8.83897 17.025 9.13897 17.1 9.73897C17.1 10.414 17.1 10.564 17.1 12.289C17.1 14.014 17.1 14.164 17.1 14.839C17.1 15.439 16.95 15.739 16.875 15.964C16.725 16.264 16.65 16.489 16.425 16.714C16.2 16.939 15.975 17.089 15.675 17.164C15.45 17.239 15.15 17.314 14.55 17.389C13.875 17.389 13.725 17.389 12 17.389C10.275 17.389 10.125 17.389 9.45002 17.389C8.85002 17.389 8.55002 17.239 8.32502 17.164C8.02502 17.014 7.80002 16.939 7.57502 16.714C7.35002 16.489 7.20002 16.264 7.12502 15.964C7.05002 15.739 6.97502 15.439 6.90002 14.839C6.90002 14.164 6.90002 14.014 6.90002 12.289C6.90002 10.564 6.90002 10.414 6.90002 9.73897C6.90002 9.13897 7.05002 8.83897 7.12502 8.61397C7.27502 8.31397 7.35002 8.08897 7.57502 7.86397C7.80002 7.63897 8.02502 7.48897 8.32502 7.41396C8.55002 7.33896 8.85002 7.26396 9.45002 7.18896C10.125 7.18896 10.35 7.18896 12 7.18896ZM12 6.06396C10.275 6.06396 10.125 6.06396 9.45002 6.06396C8.77502 6.06396 8.32502 6.21397 7.95002 6.36397C7.57502 6.51397 7.20002 6.73897 6.82502 7.11397C6.45002 7.48897 6.30002 7.78897 6.07502 8.23897C5.92502 8.61397 5.85002 9.06397 5.77502 9.73897C5.77502 10.414 5.77502 10.639 5.77502 12.289C5.77502 14.014 5.77502 14.164 5.77502 14.839C5.77502 15.514 5.92502 15.964 6.07502 16.339C6.22502 16.714 6.45002 17.089 6.82502 17.464C7.20002 17.839 7.50002 17.989 7.95002 18.214C8.32502 18.364 8.77502 18.439 9.45002 18.514C10.125 18.514 10.35 18.514 12 18.514C13.65 18.514 13.875 18.514 14.55 18.514C15.225 18.514 15.675 18.364 16.05 18.214C16.425 18.064 16.8 17.839 17.175 17.464C17.55 17.089 17.7 16.789 17.925 16.339C18.075 15.964 18.15 15.514 18.225 14.839C18.225 14.164 18.225 13.939 18.225 12.289C18.225 10.639 18.225 10.414 18.225 9.73897C18.225 9.06397 18.075 8.61397 17.925 8.23897C17.775 7.86397 17.55 7.48897 17.175 7.11397C16.8 6.73897 16.5 6.58897 16.05 6.36397C15.675 6.21397 15.225 6.13896 14.55 6.06396C13.875 6.06396 13.725 6.06396 12 6.06396Z" fill="white"/>
    <path d="M12 9.06396C10.2 9.06396 8.77502 10.489 8.77502 12.289C8.77502 14.089 10.2 15.514 12 15.514C13.8 15.514 15.225 14.089 15.225 12.289C15.225 10.489 13.8 9.06396 12 9.06396ZM12 14.389C10.875 14.389 9.90002 13.489 9.90002 12.289C9.90002 11.164 10.8 10.189 12 10.189C13.125 10.189 14.1 11.089 14.1 12.289C14.1 13.414 13.125 14.389 12 14.389Z" fill="white"/>
    <path d="M15.3 9.73897C15.7142 9.73897 16.05 9.40318 16.05 8.98897C16.05 8.57475 15.7142 8.23897 15.3 8.23897C14.8858 8.23897 14.55 8.57475 14.55 8.98897C14.55 9.40318 14.8858 9.73897 15.3 9.73897Z" fill="white"/>
</svg>
