<svg width="32" height="33" viewBox="0 0 32 33" fill="none" xmlns="http://www.w3.org/2000/svg">
<path d="M6.66667 16.5001C6.66667 15.7637 7.26362 15.1667 8 15.1667H10.6667C11.403 15.1667 12 15.7637 12 16.5001C12 17.2365 11.403 17.8334 10.6667 17.8334H8C7.26362 17.8334 6.66667 17.2365 6.66667 16.5001Z" fill="#06CC06"/>
<path d="M14.6667 15.1667C13.9303 15.1667 13.3333 15.7637 13.3333 16.5001C13.3333 17.2365 13.9303 17.8334 14.6667 17.8334H17.3333C18.0697 17.8334 18.6667 17.2365 18.6667 16.5001C18.6667 15.7637 18.0697 15.1667 17.3333 15.1667H14.6667Z" fill="#06CC06"/>
<path d="M20 16.5001C20 15.7637 20.597 15.1667 21.3333 15.1667H24C24.7364 15.1667 25.3333 15.7637 25.3333 16.5001C25.3333 17.2365 24.7364 17.8334 24 17.8334H21.3333C20.597 17.8334 20 17.2365 20 16.5001Z" fill="#06CC06"/>
<path d="M24 23.1667C24.7364 23.1667 25.3333 22.5698 25.3333 21.8334C25.3333 21.097 24.7364 20.5001 24 20.5001H22.6667C21.9303 20.5001 21.3333 21.097 21.3333 21.8334C21.3333 22.5698 21.9303 23.1667 22.6667 23.1667H24Z" fill="#06CC06"/>
<path d="M10.6667 21.8334C10.6667 22.5698 10.0697 23.1667 9.33333 23.1667H8C7.26362 23.1667 6.66667 22.5698 6.66667 21.8334C6.66667 21.097 7.26362 20.5001 8 20.5001H9.33333C10.0697 20.5001 10.6667 21.097 10.6667 21.8334Z" fill="#06CC06"/>
<path d="M13.3333 20.5001C12.597 20.5001 12 21.097 12 21.8334C12 22.5698 12.597 23.1667 13.3333 23.1667H19.3333C20.0697 23.1667 20.6667 22.5698 20.6667 21.8334C20.6667 21.097 20.0697 20.5001 19.3333 20.5001H13.3333Z" fill="#06CC06"/>
<path fill-rule="evenodd" clip-rule="evenodd" d="M21.3333 6.50005C21.3332 5.76367 20.7363 5.16673 19.9999 5.16675C19.2635 5.16677 18.6666 5.76374 18.6666 6.50012C18.6666 6.7312 18.5863 7.10749 18.3846 7.38769C18.2318 7.59991 17.9654 7.83341 17.3333 7.83341C16.6269 7.83341 15.954 7.97949 15.4014 8.36364C14.8245 8.76472 14.5194 9.32746 14.3978 9.88027C14.3521 10.0879 14.3313 10.2959 14.3296 10.5001H8C5.05448 10.5001 2.66667 12.8879 2.66667 15.8334V22.5001C2.66667 25.4456 5.05448 27.8334 8 27.8334H24C26.9455 27.8334 29.3333 25.4456 29.3333 22.5001V15.8334C29.3333 12.8879 26.9455 10.5001 24 10.5001H17.3333C18.8346 10.5001 19.9015 9.8447 20.5487 8.9458C21.1469 8.11489 21.3333 7.15785 21.3333 6.50005ZM15.9732 13.1667C15.9917 13.1671 16.0103 13.1671 16.0289 13.1667H24C25.4728 13.1667 26.6667 14.3607 26.6667 15.8334V22.5001C26.6667 23.9728 25.4728 25.1667 24 25.1667H8C6.52724 25.1667 5.33333 23.9728 5.33333 22.5001V15.8334C5.33333 14.3607 6.52724 13.1667 8 13.1667H15.9732Z" fill="#06CC06"/>
</svg>
