<svg width="24" height="25" viewBox="0 0 24 25" fill="none"
    xmlns="http://www.w3.org/2000/svg">
    <path d="M0 12.2891C0 18.9165 5.37258 24.2891 12 24.2891C18.6274 24.2891 24 18.9165 24 12.2891C24 5.66165 18.6274 0.289062 12 0.289062C5.37258 0.289062 0 5.66165 0 12.2891Z" fill="#141714"/>
    <path d="M8.7 18.2891H6.15V10.2641H8.7V18.2891ZM7.425 9.13906C6.6 9.13906 6 8.53906 6 7.71406C6 6.88906 6.675 6.28906 7.425 6.28906C8.25 6.28906 8.85 6.88906 8.85 7.71406C8.85 8.53906 8.25 9.13906 7.425 9.13906ZM18 18.2891H15.45V13.9391C15.45 12.6641 14.925 12.2891 14.175 12.2891C13.425 12.2891 12.675 12.8891 12.675 14.0141V18.2891H10.125V10.2641H12.525V11.3891C12.75 10.8641 13.65 10.0391 14.925 10.0391C16.35 10.0391 17.85 10.8641 17.85 13.3391V18.2891H18Z" fill="white"/>
</svg>
