<svg width="56" height="57" viewBox="0 0 56 57" fill="none" xmlns="http://www.w3.org/2000/svg">
<rect x="4" y="4.5" width="48" height="48" rx="24" fill="#FAE1E3"/>
<rect x="4" y="4.5" width="48" height="48" rx="24" stroke="#FFF4F5" stroke-width="8"/>
<path d="M23.5 20.5C24.0523 20.5 24.5 20.0523 24.5 19.5C24.5 18.9477 24.0523 18.5 23.5 18.5H22C19.7909 18.5 18 20.2909 18 22.5V34.5C18 36.7091 19.7909 38.5 22 38.5H23.5C24.0523 38.5 24.5 38.0523 24.5 37.5C24.5 36.9477 24.0523 36.5 23.5 36.5H22C20.8954 36.5 20 35.6046 20 34.5L20 22.5C20 21.3954 20.8954 20.5 22 20.5H23.5Z" fill="#CC0613"/>
<path d="M38.7071 29.2071C39.0976 28.8166 39.0976 28.1834 38.7071 27.7929L34.7071 23.7929C34.3166 23.4024 33.6834 23.4024 33.2929 23.7929C32.9024 24.1834 32.9024 24.8166 33.2929 25.2071L35.5858 27.5L24 27.5C23.4477 27.5 23 27.9477 23 28.5C23 29.0523 23.4477 29.5 24 29.5L35.5858 29.5L33.2929 31.7929C32.9024 32.1834 32.9024 32.8166 33.2929 33.2071C33.6834 33.5976 34.3166 33.5976 34.7071 33.2071L38.7071 29.2071Z" fill="#CC0613"/>
</svg>
