<svg width="107" height="29" viewBox="0 0 107 29" fill="none"
    xmlns="http://www.w3.org/2000/svg">
    <g clip-path="url(#clip0_703_3814)">
        <path d="M41.08 25.2001V11.5761H36.002V8.95605H49.002V11.5761H43.93V25.2001H41.08Z" fill="#071121"/>
        <path d="M55.5559 25.3621C54.2999 25.3621 53.2333 25.1021 52.3559 24.5821C51.4876 24.0738 50.791 23.3174 50.3559 22.4101C49.886 21.4001 49.6541 20.2958 49.6779 19.1821C49.6558 18.0585 49.8954 16.9451 50.3779 15.9301C50.8244 15.0121 51.5265 14.2425 52.3999 13.7141C53.3659 13.1576 54.4676 12.8806 55.5819 12.9141C56.4115 12.8944 57.2349 13.0604 57.9919 13.4001C58.6614 13.7157 59.2533 14.1745 59.7259 14.7441C60.1948 15.3146 60.5499 15.9698 60.7719 16.6741C61.0033 17.41 61.1121 18.1789 61.0939 18.9501C61.0779 19.1341 61.0619 19.3141 61.0479 19.4901C61.0339 19.6661 61.0079 19.8541 60.9779 20.0521H52.4759C52.515 20.5662 52.66 21.0667 52.9019 21.5221C53.1338 21.9617 53.4836 22.3281 53.9119 22.5801C54.4136 22.8599 54.9818 22.9982 55.5559 22.9801C55.9284 22.9821 56.2992 22.9323 56.6579 22.8321C56.9931 22.7402 57.3089 22.5884 57.5899 22.3841C57.8484 22.1968 58.0381 21.9298 58.1299 21.6241H60.9299C60.7692 22.4256 60.3875 23.1662 59.8279 23.7621C59.2928 24.3136 58.6349 24.7309 57.9079 24.9801C57.1512 25.2395 56.3559 25.3687 55.5559 25.3621ZM52.5219 17.9621H58.3579C58.364 17.4802 58.2455 17.0048 58.0139 16.5821C57.7868 16.1699 57.4487 15.8297 57.0379 15.6001C56.5677 15.3547 56.0421 15.2348 55.5119 15.2521C54.9519 15.235 54.3981 15.3735 53.9119 15.6521C53.5001 15.8924 53.1593 16.2374 52.9239 16.6521C52.6939 17.054 52.5566 17.5023 52.5219 17.9641V17.9621Z" fill="#071121"/>
        <path d="M68.284 25.3619C67.028 25.3619 65.9613 25.1019 65.084 24.582C64.2153 24.074 63.5187 23.3175 63.084 22.4099C62.614 21.4 62.3821 20.2956 62.406 19.182C62.3847 18.0578 62.6265 16.9441 63.112 15.9299C63.5572 15.0111 64.2596 14.2412 65.134 13.7139C66.0997 13.1568 67.2016 12.8798 68.316 12.9139C69.1408 12.8962 69.9592 13.0623 70.712 13.3999C71.3821 13.7145 71.9742 14.1735 72.446 14.7439C72.9149 15.3145 73.2699 15.9696 73.492 16.6739C73.7243 17.4096 73.8331 18.1787 73.814 18.9499C73.798 19.1339 73.784 19.3139 73.768 19.4899C73.752 19.6659 73.73 19.8539 73.7 20.0519H65.206C65.2453 20.5658 65.3896 21.0661 65.63 21.5219C65.8627 21.9616 66.213 22.328 66.642 22.5799C67.1429 22.8598 67.7105 22.9981 68.284 22.9799C68.6571 22.9821 69.0286 22.9323 69.388 22.832C69.7225 22.7401 70.0376 22.5883 70.318 22.3839C70.577 22.1973 70.767 21.93 70.858 21.624H73.658C73.4958 22.4254 73.1135 23.1657 72.554 23.7619C72.0192 24.313 71.3621 24.7302 70.636 24.9799C69.8792 25.2392 69.0839 25.3683 68.284 25.3619ZM65.252 17.9619H71.088C71.0934 17.4801 70.9749 17.0049 70.744 16.5819C70.5167 16.1693 70.1777 15.8289 69.766 15.5999C69.2959 15.3513 68.7695 15.2286 68.238 15.2439C67.678 15.2274 67.1243 15.3658 66.638 15.6439C66.2266 15.8848 65.8858 16.2297 65.65 16.6439C65.4192 17.0482 65.2831 17.4995 65.252 17.9639V17.9619Z" fill="#071121"/>
        <path d="M75.5919 25.2001V8.95605H78.3919V17.9401H80.1379L83.3379 13.0921H86.4859L82.5519 18.8601L86.8039 25.2001H83.5399L80.3119 20.4001H78.4039V25.2001H75.5919Z" fill="#071121"/>
        <path d="M93.0999 25.3619C91.8412 25.3619 90.7745 25.1019 89.8999 24.582C89.0312 24.074 88.3346 23.3175 87.8999 22.4099C87.4306 21.3998 87.1994 20.2955 87.2239 19.182C87.197 18.0592 87.4326 16.9456 87.9119 15.9299C88.3571 15.0111 89.0595 14.2412 89.9339 13.7139C90.8996 13.1568 92.0015 12.8798 93.1159 12.9139C93.9481 12.8925 94.7745 13.0586 95.5339 13.3999C96.2042 13.715 96.7969 14.1739 97.2699 14.7439C97.7376 15.3153 98.0914 15.9712 98.3119 16.6759C98.5442 17.4116 98.653 18.1807 98.6339 18.9519C98.6199 19.1359 98.6039 19.3159 98.5879 19.4919C98.5719 19.6679 98.5499 19.8559 98.5199 20.0539H90.0199C90.0589 20.5681 90.2039 21.0686 90.4459 21.5239C90.6771 21.964 91.027 22.3305 91.4559 22.582C91.9574 22.862 92.5257 23.0002 93.0999 22.9819C93.4723 22.984 93.8432 22.9341 94.2019 22.8339C94.5364 22.7421 94.8515 22.5903 95.1319 22.3859C95.3909 22.1993 95.5808 21.932 95.6719 21.6259H98.4719C98.3097 22.4274 97.9274 23.1677 97.3679 23.7639C96.8334 24.3154 96.1762 24.7327 95.4499 24.9819C94.6936 25.2405 93.899 25.369 93.0999 25.3619ZM90.0659 17.9619H95.9119C95.9179 17.48 95.7994 17.0047 95.5679 16.5819C95.3381 16.1684 94.9963 15.8281 94.5819 15.5999C94.1117 15.3517 93.5854 15.2291 93.0539 15.2439C92.4939 15.2275 91.9402 15.3659 91.4539 15.6439C91.0425 15.8848 90.7017 16.2297 90.4659 16.6439C90.2344 17.048 90.0976 17.4994 90.0659 17.9639V17.9619Z" fill="#071121"/>
        <path d="M105.69 25.2001C104.864 25.2241 104.041 25.0883 103.266 24.8001C102.656 24.563 102.151 24.1153 101.842 23.5381C101.527 22.9567 101.37 22.1754 101.37 21.1941V15.5741H99.512V13.0921H101.372V9.71606H104.172V13.0921H106.998V15.5741H104.174V20.8361C104.174 21.4481 104.28 21.9161 104.496 22.2361C104.712 22.5561 105.192 22.7181 105.944 22.7181H106.912V25.2001H105.69Z" fill="#071121"/>
        <path d="M29.3239 5.84197C29.3793 6.00639 29.4855 6.14898 29.6271 6.24925C29.7687 6.34952 29.9384 6.40229 30.1119 6.39997H30.1239V7.27397H30.1119C29.9378 7.27137 29.7674 7.32423 29.6254 7.42491C29.4834 7.52559 29.3771 7.66886 29.3219 7.83397C29.279 7.95972 29.2667 8.09388 29.2859 8.22534C29.3052 8.3568 29.3556 8.48177 29.4328 8.58989C29.51 8.69801 29.6119 8.78616 29.73 8.84704C29.8481 8.90793 29.979 8.93978 30.1119 8.93997H30.1239V9.81397H30.1119C29.9378 9.81137 29.7674 9.86423 29.6254 9.96491C29.4834 10.0656 29.3771 10.2089 29.3219 10.374C29.2794 10.4996 29.2674 10.6335 29.2868 10.7647C29.3063 10.8959 29.3567 11.0206 29.4339 11.1285C29.5111 11.2363 29.6128 11.3243 29.7307 11.3851C29.8486 11.4458 29.9793 11.4777 30.1119 11.478H30.1239V12.132H30.1119C29.8235 12.1325 29.5471 12.2473 29.3431 12.4512C29.1392 12.6551 29.0244 12.9316 29.0239 13.22H23.9479C22.5974 13.2185 21.3026 12.6812 20.3479 11.726C20.3479 11.726 14.0199 4.97397 11.6399 3.02197H29.0499C29.0499 3.30846 29.1629 3.5834 29.3643 3.78709C29.5658 3.99079 29.8394 4.10681 30.1259 4.10997V4.73797H30.1119C29.9794 4.73859 29.849 4.77067 29.7314 4.83157C29.6138 4.89248 29.5123 4.98047 29.4353 5.08828C29.3584 5.1961 29.3081 5.32066 29.2888 5.4517C29.2694 5.58273 29.2814 5.7165 29.3239 5.84197Z" fill="#071121"/>
        <path d="M20.6899 16.8V27.51C20.4056 27.5099 20.1327 27.6213 19.9297 27.8202C19.7266 28.0191 19.6097 28.2898 19.6039 28.5739H18.9739C18.9739 28.3533 18.8862 28.1417 18.7302 27.9856C18.5742 27.8296 18.3626 27.742 18.1419 27.742C17.9212 27.742 17.7096 27.8296 17.5536 27.9856C17.3976 28.1417 17.3099 28.3533 17.3099 28.5739H16.4359C16.4359 28.3533 16.3482 28.1417 16.1922 27.9856C16.0362 27.8296 15.8246 27.742 15.6039 27.742C15.3832 27.742 15.1716 27.8296 15.0156 27.9856C14.8596 28.1417 14.7719 28.3533 14.7719 28.5739H13.8999C13.8894 28.3601 13.7971 28.1584 13.642 28.0108C13.4869 27.8631 13.281 27.7808 13.0669 27.7808C12.8528 27.7808 12.6469 27.8631 12.4918 28.0108C12.3367 28.1584 12.2444 28.3601 12.2339 28.5739H11.5799C11.5799 28.2859 11.4655 28.0097 11.2618 27.806C11.0581 27.6024 10.7819 27.488 10.4939 27.488V13.2H19.1999C20.1529 14.1558 20.6886 15.4502 20.6899 16.8Z" fill="#071121"/>
        <path d="M1.51191 10.378C1.45664 10.2132 1.35066 10.0701 1.20912 9.96911C1.06759 9.86817 0.897753 9.81458 0.723914 9.816H0.711914V8.944H0.723914C0.899609 8.94844 1.0721 8.89646 1.21608 8.79567C1.36007 8.69488 1.46795 8.5506 1.52391 8.384C1.56671 8.25757 1.57861 8.12272 1.55862 7.99075C1.53863 7.85877 1.48732 7.7335 1.409 7.62542C1.33068 7.51733 1.22761 7.42957 1.10842 7.36948C0.989234 7.30938 0.857389 7.2787 0.723914 7.28H0.711914V6.4H0.723914C0.899609 6.40444 1.0721 6.35246 1.21608 6.25167C1.36007 6.15088 1.46795 6.0066 1.52391 5.84C1.56553 5.71392 1.57651 5.57973 1.55596 5.44856C1.5354 5.31738 1.4839 5.19299 1.40571 5.08568C1.32753 4.97837 1.2249 4.89122 1.10634 4.83146C0.987778 4.77169 0.856685 4.74103 0.723914 4.742H0.711914V4.086H0.723914C1.01212 4.086 1.28856 3.97165 1.49254 3.76804C1.69652 3.56443 1.81138 3.28821 1.81191 3H6.88791C8.23843 3.0015 9.53317 3.53882 10.4879 4.494C10.4879 4.494 16.8179 11.246 19.1959 13.2C19.5901 13.5957 19.9171 14.053 20.1639 14.554C19.5839 13.686 18.4719 13.216 16.5639 13.202H1.78791C1.78951 12.9147 1.67717 12.6384 1.4755 12.4337C1.27382 12.229 0.999245 12.1126 0.711914 12.11L0.711914 11.482H0.723914C0.856376 11.4814 0.986795 11.4493 1.10443 11.3884C1.22206 11.3275 1.32353 11.2395 1.40049 11.1317C1.47744 11.0239 1.52768 10.8993 1.54705 10.7683C1.56642 10.6372 1.55438 10.5035 1.51191 10.378Z" fill="#071121"/>
    </g>
    <defs>
        <clipPath id="clip0_703_3814">
            <rect width="106.288" height="28.578" fill="white" transform="translate(0.711914)"/>
        </clipPath>
    </defs>
</svg>
