<svg width="20" height="20" viewBox="0 0 20 20" fill="none" xmlns="http://www.w3.org/2000/svg">
<path fill-rule="evenodd" clip-rule="evenodd" d="M19.1665 2.85782C19.1665 1.70041 18.0158 0.895378 16.9285 1.29214L10.8469 3.51139L4.73998 3.98893C3.00511 4.12458 1.6665 5.57195 1.6665 7.31212V8.52116C1.6665 10.2613 3.00511 11.7087 4.73998 11.8444L5.08381 11.8712L5.67024 16.9657C5.81462 18.22 6.87652 19.1666 8.13907 19.1666C9.62838 19.1666 10.7832 17.8657 10.6067 16.3869L10.1144 12.2646L10.8469 12.3219L16.9285 14.5411C18.0158 14.9379 19.1665 14.1329 19.1665 12.9755V2.85782ZM4.86991 5.65052L10.1921 5.23435V10.5989L4.86991 10.1828C4.00247 10.1149 3.33317 9.39124 3.33317 8.52116V7.31212C3.33317 6.44203 4.00247 5.71835 4.86991 5.65052ZM17.4998 12.9755L11.8588 10.917V4.9163L17.4998 2.85782L17.4998 12.9755ZM7.32597 16.7751L6.77672 12.0036L8.42009 12.1321L8.95175 16.5845C9.00991 17.0715 8.62956 17.5 8.13907 17.5C7.72325 17.5 7.37352 17.1882 7.32597 16.7751Z" fill="#98A298"/>
</svg>
