<svg width="20" height="20" viewBox="0 0 20 20" fill="none" xmlns="http://www.w3.org/2000/svg">
<path fill-rule="evenodd" clip-rule="evenodd" d="M9.99964 4.58334C7.92857 4.58334 6.24964 6.26227 6.24964 8.33334C6.24964 10.4044 7.92857 12.0833 9.99964 12.0833C12.0707 12.0833 13.7496 10.4044 13.7496 8.33334C13.7496 6.26227 12.0707 4.58334 9.99964 4.58334ZM7.91631 8.33334C7.91631 7.18274 8.84905 6.25 9.99964 6.25C11.1502 6.25 12.083 7.18274 12.083 8.33334C12.083 9.48393 11.1502 10.4167 9.99964 10.4167C8.84905 10.4167 7.91631 9.48393 7.91631 8.33334Z" fill="#667185"/>
<path fill-rule="evenodd" clip-rule="evenodd" d="M6.50734 2.99333C8.62211 1.58348 11.3772 1.58348 13.4919 2.99333C16.351 4.89938 17.1537 8.74585 15.2956 11.6363L12.1026 16.6031C11.1185 18.1339 8.88078 18.1339 7.89669 16.6031L4.70372 11.6363C2.84558 8.74585 3.64826 4.89938 6.50734 2.99333ZM7.43184 4.38008C8.98677 3.34345 11.0125 3.34345 12.5674 4.38008C14.6696 5.78155 15.2598 8.60976 13.8936 10.735L10.7006 15.7019C10.3726 16.2121 9.62669 16.2121 9.29866 15.7019L6.10569 10.735C4.73944 8.60976 5.32963 5.78155 7.43184 4.38008Z" fill="#667185"/>
</svg>
