<svg width="66" height="66" viewBox="0 0 66 66" fill="none"
    xmlns="http://www.w3.org/2000/svg">
    <rect x="5" y="5" width="56" height="56" rx="28" fill="#E7ECE7"/>
    <rect x="5" y="5" width="56" height="56" rx="28" stroke="#F9FAFB" stroke-width="10"/>
    <path d="M32.6039 20.1667C33.2482 20.1667 33.7705 20.689 33.7705 21.3333V23.8201L35.4567 22.6959C35.9928 22.3385 36.7172 22.4834 37.0746 23.0195C37.432 23.5556 37.2871 24.28 36.751 24.6374L33.7705 26.6244V30.9793L37.5262 28.8109L37.6677 25.3147C37.6938 24.6709 38.2368 24.1701 38.8806 24.1962C39.5244 24.2222 40.0252 24.7653 39.9992 25.4091L39.9173 27.4304L42.124 26.1564C42.682 25.8342 43.3956 26.0254 43.7177 26.5834C44.0399 27.1414 43.8487 27.8549 43.2907 28.1771L41.1371 29.4205L42.9537 30.3187C43.5313 30.6043 43.768 31.304 43.4825 31.8816C43.1969 32.4592 42.4971 32.6959 41.9195 32.4103L38.7085 30.8226L34.9371 33.0001L38.6929 35.1685L41.7915 33.5429C42.362 33.2436 43.0672 33.4635 43.3666 34.0341C43.6659 34.6047 43.446 35.3099 42.8754 35.6092L41.084 36.549L43.2907 37.823C43.8487 38.1452 44.0399 38.8587 43.7177 39.4167C43.3956 39.9747 42.682 40.1659 42.124 39.8438L39.9705 38.6004L40.1009 40.6227C40.1424 41.2657 39.6547 41.8206 39.0117 41.8621C38.3687 41.9035 37.8139 41.4159 37.7724 40.7729L37.5419 37.1982L33.7705 35.0209V39.3756L36.751 41.3626C37.2871 41.72 37.432 42.4444 37.0746 42.9805C36.7172 43.5166 35.9928 43.6615 35.4567 43.3041L33.7705 42.1799V44.6667C33.7705 45.311 33.2482 45.8333 32.6039 45.8333C31.9595 45.8333 31.4372 45.311 31.4372 44.6667V42.1799L29.751 43.3041C29.2149 43.6615 28.4905 43.5166 28.1331 42.9805C27.7757 42.4444 27.9206 41.72 28.4567 41.3626L31.4372 39.3756V35.0207L27.6656 37.1982L27.4351 40.7729C27.3936 41.4159 26.8387 41.9035 26.1958 41.8621C25.5528 41.8206 25.0651 41.2657 25.1066 40.6227L25.237 38.6004L23.0834 39.8438C22.5254 40.1659 21.8119 39.9747 21.4898 39.4167C21.1676 38.8587 21.3588 38.1452 21.9168 37.823L24.0704 36.5797L22.2537 35.6815C21.6762 35.3959 21.4394 34.6961 21.725 34.1185C22.0106 33.541 22.7104 33.3042 23.2879 33.5898L26.499 35.1775L30.2704 33.0001L26.499 30.8226L23.2879 32.4103C22.7104 32.6959 22.0106 32.4592 21.725 31.8816C21.4394 31.304 21.6762 30.6043 22.2537 30.3187L24.0704 29.4205L21.9168 28.1771C21.3588 27.8549 21.1676 27.1414 21.4898 26.5834C21.8119 26.0254 22.5254 25.8342 23.0834 26.1564L25.237 27.3997L25.1066 25.3774C25.0651 24.7344 25.5528 24.1795 26.1958 24.1381C26.8388 24.0966 27.3936 24.5842 27.4351 25.2272L27.6656 28.8019L31.4372 30.9794V26.6425L28.4801 24.7718C27.9356 24.4273 27.7734 23.7066 28.1179 23.1621C28.4624 22.6176 29.1831 22.4554 29.7276 22.7999L31.4372 23.8814V21.3333C31.4372 20.689 31.9595 20.1667 32.6039 20.1667Z" fill="#141714"/>
</svg>
