<svg width="20" height="20" viewBox="0 0 20 20" fill="none" xmlns="http://www.w3.org/2000/svg">
<path fill-rule="evenodd" clip-rule="evenodd" d="M10.3898 5.09183C11.6166 5.09183 12.6112 6.08638 12.6112 7.31322C12.6112 8.54006 11.6166 9.5346 10.3898 9.5346C9.16297 9.5346 8.16842 8.54006 8.16842 7.31322C8.16842 6.08638 9.16297 5.09183 10.3898 5.09183ZM10.9445 7.31322C10.9445 7.00686 10.6962 6.7585 10.3898 6.7585C10.0834 6.7585 9.83508 7.00686 9.83508 7.31322C9.83508 7.61958 10.0834 7.86794 10.3898 7.86794C10.6962 7.86794 10.9445 7.61958 10.9445 7.31322Z" fill="#98A298"/>
<path fill-rule="evenodd" clip-rule="evenodd" d="M2.61621 4.95504C2.61621 3.11409 4.1086 1.6217 5.94954 1.6217H14.8301C16.671 1.6217 18.1634 3.11409 18.1634 4.95504V9.6714C18.1634 10.1256 18.0726 10.5585 17.9081 10.953L17.6746 12.6696C17.5822 13.3489 17.2939 13.947 16.8774 14.42C16.8663 14.4545 16.8529 14.4886 16.837 14.5223L16.0474 16.196C15.1589 18.0792 12.7805 18.6959 11.089 17.4817L3.9308 12.3437C3.87051 12.3004 3.81772 12.2506 3.7727 12.1958C3.06447 11.5846 2.61621 10.6803 2.61621 9.6714V4.95504ZM14.8301 13.0047C15.2145 13.0047 15.5838 12.9396 15.9274 12.8199C15.6248 13.6086 14.7546 14.0689 13.9037 13.8199L11.1173 13.0047H14.8301ZM4.86603 3.6886C4.50908 3.99428 4.28288 4.44824 4.28288 4.95504V9.6714C4.28288 10.1782 4.50908 10.6322 4.86603 10.9378C4.76073 10.7983 4.69829 10.6246 4.69829 10.4363C4.69829 9.9761 5.07138 9.603 5.53162 9.603H6.91967C7.37991 9.603 7.75301 9.9761 7.75301 10.4363C7.75301 10.8966 7.37991 11.2697 6.91967 11.2697H5.53162C5.50996 11.2697 5.4885 11.2688 5.46725 11.2672C5.61993 11.3133 5.78184 11.3381 5.94954 11.3381H14.8301C14.9978 11.3381 15.1597 11.3133 15.3124 11.2672C15.2911 11.2688 15.2696 11.2697 15.248 11.2697H13.8599C13.3997 11.2697 13.0266 10.8966 13.0266 10.4363C13.0266 9.9761 13.3997 9.603 13.8599 9.603H15.248C15.7082 9.603 16.0813 9.9761 16.0813 10.4363C16.0813 10.6246 16.0189 10.7983 15.9136 10.9378C16.2705 10.6322 16.4967 10.1782 16.4967 9.6714V4.95504C16.4967 4.44824 16.2705 3.99428 15.9136 3.6886C16.0189 3.82813 16.0813 4.00182 16.0813 4.1901C16.0813 4.65034 15.7082 5.02344 15.248 5.02344H13.8599C13.3997 5.02344 13.0266 4.65034 13.0266 4.1901C13.0266 3.72987 13.3997 3.35677 13.8599 3.35677H15.248C15.2696 3.35677 15.2911 3.3576 15.3124 3.35922C15.1597 3.31314 14.9978 3.28837 14.8301 3.28837H5.94954C5.78184 3.28837 5.61993 3.31314 5.46725 3.35922C5.4885 3.3576 5.50996 3.35677 5.53162 3.35677H6.91967C7.37991 3.35677 7.75301 3.72987 7.75301 4.1901C7.75301 4.65034 7.37991 5.02344 6.91967 5.02344H5.53162C5.07138 5.02344 4.69829 4.65034 4.69829 4.1901C4.69829 4.00182 4.76073 3.82813 4.86603 3.6886ZM14.5063 15.5524C14.1551 15.5664 13.7946 15.5245 13.4357 15.4195L9.44946 14.2533L12.0608 16.1277C12.8861 16.7201 14.0382 16.4409 14.5063 15.5524Z" fill="#98A298"/>
</svg>
