<svg width="56" height="56" viewBox="0 0 56 56" fill="none"
    xmlns="http://www.w3.org/2000/svg">
    <rect x="4" y="4" width="48" height="48" rx="24" fill="#E7ECE7"/>
    <rect x="4" y="4" width="48" height="48" rx="24" stroke="#F9FAFB" stroke-width="8"/>
    <path d="M24 22C23.4477 22 23 22.4477 23 23C23 23.5523 23.4477 24 24 24H32C32.5523 24 33 23.5523 33 23C33 22.4477 32.5523 22 32 22H24Z" fill="#141714"/>
    <path d="M23 28C23 27.4477 23.4477 27 24 27H32C32.5523 27 33 27.4477 33 28C33 28.5523 32.5523 29 32 29H24C23.4477 29 23 28.5523 23 28Z" fill="#141714"/>
    <path d="M24 32C23.4477 32 23 32.4477 23 33C23 33.5523 23.4477 34 24 34H26.6667C27.219 34 27.6667 33.5523 27.6667 33C27.6667 32.4477 27.219 32 26.6667 32H24Z" fill="#141714"/>
    <path d="M29.3333 32C28.781 32 28.3333 32.4477 28.3333 33C28.3333 33.5523 28.781 34 29.3333 34H32C32.5523 34 33 33.5523 33 33C33 32.4477 32.5523 32 32 32H29.3333Z" fill="#141714"/>
    <path fill-rule="evenodd" clip-rule="evenodd" d="M31.4818 37.9012C31.5942 37.9293 31.7033 37.9697 31.8069 38.0215C34.1928 39.2144 37 37.4795 37 34.812V21C37 18.7909 35.2091 17 33 17H23C20.7909 17 19 18.7909 19 21V34.812C19 37.4795 21.8072 39.2144 24.1931 38.0215C24.2967 37.9697 24.4058 37.9293 24.5182 37.9012L27.5149 37.152C27.8334 37.0724 28.1666 37.0724 28.4851 37.152L31.4818 37.9012ZM21 21C21 19.8954 21.8954 19 23 19H33C34.1046 19 35 19.8954 35 21V34.812C35 35.9927 33.7574 36.7607 32.7013 36.2326C32.4672 36.1156 32.2209 36.0244 31.9669 35.9609L28.9701 35.2118C28.3332 35.0525 27.6668 35.0525 27.0299 35.2118L24.0331 35.9609C23.7791 36.0244 23.5328 36.1156 23.2987 36.2326C22.2426 36.7607 21 35.9927 21 34.812V21Z" fill="#141714"/>
</svg>
