
    <svg
      width="20"
      height="20"
      viewBox="0 0 20 20"
      fill="none"
      xmlns="http://www.w3.org/2000/svg"
    >
      <path
        d="M10.8332 7.49984C10.8332 7.0396 10.4601 6.6665 9.99984 6.6665C9.5396 6.6665 9.1665 7.0396 9.1665 7.49984V9.1665H7.49984C7.0396 9.1665 6.6665 9.5396 6.6665 9.99984C6.6665 10.4601 7.0396 10.8332 7.49984 10.8332H9.1665V12.4998C9.1665 12.9601 9.5396 13.3332 9.99984 13.3332C10.4601 13.3332 10.8332 12.9601 10.8332 12.4998V10.8332H12.4998C12.9601 10.8332 13.3332 10.4601 13.3332 9.99984C13.3332 9.5396 12.9601 9.1665 12.4998 9.1665H10.8332V7.49984Z"
        fill="#5E665E"
      />
      <path
        fillRule="evenodd"
        clipRule="evenodd"
        d="M9.99984 1.6665C5.39746 1.6665 1.6665 5.39746 1.6665 9.99984C1.6665 14.6022 5.39746 18.3332 9.99984 18.3332C14.6022 18.3332 18.3332 14.6022 18.3332 9.99984C18.3332 5.39746 14.6022 1.6665 9.99984 1.6665ZM3.33317 9.99984C3.33317 6.31794 6.31794 3.33317 9.99984 3.33317C13.6817 3.33317 16.6665 6.31794 16.6665 9.99984C16.6665 13.6817 13.6817 16.6665 9.99984 16.6665C6.31794 16.6665 3.33317 13.6817 3.33317 9.99984Z"
        fill="#5E665E"
      />
    </svg>
