<svg width="20" height="20" viewBox="0 0 20 20" fill="none" xmlns="http://www.w3.org/2000/svg">
<path d="M10.8333 7.50002C10.8333 7.03978 10.4602 6.66669 9.99999 6.66669C9.53975 6.66669 9.16666 7.03978 9.16666 7.50002V9.16669H7.49999C7.03975 9.16669 6.66666 9.53978 6.66666 10C6.66666 10.4603 7.03975 10.8334 7.49999 10.8334H9.16666V12.5C9.16666 12.9603 9.53975 13.3334 9.99999 13.3334C10.4602 13.3334 10.8333 12.9603 10.8333 12.5V10.8334H12.5C12.9602 10.8334 13.3333 10.4603 13.3333 10C13.3333 9.53978 12.9602 9.16669 12.5 9.16669H10.8333V7.50002Z" fill="#5E665E"/>
<path fill-rule="evenodd" clip-rule="evenodd" d="M9.99999 1.66669C5.39762 1.66669 1.66666 5.39765 1.66666 10C1.66666 14.6024 5.39762 18.3334 9.99999 18.3334C14.6024 18.3334 18.3333 14.6024 18.3333 10C18.3333 5.39765 14.6024 1.66669 9.99999 1.66669ZM3.33332 10C3.33332 6.31812 6.31809 3.33335 9.99999 3.33335C13.6819 3.33335 16.6667 6.31812 16.6667 10C16.6667 13.6819 13.6819 16.6667 9.99999 16.6667C6.31809 16.6667 3.33332 13.6819 3.33332 10Z" fill="#5E665E"/>
</svg>
