<svg width="17" height="18" viewBox="0 0 17 18" fill="none" xmlns="http://www.w3.org/2000/svg">
<path fill-rule="evenodd" clip-rule="evenodd" d="M8.39078 4.09171C9.61762 4.09171 10.6122 5.08626 10.6122 6.3131C10.6122 7.53993 9.61762 8.53448 8.39078 8.53448C7.16394 8.53448 6.16939 7.53993 6.16939 6.3131C6.16939 5.08626 7.16394 4.09171 8.39078 4.09171ZM8.9455 6.3131C8.9455 6.00673 8.69714 5.75838 8.39078 5.75838C8.08442 5.75838 7.83606 6.00673 7.83606 6.3131C7.83606 6.61946 8.08442 6.86782 8.39078 6.86782C8.69714 6.86782 8.9455 6.61946 8.9455 6.3131Z" fill="#5E665E"/>
<path fill-rule="evenodd" clip-rule="evenodd" d="M0.617188 3.95492C0.617188 2.11397 2.10957 0.621582 3.95052 0.621582H12.831C14.672 0.621582 16.1644 2.11397 16.1644 3.95492V8.67128C16.1644 9.12543 16.0735 9.55837 15.9091 9.95292L15.6756 11.6695C15.5832 12.3488 15.2948 12.9469 14.8784 13.4199C14.8673 13.4544 14.8539 13.4885 14.838 13.5221L14.0483 15.1959C13.1599 17.0791 10.7815 17.6958 9.08995 16.4816L1.93178 11.3436C1.87149 11.3003 1.81869 11.2504 1.77367 11.1957C1.06545 10.5845 0.617188 9.68022 0.617188 8.67128V3.95492ZM12.831 12.0046C13.2155 12.0046 13.5847 11.9395 13.9284 11.8198C13.6258 12.6085 12.7556 13.0687 11.9047 12.8198L9.11828 12.0046H12.831ZM2.867 2.68847C2.51006 2.99415 2.28385 3.44812 2.28385 3.95492V8.67128C2.28385 9.17808 2.51006 9.63204 2.867 9.93772C2.7617 9.79818 2.69927 9.62449 2.69927 9.43621C2.69927 8.97598 3.07236 8.60288 3.5326 8.60288H4.92065C5.38089 8.60288 5.75398 8.97598 5.75398 9.43621C5.75398 9.89645 5.38089 10.2695 4.92065 10.2695H3.5326C3.51094 10.2695 3.48947 10.2687 3.46823 10.2671C3.6209 10.3132 3.78282 10.3379 3.95052 10.3379H12.831C12.9987 10.3379 13.1607 10.3132 13.3133 10.2671C13.2921 10.2687 13.2706 10.2695 13.249 10.2695H11.8609C11.4007 10.2695 11.0276 9.89645 11.0276 9.43621C11.0276 8.97598 11.4007 8.60288 11.8609 8.60288H13.249C13.7092 8.60288 14.0823 8.97598 14.0823 9.43621C14.0823 9.62449 14.0199 9.79819 13.9146 9.93772C14.2715 9.63204 14.4977 9.17808 14.4977 8.67128V3.95492C14.4977 3.44812 14.2715 2.99415 13.9146 2.68847C14.0199 2.82801 14.0823 3.0017 14.0823 3.18998C14.0823 3.65022 13.7092 4.02331 13.249 4.02331H11.8609C11.4007 4.02331 11.0276 3.65022 11.0276 3.18998C11.0276 2.72974 11.4007 2.35665 11.8609 2.35665H13.249C13.2706 2.35665 13.2921 2.35747 13.3133 2.3591C13.1607 2.31302 12.9987 2.28825 12.831 2.28825H3.95052C3.78282 2.28825 3.6209 2.31302 3.46823 2.3591C3.48947 2.35747 3.51094 2.35665 3.5326 2.35665H4.92065C5.38089 2.35665 5.75398 2.72974 5.75398 3.18998C5.75398 3.65022 5.38089 4.02331 4.92065 4.02331H3.5326C3.07236 4.02331 2.69927 3.65022 2.69927 3.18998C2.69927 3.0017 2.7617 2.82801 2.867 2.68847ZM12.5073 14.5523C12.1561 14.5663 11.7955 14.5244 11.4367 14.4194L7.45043 13.2532L10.0618 15.1276C10.887 15.7199 12.0392 15.4408 12.5073 14.5523Z" fill="#5E665E"/>
</svg>
