<svg width="20" height="20" viewBox="0 0 20 20" fill="none" xmlns="http://www.w3.org/2000/svg">
<path fill-rule="evenodd" clip-rule="evenodd" d="M10.3908 5.09171C11.6176 5.09171 12.6122 6.08626 12.6122 7.3131C12.6122 8.53993 11.6176 9.53448 10.3908 9.53448C9.16394 9.53448 8.16939 8.53993 8.16939 7.3131C8.16939 6.08626 9.16394 5.09171 10.3908 5.09171ZM10.9455 7.3131C10.9455 7.00673 10.6971 6.75838 10.3908 6.75838C10.0844 6.75838 9.83606 7.00673 9.83606 7.3131C9.83606 7.61946 10.0844 7.86782 10.3908 7.86782C10.6971 7.86782 10.9455 7.61946 10.9455 7.3131Z" fill="#5E665E"/>
<path fill-rule="evenodd" clip-rule="evenodd" d="M2.61719 4.95492C2.61719 3.11397 4.10957 1.62158 5.95052 1.62158H14.831C16.672 1.62158 18.1644 3.11397 18.1644 4.95492V9.67128C18.1644 10.1254 18.0735 10.5584 17.9091 10.9529L17.6756 12.6695C17.5832 13.3488 17.2948 13.9469 16.8784 14.4199C16.8673 14.4544 16.8539 14.4885 16.838 14.5221L16.0483 16.1959C15.1599 18.0791 12.7815 18.6958 11.0899 17.4816L3.93178 12.3436C3.87149 12.3003 3.81869 12.2504 3.77367 12.1957C3.06545 11.5845 2.61719 10.6802 2.61719 9.67128V4.95492ZM14.831 13.0046C15.2155 13.0046 15.5847 12.9395 15.9284 12.8198C15.6258 13.6085 14.7556 14.0687 13.9047 13.8198L11.1183 13.0046H14.831ZM4.867 3.68847C4.51006 3.99415 4.28385 4.44812 4.28385 4.95492V9.67128C4.28385 10.1781 4.51006 10.632 4.867 10.9377C4.7617 10.7982 4.69927 10.6245 4.69927 10.4362C4.69927 9.97598 5.07236 9.60288 5.5326 9.60288H6.92065C7.38089 9.60288 7.75398 9.97598 7.75398 10.4362C7.75398 10.8965 7.38089 11.2695 6.92065 11.2695H5.5326C5.51094 11.2695 5.48947 11.2687 5.46823 11.2671C5.6209 11.3132 5.78282 11.3379 5.95052 11.3379H14.831C14.9987 11.3379 15.1607 11.3132 15.3133 11.2671C15.2921 11.2687 15.2706 11.2695 15.249 11.2695H13.8609C13.4007 11.2695 13.0276 10.8965 13.0276 10.4362C13.0276 9.97598 13.4007 9.60288 13.8609 9.60288H15.249C15.7092 9.60288 16.0823 9.97598 16.0823 10.4362C16.0823 10.6245 16.0199 10.7982 15.9146 10.9377C16.2715 10.632 16.4977 10.1781 16.4977 9.67128V4.95492C16.4977 4.44812 16.2715 3.99415 15.9146 3.68847C16.0199 3.82801 16.0823 4.0017 16.0823 4.18998C16.0823 4.65022 15.7092 5.02331 15.249 5.02331H13.8609C13.4007 5.02331 13.0276 4.65022 13.0276 4.18998C13.0276 3.72974 13.4007 3.35665 13.8609 3.35665H15.249C15.2706 3.35665 15.2921 3.35747 15.3133 3.3591C15.1607 3.31302 14.9987 3.28825 14.831 3.28825H5.95052C5.78282 3.28825 5.6209 3.31302 5.46823 3.3591C5.48947 3.35747 5.51094 3.35665 5.5326 3.35665H6.92065C7.38089 3.35665 7.75398 3.72974 7.75398 4.18998C7.75398 4.65022 7.38089 5.02331 6.92065 5.02331H5.5326C5.07236 5.02331 4.69927 4.65022 4.69927 4.18998C4.69927 4.0017 4.7617 3.82801 4.867 3.68847ZM14.5073 15.5523C14.1561 15.5663 13.7955 15.5244 13.4367 15.4194L9.45043 14.2532L12.0618 16.1276C12.887 16.7199 14.0392 16.4408 14.5073 15.5523Z" fill="#5E665E"/>
</svg>
