<svg width="20" height="20" viewBox="0 0 20 20" fill="none" xmlns="http://www.w3.org/2000/svg">
<path d="M10.1161 8.45411C10.3513 8.27771 10.4078 7.94828 10.2447 7.70364C10.0507 7.41277 9.6392 7.37202 9.392 7.61921L8.92194 8.08928C8.5965 8.41471 8.06886 8.41471 7.74343 8.08928C7.41799 7.76384 7.41799 7.2362 7.74343 6.91077L8.21349 6.4407C9.20438 5.44981 10.8541 5.61316 11.6314 6.77914C12.2852 7.75977 12.059 9.08031 11.1161 9.78745L11.0757 9.81779C10.9227 9.93251 10.8327 10.1125 10.8327 10.3037L10.8327 10.4167C10.8327 10.8769 10.4596 11.25 9.99935 11.25C9.53911 11.25 9.16601 10.8769 9.16601 10.4167L9.16602 10.3037C9.16602 9.58795 9.50302 8.91393 10.0757 8.48446L10.1161 8.45411Z" fill="#98A298"/>
<path d="M9.16602 12.9167C9.16602 13.3769 9.53911 13.75 9.99935 13.75C10.4596 13.75 10.8327 13.3769 10.8327 12.9167C10.8327 12.4564 10.4596 12.0834 9.99935 12.0834C9.53911 12.0834 9.16602 12.4564 9.16602 12.9167Z" fill="#98A298"/>
<path fill-rule="evenodd" clip-rule="evenodd" d="M1.66602 10C1.66602 5.39765 5.39698 1.66669 9.99935 1.66669C14.6017 1.66669 18.3327 5.39765 18.3327 10C18.3327 14.6024 14.6017 18.3334 9.99935 18.3334C5.39698 18.3334 1.66602 14.6024 1.66602 10ZM9.99935 3.33335C6.31745 3.33335 3.33268 6.31812 3.33268 10C3.33268 13.6819 6.31745 16.6667 9.99935 16.6667C13.6812 16.6667 16.666 13.6819 16.666 10C16.666 6.31812 13.6812 3.33335 9.99935 3.33335Z" fill="#98A298"/>
</svg>
