<svg width="56" height="56" viewBox="0 0 56 56" fill="none"
    xmlns="http://www.w3.org/2000/svg">
    <rect x="4" y="4" width="48" height="48" rx="24" fill="#E7ECE7"/>
    <rect x="4" y="4" width="48" height="48" rx="24" stroke="#F9FAFB" stroke-width="8"/>
    <path d="M20.6367 34.364C20.6367 34.9163 21.0844 35.364 21.6367 35.364H27.2936C27.8459 35.364 28.2936 34.9163 28.2936 34.364C28.2936 33.8117 27.8459 33.364 27.2936 33.364H24.0509L35.0717 22.3432C35.4623 21.9526 35.4623 21.3195 35.0717 20.9289C34.6812 20.5384 34.0481 20.5384 33.6575 20.9289L22.6367 31.9498L22.6367 28.7071C22.6367 28.1548 22.189 27.7071 21.6367 27.7071C21.0844 27.7071 20.6367 28.1548 20.6367 28.7071V34.364Z" fill="#141714"/>
</svg>
