<svg width="32" height="33" viewBox="0 0 32 33" fill="none" xmlns="http://www.w3.org/2000/svg">
<path fill-rule="evenodd" clip-rule="evenodd" d="M23.7861 8.80743C22.4843 7.50568 20.3738 7.50568 19.072 8.80743C17.7703 10.1092 17.7703 12.2197 19.072 13.5215C20.3738 14.8232 22.4843 14.8232 23.7861 13.5215C25.0878 12.2197 25.0878 10.1092 23.7861 8.80743ZM20.9577 10.693C21.218 10.4327 21.6401 10.4327 21.9005 10.693C22.1608 10.9534 22.1608 11.3755 21.9005 11.6359C21.6401 11.8962 21.218 11.8962 20.9577 11.6359C20.6973 11.3755 20.6973 10.9534 20.9577 10.693Z" fill="#06CC06"/>
<path fill-rule="evenodd" clip-rule="evenodd" d="M28.4998 4.09328C28.3132 3.89936 28.0728 3.76806 27.8137 3.71323C26.5576 3.24167 24.4357 2.89627 21.2352 4.14796C18.9857 5.02774 16.2118 6.69211 12.8094 9.63778C12.4028 9.51622 11.9713 9.46706 11.5495 9.46794C10.7569 9.4696 9.87013 9.64582 8.94394 9.99711C7.08591 10.7018 4.97561 12.145 2.96393 14.5521C2.52125 15.0818 2.55609 15.8618 3.04422 16.3499C4.14926 17.455 5.41126 17.621 6.42431 17.532C6.89047 17.4911 7.32411 17.3949 7.63859 17.3252L7.66171 17.3201C7.85292 17.2777 7.9826 17.2506 8.07299 17.2341C8.10524 17.2388 8.13781 17.2424 8.17066 17.2447C11.1558 17.4579 12.7234 18.0155 13.6505 18.9426C14.5777 19.8697 15.1352 21.4373 15.3484 24.4225C15.3508 24.4558 15.3544 24.4889 15.3592 24.5216C15.3427 24.612 15.3157 24.7414 15.2735 24.9318L15.2684 24.9549C15.1986 25.2694 15.1025 25.7031 15.0615 26.1692C14.9725 27.1823 15.1386 28.4443 16.2436 29.5493C16.7317 30.0374 17.5117 30.0723 18.0414 29.6296C20.4486 27.6179 21.8917 25.5076 22.5964 23.6496C22.9477 22.7234 23.1239 21.8367 23.1256 21.0441C23.1265 20.622 23.0773 20.1902 22.9555 19.7834C25.9011 16.3812 27.5654 13.6074 28.4452 11.3579C29.6968 8.15738 29.3514 6.03555 28.8799 4.77938C28.825 4.52026 28.6938 4.27993 28.4998 4.09328ZM9.50074 12.7218C9.40485 12.8172 9.30854 12.9135 9.21181 13.0108L7.61553 14.607C7.43842 14.6377 7.27391 14.6744 7.14045 14.7042L7.08477 14.7166C6.79891 14.7799 6.5546 14.8327 6.31714 14.8622C7.51107 13.7254 8.65382 13.0079 9.62645 12.5961L9.50074 12.7218ZM11.1064 14.8874L11.0694 14.9246C12.905 15.2854 14.4034 15.9243 15.5361 17.057C16.6688 18.1897 17.3077 19.6881 17.6685 21.5237C22.6658 16.5577 24.9691 12.9245 25.9617 10.3866C26.804 8.23267 26.7049 6.86615 26.5024 6.09069C25.727 5.88821 24.3604 5.78906 22.2065 6.63145C19.7211 7.60348 16.1853 9.8325 11.376 14.6178L11.1064 14.8874ZM19.9974 22.9671L17.9865 24.978C17.9559 25.1551 17.9192 25.3196 17.8894 25.4531L17.877 25.5088C17.8136 25.7946 17.7608 26.0389 17.7314 26.2764C18.8682 25.0825 19.5856 23.9397 19.9974 22.9671Z" fill="#06CC06"/>
<path fill-rule="evenodd" clip-rule="evenodd" d="M11.7342 18.9615C12.1015 19.0712 12.5628 19.2691 12.9436 19.6499C13.3244 20.0307 13.5223 20.492 13.6321 20.8593C13.745 21.2375 13.7941 21.6165 13.8156 21.9285C13.8375 22.2457 13.8331 22.5309 13.8239 22.7351C13.8192 22.8384 13.8131 22.924 13.8079 22.9863C13.8053 23.0175 13.8029 23.043 13.801 23.0622L13.7986 23.0862L13.7977 23.0945L13.7973 23.0977L13.7972 23.099C13.7971 23.0993 13.797 23.1002 12.4722 22.9497L13.7972 23.099C13.7503 23.5113 13.5141 23.8795 13.1582 24.093C12.2104 24.6617 11.0049 25.0533 10.1125 25.2967C9.65164 25.4224 9.24412 25.5164 8.95091 25.5793C8.80394 25.6108 8.68474 25.6346 8.60081 25.6509C8.55882 25.659 8.52558 25.6652 8.50204 25.6696L8.47408 25.6747L8.46575 25.6762L8.46165 25.6769C8.46147 25.6769 8.46131 25.677 8.22959 24.3639C6.92215 24.1024 6.92218 24.1023 6.9222 24.1022L6.92297 24.0984L6.92471 24.0898L6.93091 24.0594C6.93624 24.0335 6.94396 23.9965 6.95393 23.9495C6.97388 23.8557 7.00294 23.7221 7.0402 23.5589C7.11451 23.2335 7.22251 22.7858 7.35699 22.2996C7.49071 21.8162 7.65504 21.2784 7.84378 20.7778C8.02452 20.2985 8.2597 19.7651 8.55883 19.3463C8.77838 19.0389 9.11799 18.8391 9.4933 18.7965L9.64381 20.1213C9.4933 18.7965 9.49301 18.7965 9.4933 18.7965L9.49586 18.7962L9.49905 18.7958L9.50734 18.7949L9.53131 18.7925C9.55048 18.7906 9.57602 18.7882 9.60721 18.7856C9.66947 18.7804 9.75509 18.7743 9.8584 18.7696C10.0626 18.7604 10.3478 18.756 10.665 18.7779C10.977 18.7994 11.356 18.8485 11.7342 18.9615ZM10.4515 21.4363C10.4154 21.5216 10.3778 21.6157 10.339 21.7186C10.2432 21.9727 10.1515 22.2496 10.066 22.531C10.4433 22.411 10.8175 22.2753 11.1562 22.1265L11.1553 22.1117C11.1419 21.9174 11.1146 21.7487 11.077 21.6226C11.0666 21.5881 11.0572 21.5623 11.0497 21.5439C11.0312 21.5363 11.0054 21.5269 10.9709 21.5165C10.8448 21.4789 10.6761 21.4516 10.4818 21.4382L10.4515 21.4363Z" fill="#06CC06"/>
<path d="M8.22959 24.3639L8.46165 25.6769C8.02791 25.7534 7.58401 25.6109 7.27613 25.296C6.96825 24.981 6.83583 24.5341 6.9222 24.1022L8.22959 24.3639Z" fill="#06CC06"/>
</svg>
