<svg width="20" height="20" viewBox="0 0 20 20" fill="none" xmlns="http://www.w3.org/2000/svg">
<path fill-rule="evenodd" clip-rule="evenodd" d="M14.8664 5.19217C14.0528 4.37858 12.7338 4.37858 11.9202 5.19217C11.1066 6.00576 11.1066 7.32486 11.9202 8.13845C12.7338 8.95204 14.0528 8.95204 14.8664 8.13845C15.68 7.32486 15.68 6.00576 14.8664 5.19217ZM13.0987 6.37068C13.2614 6.20796 13.5252 6.20796 13.6879 6.37068C13.8506 6.5334 13.8506 6.79722 13.6879 6.95994C13.5252 7.12266 13.2614 7.12266 13.0987 6.95994C12.936 6.79722 12.936 6.5334 13.0987 6.37068Z" fill="white"/>
<path fill-rule="evenodd" clip-rule="evenodd" d="M17.8125 2.24583C17.6959 2.12463 17.5457 2.04257 17.3837 2.0083C16.5986 1.71357 15.2725 1.4977 13.2722 2.28C11.8662 2.82987 10.1325 3.8701 8.00603 5.71115C7.7519 5.63517 7.4822 5.60444 7.21856 5.60499C6.72319 5.60603 6.16897 5.71617 5.5901 5.93573C4.42883 6.37618 3.10989 7.27812 1.85259 8.78259C1.57592 9.11365 1.59769 9.60115 1.90277 9.90623C2.59343 10.5969 3.38218 10.7007 4.01533 10.645C4.30668 10.6194 4.57771 10.5593 4.77425 10.5158L4.78871 10.5126C4.90821 10.4861 4.98926 10.4692 5.04576 10.4589C5.06591 10.4618 5.08627 10.464 5.1068 10.4655C6.9725 10.5987 7.95225 10.9472 8.53171 11.5267C9.11117 12.1061 9.45964 13.0859 9.59289 14.9516C9.59438 14.9724 9.59664 14.9931 9.59965 15.0136C9.58933 15.07 9.57244 15.1509 9.54606 15.2699L9.54286 15.2844C9.49928 15.4809 9.43918 15.7519 9.41358 16.0433C9.35794 16.6764 9.46174 17.4652 10.1524 18.1559C10.4575 18.4609 10.945 18.4827 11.276 18.206C12.7805 16.9487 13.6824 15.6298 14.1229 14.4685C14.3425 13.8897 14.4526 13.3354 14.4536 12.8401C14.4542 12.5763 14.4234 12.3064 14.3474 12.0522C16.1883 9.92577 17.2285 8.19213 17.7784 6.7862C18.5607 4.78589 18.3448 3.45975 18.0501 2.67464C18.0158 2.51269 17.9337 2.36249 17.8125 2.24583ZM5.9381 7.63867C5.87817 7.69829 5.81798 7.75848 5.75752 7.81925L4.75984 8.81693C4.64915 8.83608 4.54633 8.85902 4.46292 8.87763L4.42812 8.88537C4.24946 8.92497 4.09676 8.95797 3.94835 8.97638C4.69455 8.26588 5.40878 7.81747 6.01667 7.5601L5.9381 7.63867ZM6.94161 8.99218L6.9185 9.01542C8.06575 9.24091 9.00229 9.64021 9.71022 10.3481C10.4182 11.0561 10.8175 11.9926 11.0429 13.1399C14.1663 10.0361 15.6058 7.76537 16.2262 6.17915C16.7527 4.83295 16.6907 3.97888 16.5642 3.49421C16.0795 3.36766 15.2254 3.3057 13.8792 3.83219C12.3258 4.43971 10.1159 5.83284 7.11013 8.82366L6.94161 8.99218ZM12.4985 14.042L11.2417 15.2988C11.2225 15.4095 11.1996 15.5123 11.181 15.5957L11.1733 15.6305C11.1337 15.8092 11.1007 15.9619 11.0822 16.1103C11.7927 15.3641 12.2412 14.6498 12.4985 14.042Z" fill="white"/>
<path fill-rule="evenodd" clip-rule="evenodd" d="M7.334 11.5384C7.56358 11.607 7.8519 11.7307 8.08991 11.9687C8.32792 12.2067 8.45159 12.495 8.52017 12.7246C8.59077 12.9609 8.62147 13.1979 8.6349 13.3928C8.64856 13.5911 8.64585 13.7694 8.64007 13.897C8.63714 13.9615 8.63334 14.0151 8.6301 14.054C8.62848 14.0735 8.62698 14.0894 8.62579 14.1014L8.62425 14.1164L8.62369 14.1216L8.62347 14.1236L8.62338 14.1244C8.62336 14.1246 8.62329 14.1252 7.79528 14.0311L8.62338 14.1244C8.5941 14.3821 8.44643 14.6122 8.22403 14.7457C7.63165 15.1011 6.87818 15.3459 6.32044 15.498C6.03242 15.5765 5.77771 15.6353 5.59445 15.6746C5.5026 15.6943 5.4281 15.7092 5.37564 15.7193C5.3494 15.7244 5.32863 15.7283 5.31391 15.731L5.29644 15.7342L5.29123 15.7351L5.28867 15.7356C5.28856 15.7356 5.28845 15.7356 5.14363 14.915C4.32648 14.7515 4.3265 14.7515 4.32651 14.7514L4.32699 14.749L4.32808 14.7436L4.33196 14.7247C4.33529 14.7085 4.34011 14.6853 4.34635 14.656C4.35881 14.5973 4.37698 14.5138 4.40026 14.4118C4.44671 14.2084 4.51421 13.9287 4.59826 13.6248C4.68183 13.3226 4.78454 12.9865 4.9025 12.6737C5.01547 12.3741 5.16245 12.0407 5.34941 11.779C5.48662 11.5869 5.69888 11.462 5.93345 11.4353L6.02752 12.2633C5.93345 11.4353 5.93327 11.4353 5.93345 11.4353L5.93505 11.4351L5.93705 11.4349L5.94223 11.4344L5.95721 11.4328C5.96919 11.4316 5.98515 11.4301 6.00465 11.4285C6.04356 11.4253 6.09707 11.4215 6.16164 11.4185C6.28925 11.4128 6.46753 11.4101 6.66579 11.4237C6.86075 11.4371 7.09767 11.4678 7.334 11.5384ZM6.5323 13.0852C6.50977 13.1385 6.48626 13.1973 6.462 13.2617C6.40213 13.4205 6.34479 13.5935 6.29138 13.7694C6.5272 13.6944 6.76106 13.6096 6.97279 13.5166L6.97218 13.5074C6.96381 13.3859 6.94678 13.2805 6.92324 13.2017C6.91679 13.1801 6.91089 13.164 6.90617 13.1524C6.89464 13.1477 6.87853 13.1418 6.85693 13.1354C6.77815 13.1118 6.67271 13.0948 6.55124 13.0864L6.5323 13.0852Z" fill="white"/>
<path d="M5.14363 14.915L5.28867 15.7356C5.01758 15.7834 4.74015 15.6944 4.54772 15.4975C4.3553 15.3007 4.27253 15.0213 4.32651 14.7514L5.14363 14.915Z" fill="white"/>
</svg>
