<svg width="24" height="24" viewBox="0 0 24 24" fill="none" xmlns="http://www.w3.org/2000/svg">
<path d="M1.97851 5.9355C1.97851 3.75012 3.75011 1.97852 5.93549 1.97852H7.91399C8.46034 1.97852 8.90324 2.42142 8.90324 2.96776C8.90324 3.51411 8.46034 3.95701 7.91399 3.95701H5.93549C4.8428 3.95701 3.957 4.84281 3.957 5.9355V7.914C3.957 8.46035 3.5141 8.90325 2.96775 8.90325C2.42141 8.90325 1.97851 8.46035 1.97851 7.914V5.9355Z" fill="#141714"/>
<path d="M21.7635 5.9355C21.7635 3.75012 19.9918 1.97852 17.8065 1.97852H15.828C15.2816 1.97852 14.8387 2.42142 14.8387 2.96776C14.8387 3.51411 15.2816 3.95701 15.828 3.95701H17.8065C18.8992 3.95701 19.785 4.84281 19.785 5.9355V7.914C19.785 8.46035 20.2279 8.90325 20.7742 8.90325C21.3206 8.90325 21.7635 8.46035 21.7635 7.914V5.9355Z" fill="#141714"/>
<path d="M5.93549 21.7635C3.75011 21.7635 1.97851 19.9919 1.97851 17.8065V15.828C1.97851 15.2816 2.42141 14.8387 2.96775 14.8387C3.5141 14.8387 3.957 15.2816 3.957 15.828V17.8065C3.957 18.8992 4.8428 19.785 5.93549 19.785H7.91399C8.46034 19.785 8.90324 20.2279 8.90324 20.7742C8.90324 21.3206 8.46034 21.7635 7.91399 21.7635H5.93549Z" fill="#141714"/>
<path d="M21.7635 17.8065C21.7635 19.9919 19.9918 21.7635 17.8065 21.7635H15.828C15.2816 21.7635 14.8387 21.3206 14.8387 20.7742C14.8387 20.2279 15.2816 19.785 15.828 19.785H17.8065C18.8992 19.785 19.785 18.8992 19.785 17.8065V15.828C19.785 15.2816 20.2279 14.8387 20.7742 14.8387C21.3206 14.8387 21.7635 15.2816 21.7635 15.828V17.8065Z" fill="#141714"/>
<path d="M1.97851 11.871C1.43216 11.871 0.989258 12.3139 0.989258 12.8602C0.989258 13.4066 1.43216 13.8495 1.97851 13.8495H21.7635C22.3098 13.8495 22.7527 13.4066 22.7527 12.8602C22.7527 12.3139 22.3098 11.871 21.7635 11.871H1.97851Z" fill="#141714"/>
</svg>
