<svg width="56" height="56" viewBox="0 0 56 56" fill="none"
    xmlns="http://www.w3.org/2000/svg">
    <rect x="4" y="4" width="48" height="48" rx="24" fill="#E7ECE7"/>
    <rect x="4" y="4" width="48" height="48" rx="24" stroke="#F9FAFB" stroke-width="8"/>
    <path fill-rule="evenodd" clip-rule="evenodd" d="M27 18C22.0294 18 18 22.0294 18 27C18 31.9706 22.0294 36 27 36C29.125 36 31.078 35.2635 32.6177 34.0319L36.2929 37.7071C36.6834 38.0976 37.3166 38.0976 37.7071 37.7071C38.0976 37.3166 38.0976 36.6834 37.7071 36.2929L34.0319 32.6177C35.2635 31.078 36 29.125 36 27C36 22.0294 31.9706 18 27 18ZM20 27C20 23.134 23.134 20 27 20C30.866 20 34 23.134 34 27C34 30.866 30.866 34 27 34C23.134 34 20 30.866 20 27Z" fill="#141714"/>
</svg>
