<svg width="31" height="20" viewBox="0 0 31 20" fill="none"
  xmlns="http://www.w3.org/2000/svg">
  <g style="mix-blend-mode:multiply">
    <rect x="0.5" y="0.5" width="30" height="19" rx="3.5" fill="#F7FAF7" />
    <rect x="0.5" y="0.5" width="30" height="19" rx="3.5" stroke="#CBD1CB" />
    <path d="M7.84801 15.2287C7.4536 15.2287 7.09233 15.1326 6.7642 14.9403C6.43608 14.7448 6.17424 14.483 5.97869 14.1548C5.78646 13.8267 5.69034 13.4654 5.69034 13.071C5.69034 12.6733 5.78646 12.3104 5.97869 11.9822C6.17424 11.6541 6.43608 11.3923 6.7642 11.1967C7.09233 11.0012 7.4536 10.9034 7.84801 10.9034H9.00142V8.90483H7.84801C7.4536 8.90483 7.09233 8.80871 6.7642 8.61648C6.43608 8.42093 6.17424 8.16075 5.97869 7.83594C5.78646 7.50781 5.69034 7.14489 5.69034 6.74716C5.69034 6.34943 5.78646 5.98816 5.97869 5.66335C6.17424 5.33523 6.43608 5.07505 6.7642 4.88281C7.09233 4.68726 7.4536 4.58949 7.84801 4.58949C8.24574 4.58949 8.60866 4.68726 8.93679 4.88281C9.26491 5.07505 9.52675 5.33523 9.7223 5.66335C9.91785 5.98816 10.0156 6.34943 10.0156 6.74716V7.89062H12.0142V6.74716C12.0142 6.34943 12.1103 5.98816 12.3026 5.66335C12.4981 5.33523 12.7583 5.07505 13.0831 4.88281C13.4112 4.68726 13.7741 4.58949 14.1719 4.58949C14.5696 4.58949 14.9309 4.68726 15.2557 4.88281C15.5838 5.07505 15.844 5.33523 16.0362 5.66335C16.2318 5.98816 16.3295 6.34943 16.3295 6.74716C16.3295 7.14489 16.2318 7.50781 16.0362 7.83594C15.844 8.16075 15.5838 8.42093 15.2557 8.61648C14.9309 8.80871 14.5696 8.90483 14.1719 8.90483H13.0284V10.9034H14.1719C14.5696 10.9034 14.9309 11.0012 15.2557 11.1967C15.5838 11.3923 15.844 11.6541 16.0362 11.9822C16.2318 12.3104 16.3295 12.6733 16.3295 13.071C16.3295 13.4654 16.2318 13.8267 16.0362 14.1548C15.844 14.483 15.5838 14.7448 15.2557 14.9403C14.9309 15.1326 14.5696 15.2287 14.1719 15.2287C13.7741 15.2287 13.4112 15.1326 13.0831 14.9403C12.7583 14.7448 12.4981 14.483 12.3026 14.1548C12.1103 13.8267 12.0142 13.4654 12.0142 13.071V11.9176H10.0156V13.071C10.0156 13.4654 9.91785 13.8267 9.7223 14.1548C9.52675 14.483 9.26491 14.7448 8.93679 14.9403C8.60866 15.1326 8.24574 15.2287 7.84801 15.2287ZM7.84801 14.2145C8.06013 14.2145 8.25237 14.1631 8.42472 14.0604C8.60038 13.9576 8.73958 13.8201 8.84233 13.6477C8.94839 13.4721 9.00142 13.2798 9.00142 13.071V11.9176H7.84801C7.6392 11.9176 7.44697 11.9706 7.27131 12.0767C7.09896 12.1795 6.96141 12.3187 6.85866 12.4943C6.75592 12.6667 6.70455 12.8589 6.70455 13.071C6.70455 13.2798 6.75592 13.4721 6.85866 13.6477C6.96141 13.8201 7.09896 13.9576 7.27131 14.0604C7.44697 14.1631 7.6392 14.2145 7.84801 14.2145ZM7.84801 7.89062H9.00142V6.74716C9.00142 6.53504 8.94839 6.3428 8.84233 6.17045C8.73958 5.99811 8.60038 5.86056 8.42472 5.75781C8.25237 5.65507 8.06013 5.60369 7.84801 5.60369C7.6392 5.60369 7.44697 5.65507 7.27131 5.75781C7.09896 5.86056 6.96141 5.99811 6.85866 6.17045C6.75592 6.3428 6.70455 6.53504 6.70455 6.74716C6.70455 6.95928 6.75592 7.15317 6.85866 7.32883C6.96141 7.50118 7.09896 7.63873 7.27131 7.74148C7.44697 7.84091 7.6392 7.89062 7.84801 7.89062ZM13.0284 7.89062H14.1719C14.384 7.89062 14.5762 7.84091 14.7486 7.74148C14.9209 7.63873 15.0585 7.50118 15.1612 7.32883C15.264 7.15317 15.3153 6.95928 15.3153 6.74716C15.3153 6.53504 15.264 6.3428 15.1612 6.17045C15.0585 5.99811 14.9209 5.86056 14.7486 5.75781C14.5762 5.65507 14.384 5.60369 14.1719 5.60369C13.9598 5.60369 13.7659 5.65507 13.5902 5.75781C13.4179 5.86056 13.2803 5.99811 13.1776 6.17045C13.0781 6.3428 13.0284 6.53504 13.0284 6.74716V7.89062ZM14.1719 14.2145C14.384 14.2145 14.5762 14.1631 14.7486 14.0604C14.9209 13.9576 15.0585 13.8201 15.1612 13.6477C15.264 13.4721 15.3153 13.2798 15.3153 13.071C15.3153 12.8589 15.264 12.6667 15.1612 12.4943C15.0585 12.3187 14.9209 12.1795 14.7486 12.0767C14.5762 11.9706 14.384 11.9176 14.1719 11.9176H13.0284V13.071C13.0284 13.2798 13.0781 13.4721 13.1776 13.6477C13.2803 13.8201 13.4179 13.9576 13.5902 14.0604C13.7659 14.1631 13.9598 14.2145 14.1719 14.2145ZM10.0156 10.9034H12.0142V8.90483H10.0156V10.9034ZM19.2466 15V4.81818H25.3517V5.91193H20.4796V9.35227H24.8944V10.446H20.4796V15H19.2466Z" fill="#5E665E" />
  </g>
</svg>
