<svg width="20" height="20" viewBox="0 0 20 20" fill="none" xmlns="http://www.w3.org/2000/svg">
<path fill-rule="evenodd" clip-rule="evenodd" d="M10.0005 5C7.23904 5 5.00046 7.23858 5.00046 10C5.00046 12.7614 7.23904 15 10.0005 15C12.7619 15 15.0005 12.7614 15.0005 10C15.0005 7.23858 12.7619 5 10.0005 5ZM6.66713 10C6.66713 8.15906 8.15951 6.66667 10.0005 6.66667C11.8414 6.66667 13.3338 8.15906 13.3338 10C13.3338 11.841 11.8414 13.3333 10.0005 13.3333C8.15951 13.3333 6.66713 11.841 6.66713 10Z" fill="#98A298"/>
<path fill-rule="evenodd" clip-rule="evenodd" d="M12.0853 1.69076C10.9229 0.566216 9.07805 0.566216 7.91562 1.69076C7.62037 1.97638 7.20983 2.10977 6.80308 2.05224C5.20166 1.82573 3.70917 2.91009 3.42973 4.50312C3.35876 4.90774 3.10503 5.25697 2.74215 5.4495C1.31343 6.20754 0.743355 7.96207 1.45364 9.41511C1.63405 9.78417 1.63405 10.2158 1.45364 10.5849C0.743355 12.0379 1.31343 13.7925 2.74215 14.5505C3.10503 14.743 3.35876 15.0923 3.42973 15.4969C3.70917 17.0899 5.20166 18.1743 6.80308 17.9478C7.20983 17.8902 7.62037 18.0236 7.91562 18.3093C9.07805 19.4338 10.9229 19.4338 12.0853 18.3093C12.3806 18.0236 12.7911 17.8902 13.1978 17.9478C14.7993 18.1743 16.2917 17.0899 16.5712 15.4969C16.6422 15.0923 16.8959 14.743 17.2588 14.5505C18.6875 13.7925 19.2576 12.0379 18.5473 10.5849C18.3669 10.2158 18.3669 9.78417 18.5473 9.41511C19.2576 7.96207 18.6875 6.20754 17.2588 5.4495C16.8959 5.25697 16.6422 4.90774 16.5712 4.50312C16.2917 2.91009 14.7993 1.82573 13.1978 2.05224C12.7911 2.10977 12.3806 1.97638 12.0853 1.69076ZM9.07444 2.88863C9.59076 2.38915 10.4102 2.38915 10.9265 2.88863C11.5912 3.53169 12.5155 3.83201 13.4313 3.70248C14.1426 3.60187 14.8055 4.08351 14.9296 4.79108C15.0894 5.70205 15.6606 6.4883 16.4776 6.92177C17.1122 7.25847 17.3654 8.03777 17.0499 8.68316C16.6438 9.51408 16.6438 10.4859 17.0499 11.3168C17.3654 11.9622 17.1122 12.7415 16.4776 13.0782C15.6606 13.5117 15.0894 14.298 14.9296 15.2089C14.8055 15.9165 14.1426 16.3981 13.4313 16.2975C12.5155 16.168 11.5912 16.4683 10.9265 17.1114C10.4102 17.6109 9.59076 17.6109 9.07444 17.1114C8.40971 16.4683 7.48542 16.168 6.56966 16.2975C5.85837 16.3981 5.19545 15.9165 5.07134 15.2089C4.91154 14.298 4.3403 13.5117 3.5233 13.0782C2.88871 12.7415 2.6355 11.9622 2.95099 11.3168C3.35716 10.4859 3.35716 9.51408 2.95099 8.68316C2.6355 8.03777 2.88871 7.25847 3.5233 6.92177C4.3403 6.4883 4.91154 5.70205 5.07134 4.79108C5.19545 4.08351 5.85837 3.60187 6.56966 3.70248C7.48542 3.83201 8.40971 3.53169 9.07444 2.88863Z" fill="#98A298"/>
</svg>
