<svg width="20" height="20" viewBox="0 0 20 20" fill="none" xmlns="http://www.w3.org/2000/svg">
<path d="M6.24935 3.33335C6.70959 3.33335 7.08268 2.96026 7.08268 2.50002C7.08268 2.03978 6.70959 1.66669 6.24935 1.66669H4.99935C3.1584 1.66669 1.66602 3.15907 1.66602 5.00002V15C1.66602 16.841 3.1584 18.3334 4.99935 18.3334H6.24935C6.70959 18.3334 7.08268 17.9603 7.08268 17.5C7.08268 17.0398 6.70959 16.6667 6.24935 16.6667H4.99935C4.07887 16.6667 3.33268 15.9205 3.33268 15L3.33268 5.00002C3.33268 4.07955 4.07888 3.33335 4.99935 3.33335H6.24935Z" fill="#141714"/>
<path d="M18.9219 10.5893C19.2474 10.2638 19.2474 9.7362 18.9219 9.41077L15.5886 6.07743C15.2632 5.75199 14.7355 5.75199 14.4101 6.07743C14.0847 6.40287 14.0847 6.93051 14.4101 7.25594L16.3208 9.16669L6.66602 9.16669C6.20578 9.16669 5.83268 9.53978 5.83268 10C5.83268 10.4603 6.20578 10.8334 6.66602 10.8334L16.3208 10.8334L14.4101 12.7441C14.0847 13.0695 14.0847 13.5972 14.4101 13.9226C14.7355 14.248 15.2632 14.248 15.5886 13.9226L18.9219 10.5893Z" fill="#141714"/>
</svg>
