<svg width="20" height="20" viewBox="0 0 20 20" fill="none"
    xmlns="http://www.w3.org/2000/svg">
    <path d="M10.1181 8.45405C10.3533 8.27764 10.4097 7.94821 10.2466 7.70358C10.0527 7.41271 9.64115 7.37195 9.39396 7.61915L8.92389 8.08922C8.59845 8.41465 8.07082 8.41465 7.74538 8.08922C7.41994 7.76378 7.41994 7.23614 7.74538 6.9107L8.21545 6.44064C9.20634 5.44975 10.856 5.6131 11.6334 6.77908C12.2871 7.75971 12.0609 9.08024 11.1181 9.78739L11.0776 9.81773C10.9247 9.93245 10.8346 10.1125 10.8346 10.3037L10.8346 10.4166C10.8346 10.8769 10.4615 11.25 10.0013 11.25C9.54106 11.25 9.16797 10.8769 9.16797 10.4166L9.16797 10.3037C9.16797 9.58789 9.50498 8.91387 10.0776 8.4844L10.1181 8.45405Z" fill="#3E453E"/>
    <path d="M9.16797 12.9166C9.16797 13.3769 9.54106 13.75 10.0013 13.75C10.4615 13.75 10.8346 13.3769 10.8346 12.9166C10.8346 12.4564 10.4615 12.0833 10.0013 12.0833C9.54107 12.0833 9.16797 12.4564 9.16797 12.9166Z" fill="#3E453E"/>
    <path fill-rule="evenodd" clip-rule="evenodd" d="M1.66797 9.99996C1.66797 5.39759 5.39893 1.66663 10.0013 1.66663C14.6037 1.66663 18.3346 5.39759 18.3346 9.99996C18.3346 14.6023 14.6037 18.3333 10.0013 18.3333C5.39893 18.3333 1.66797 14.6023 1.66797 9.99996ZM10.0013 3.33329C6.3194 3.33329 3.33464 6.31806 3.33464 9.99996C3.33464 13.6819 6.3194 16.6666 10.0013 16.6666C13.6832 16.6666 16.668 13.6819 16.668 9.99996C16.668 6.31806 13.6832 3.33329 10.0013 3.33329Z" fill="#3E453E"/>
</svg>
