<svg width="49" height="46" viewBox="0 0 49 46" fill="none"
    xmlns="http://www.w3.org/2000/svg">
    <circle cx="22.2581" cy="23.742" r="22.2581" fill="#66CC66"/>
    <circle cx="26.7097" cy="22.2581" r="21.7581" stroke="#141714"/>
    <path fill-rule="evenodd" clip-rule="evenodd" d="M18.1769 15.8279H31.6564C33.2954 15.8279 34.6241 17.1566 34.6241 18.7957V19.8756C34.6241 20.4615 34.4507 21.0343 34.1257 21.5218L33.6009 22.3089C33.0102 23.1951 32.9395 24.3298 33.4158 25.2823L34.3108 27.0723C34.5168 27.4844 34.6241 27.9388 34.6241 28.3995L34.6241 28.6881C34.6241 30.3272 33.2954 31.6559 31.6564 31.6559H18.3015C16.6625 31.6559 15.3338 30.3272 15.3338 28.6882L15.3338 28.55C15.3338 27.9938 15.4901 27.4488 15.7849 26.9771L16.8238 25.3148C17.4253 24.3525 17.4253 23.1314 16.8238 22.169L15.6783 20.3361C15.4514 19.973 15.3063 19.5648 15.2532 19.1399C15.0333 17.3813 16.4046 15.8279 18.1769 15.8279ZM21.2693 18.3011C21.2693 17.7547 20.8264 17.3118 20.28 17.3118C19.7337 17.3118 19.2908 17.7547 19.2908 18.3011V20.2796C19.2908 20.8259 19.7337 21.2688 20.28 21.2688C20.8264 21.2688 21.2693 20.8259 21.2693 20.2796V18.3011ZM20.28 21.7634C20.8264 21.7634 21.2693 22.2063 21.2693 22.7527V24.7312C21.2693 25.2775 20.8264 25.7204 20.28 25.7204C19.7337 25.7204 19.2908 25.2775 19.2908 24.7312V22.7527C19.2908 22.2063 19.7337 21.7634 20.28 21.7634ZM21.2693 27.2043C21.2693 26.6579 20.8264 26.215 20.28 26.215C19.7337 26.215 19.2908 26.6579 19.2908 27.2043V29.1828C19.2908 29.7291 19.7337 30.172 20.28 30.172C20.8264 30.172 21.2693 29.7291 21.2693 29.1828V27.2043Z" fill="#141714"/>
</svg>
