<svg width="40" height="41" viewBox="0 0 40 41" fill="none" xmlns="http://www.w3.org/2000/svg">
<path d="M0.5 8.5C0.5 4.35786 3.85786 1 8 1H32C36.1421 1 39.5 4.35786 39.5 8.5V32.5C39.5 36.6421 36.1421 40 32 40H8C3.85786 40 0.5 36.6421 0.5 32.5V8.5Z" fill="#F7FAF7"/>
<path d="M0.5 8.5C0.5 4.35786 3.85786 1 8 1H32C36.1421 1 39.5 4.35786 39.5 8.5V32.5C39.5 36.6421 36.1421 40 32 40H8C3.85786 40 0.5 36.6421 0.5 32.5V8.5Z" stroke="#E7ECE7"/>
<path d="M16.6663 15.9167C16.6663 15.4564 16.2932 15.0833 15.8329 15.0833C15.3727 15.0833 14.9996 15.4564 14.9996 15.9167V17.5833C14.9996 18.0436 15.3727 18.4167 15.8329 18.4167C16.2932 18.4167 16.6663 18.0436 16.6663 17.5833V15.9167Z" fill="#5E665E"/>
<path d="M15.8329 18.8333C16.2932 18.8333 16.6663 19.2064 16.6663 19.6667V21.3333C16.6663 21.7936 16.2932 22.1667 15.8329 22.1667C15.3727 22.1667 14.9996 21.7936 14.9996 21.3333V19.6667C14.9996 19.2064 15.3727 18.8333 15.8329 18.8333Z" fill="#5E665E"/>
<path d="M16.6663 23.4167C16.6663 22.9564 16.2932 22.5833 15.8329 22.5833C15.3727 22.5833 14.9996 22.9564 14.9996 23.4167V25.0833C14.9996 25.5436 15.3727 25.9167 15.8329 25.9167C16.2932 25.9167 16.6663 25.5436 16.6663 25.0833V23.4167Z" fill="#5E665E"/>
<path fill-rule="evenodd" clip-rule="evenodd" d="M28.7496 24.6667L28.7496 24.4235C28.7496 23.906 28.6291 23.3956 28.3977 22.9328L27.6438 21.425C27.3763 20.89 27.416 20.2528 27.7477 19.7551L28.1898 19.0921C28.5548 18.5445 28.7496 17.9011 28.7496 17.2431V16.3333C28.7496 14.4924 27.2572 13 25.4163 13H14.0613C12.0671 13 10.5241 14.7479 10.7715 16.7267C10.8312 17.2048 10.9945 17.6641 11.2498 18.0727L12.2148 19.6167C12.5526 20.1571 12.5526 20.8429 12.2148 21.3833L11.3396 22.7837C11.0085 23.3134 10.8329 23.9256 10.8329 24.5503L10.8329 24.6667C10.8329 26.5076 12.3253 28 14.1663 28H25.4163C27.2572 28 28.7496 26.5076 28.7496 24.6667ZM27.0829 24.4235L27.0829 24.6667C27.0829 25.5871 26.3367 26.3333 25.4163 26.3333L14.1663 26.3333C13.2458 26.3333 12.4996 25.5871 12.4996 24.6667V24.5503C12.4996 24.238 12.5874 23.9319 12.7529 23.667L13.6281 22.2667C14.3037 21.1858 14.3037 19.8142 13.6281 18.7333L12.6631 17.1893C12.5361 16.9861 12.455 16.7577 12.4252 16.52C12.3022 15.5359 13.0696 14.6667 14.0613 14.6667L25.4163 14.6667C26.3367 14.6667 27.0829 15.4129 27.0829 16.3333V17.2431C27.0829 17.5721 26.9855 17.8938 26.803 18.1676L26.361 18.8306C25.6975 19.8259 25.6181 21.1004 26.1531 22.1703L26.907 23.6781C27.0227 23.9096 27.0829 24.1648 27.0829 24.4235Z" fill="#5E665E"/>
</svg>
