<svg width="49" height="48" viewBox="0 0 49 48" fill="none" xmlns="http://www.w3.org/2000/svg">
<path fill-rule="evenodd" clip-rule="evenodd" d="M10.249 8H37.5009C40.8146 8 43.5009 10.6863 43.5009 14V16.1834C43.5009 17.3679 43.1502 18.5259 42.4932 19.5115L41.4323 21.1029C40.238 22.8944 40.0951 25.1885 41.058 27.1143L42.8674 30.7331C43.284 31.5663 43.5009 32.4849 43.5009 33.4164L43.5009 34C43.5009 37.3137 40.8146 40 37.5009 40H10.5009C7.18718 40 4.50089 37.3137 4.50089 34L4.50089 33.7208C4.50089 32.5963 4.81691 31.4944 5.4129 30.5408L7.5134 27.18C8.72941 25.2344 8.72941 22.7656 7.51339 20.82L5.19738 17.1144C4.73857 16.3803 4.44527 15.555 4.3379 14.696C3.89345 11.1405 6.66581 8 10.249 8ZM16.5009 13C16.5009 11.8954 15.6055 11 14.5009 11C13.3963 11 12.5009 11.8954 12.5009 13V17C12.5009 18.1046 13.3963 19 14.5009 19C15.6055 19 16.5009 18.1046 16.5009 17V13ZM14.5009 20C15.6055 20 16.5009 20.8954 16.5009 22V26C16.5009 27.1046 15.6055 28 14.5009 28C13.3963 28 12.5009 27.1046 12.5009 26V22C12.5009 20.8954 13.3963 20 14.5009 20ZM16.5009 31C16.5009 29.8954 15.6055 29 14.5009 29C13.3963 29 12.5009 29.8954 12.5009 31V35C12.5009 36.1046 13.3963 37 14.5009 37C15.6055 37 16.5009 36.1046 16.5009 35V31Z" fill="url(#paint0_linear_433_25153)"/>
<defs>
<linearGradient id="paint0_linear_433_25153" x1="23.8959" y1="8" x2="35" y2="45.5" gradientUnits="userSpaceOnUse">
<stop stop-color="#46D146"/>
<stop offset="1" stop-color="#128F12"/>
</linearGradient>
</defs>
</svg>
