<svg width="32" height="33" viewBox="0 0 32 33" fill="none" xmlns="http://www.w3.org/2000/svg">
<path d="M10.6662 9.16667C10.6662 8.43029 10.0692 7.83333 9.33282 7.83333C8.59644 7.83333 7.99949 8.43029 7.99949 9.16667V11.8333C7.99949 12.5697 8.59644 13.1667 9.33282 13.1667C10.0692 13.1667 10.6662 12.5697 10.6662 11.8333V9.16667Z" fill="#06CC06"/>
<path d="M9.33282 13.8333C10.0692 13.8333 10.6662 14.4303 10.6662 15.1667V17.8333C10.6662 18.5697 10.0692 19.1667 9.33282 19.1667C8.59644 19.1667 7.99949 18.5697 7.99949 17.8333V15.1667C7.99949 14.4303 8.59644 13.8333 9.33282 13.8333Z" fill="#06CC06"/>
<path d="M10.6662 21.1667C10.6662 20.4303 10.0692 19.8333 9.33282 19.8333C8.59644 19.8333 7.99949 20.4303 7.99949 21.1667V23.8333C7.99949 24.5697 8.59644 25.1667 9.33282 25.1667C10.0692 25.1667 10.6662 24.5697 10.6662 23.8333V21.1667Z" fill="#06CC06"/>
<path fill-rule="evenodd" clip-rule="evenodd" d="M29.9995 23.1667L29.9995 22.7776C29.9995 21.9496 29.8067 21.133 29.4364 20.3925L28.2302 17.9799C27.8022 17.124 27.8657 16.1044 28.3965 15.3082L29.1037 14.2473C29.6878 13.3712 29.9995 12.3418 29.9995 11.2889V9.83333C29.9995 6.88782 27.6117 4.5 24.6661 4.5H6.49823C3.30744 4.5 0.838681 7.29657 1.23445 10.4627C1.33006 11.2276 1.59125 11.9625 1.99982 12.6163L3.54382 15.0867C4.08427 15.9514 4.08427 17.0486 3.54382 17.9133L2.1435 20.1539C1.61372 21.0015 1.33282 21.9809 1.33282 22.9805V23.1667C1.33282 26.1122 3.72063 28.5 6.66615 28.5H24.6661C27.6117 28.5 29.9995 26.1122 29.9995 23.1667ZM27.3328 22.7776L27.3328 23.1667C27.3328 24.6394 26.1389 25.8333 24.6661 25.8333L6.66615 25.8333C5.19339 25.8333 3.99948 24.6394 3.99949 23.1667V22.9805C3.99949 22.4807 4.13994 21.991 4.40482 21.5672L5.80515 19.3267C6.88605 17.5972 6.88605 15.4028 5.80515 13.6733L4.26114 11.2029C4.05796 10.8778 3.92807 10.5124 3.88052 10.132C3.68371 8.55741 4.91143 7.16667 6.49823 7.16667L24.6661 7.16667C26.1389 7.16667 27.3328 8.36057 27.3328 9.83333V11.2889C27.3328 11.8154 27.177 12.3301 26.8849 12.7681L26.1777 13.829C25.1161 15.4214 24.9891 17.4607 25.845 19.1725L27.0513 21.585C27.2364 21.9553 27.3328 22.3636 27.3328 22.7776Z" fill="#06CC06"/>
</svg>
