<svg width="56" height="56" viewBox="0 0 56 56" fill="none"
    xmlns="http://www.w3.org/2000/svg">
    <rect x="4" y="4" width="48" height="48" rx="24" fill="#E1EDFA"/>
    <rect x="4" y="4" width="48" height="48" rx="24" stroke="#F4F9FF" stroke-width="8"/>
    <path fill-rule="evenodd" clip-rule="evenodd" d="M28.4689 22.1102C29.9411 22.1102 31.1346 23.3037 31.1346 24.7759C31.1346 26.2481 29.9411 27.4415 28.4689 27.4415C26.9967 27.4415 25.8033 26.2481 25.8033 24.7759C25.8033 23.3037 26.9967 22.1102 28.4689 22.1102ZM29.1346 24.7759C29.1346 24.4082 28.8366 24.1102 28.4689 24.1102C28.1013 24.1102 27.8033 24.4082 27.8033 24.7759C27.8033 25.1435 28.1013 25.4415 28.4689 25.4415C28.8366 25.4415 29.1346 25.1435 29.1346 24.7759Z" fill="#0662CC"/>
    <path fill-rule="evenodd" clip-rule="evenodd" d="M19.1406 21.946C19.1406 19.7369 20.9315 17.946 23.1406 17.946H33.7972C36.0064 17.946 37.7972 19.7369 37.7972 21.946V27.6057C37.7972 28.1507 37.6883 28.6702 37.4909 29.1436L37.2107 31.2035C37.0998 32.0186 36.7538 32.7364 36.254 33.304C36.2408 33.3454 36.2247 33.3863 36.2056 33.4267L35.258 35.4353C34.1919 37.6951 31.3378 38.4351 29.3079 36.9781L20.7181 30.8124C20.6458 30.7605 20.5824 30.7007 20.5284 30.635C19.6785 29.9015 19.1406 28.8164 19.1406 27.6057V21.946ZM33.7972 31.6057C34.2586 31.6057 34.7017 31.5276 35.1141 31.3839C34.751 32.3303 33.7067 32.8826 32.6856 32.5839L29.3419 31.6057H33.7972ZM21.8404 20.4263C21.4121 20.7931 21.1406 21.3379 21.1406 21.946V27.6057C21.1406 28.2138 21.4121 28.7586 21.8404 29.1254C21.714 28.958 21.6391 28.7495 21.6391 28.5236C21.6391 27.9713 22.0868 27.5236 22.6391 27.5236H24.3048C24.8571 27.5236 25.3048 27.9713 25.3048 28.5236C25.3048 29.0759 24.8571 29.5236 24.3048 29.5236H22.6391C22.6131 29.5236 22.5874 29.5226 22.5619 29.5207C22.7451 29.576 22.9394 29.6057 23.1406 29.6057H33.7972C33.9985 29.6057 34.1928 29.576 34.376 29.5207C34.3505 29.5226 34.3247 29.5236 34.2988 29.5236H32.6331C32.0808 29.5236 31.6331 29.0759 31.6331 28.5236C31.6331 27.9713 32.0808 27.5236 32.6331 27.5236H34.2988C34.851 27.5236 35.2988 27.9713 35.2988 28.5236C35.2988 28.7495 35.2238 28.958 35.0975 29.1254C35.5258 28.7586 35.7972 28.2138 35.7972 27.6057V21.946C35.7972 21.3379 35.5258 20.7931 35.0975 20.4263C35.2238 20.5938 35.2988 20.8022 35.2988 21.0281C35.2988 21.5804 34.851 22.0281 34.2988 22.0281H32.6331C32.0808 22.0281 31.6331 21.5804 31.6331 21.0281C31.6331 20.4758 32.0808 20.0281 32.6331 20.0281H34.2988C34.3247 20.0281 34.3505 20.0291 34.376 20.0311C34.1928 19.9758 33.9985 19.946 33.7972 19.946H23.1406C22.9394 19.946 22.7451 19.9758 22.5619 20.0311C22.5874 20.0291 22.6131 20.0281 22.6391 20.0281H24.3048C24.8571 20.0281 25.3048 20.4758 25.3048 21.0281C25.3048 21.5804 24.8571 22.0281 24.3048 22.0281H22.6391C22.0868 22.0281 21.6391 21.5804 21.6391 21.0281C21.6391 20.8022 21.714 20.5938 21.8404 20.4263ZM33.4088 34.6629C32.9873 34.6797 32.5546 34.6294 32.1241 34.5034L27.3405 33.104L30.4742 35.3533C31.4644 36.0641 32.847 35.7291 33.4088 34.6629Z" fill="#0662CC"/>
</svg>
