<svg width="42" height="41" viewBox="0 0 42 41" fill="none" xmlns="http://www.w3.org/2000/svg">
<g id="Layer 2">
<g id="Layer 1">
<path id="Vector" d="M40.273 8.89967C40.3503 9.13166 40.4998 9.33285 40.6996 9.4739C40.8994 9.61494 41.139 9.68845 41.3835 9.6837H41.4001V10.9053H41.3835C41.1398 10.9002 40.9009 10.9729 40.7013 11.1126C40.5016 11.2524 40.3516 11.452 40.273 11.6826C40.213 11.8589 40.196 12.0469 40.2234 12.2311C40.2508 12.4152 40.3217 12.5902 40.4304 12.7414C40.539 12.8926 40.6821 13.0157 40.8479 13.1004C41.0137 13.1851 41.1973 13.229 41.3835 13.2285H41.4001V14.4501H41.3835C41.1392 14.4454 40.8997 14.5188 40.7 14.6596C40.5003 14.8005 40.3507 15.0013 40.273 15.233C40.213 15.4093 40.196 15.5973 40.2234 15.7814C40.2508 15.9656 40.3217 16.1405 40.4304 16.2917C40.539 16.4429 40.6821 16.566 40.8479 16.6507C41.0137 16.7355 41.1973 16.7794 41.3835 16.7788H41.4001V17.6939H41.3835C40.9797 17.6942 40.5925 17.8547 40.3068 18.1401C40.0212 18.4255 39.8604 18.8126 39.8598 19.2164H32.7525C31.8156 19.2163 30.8879 19.0315 30.0224 18.6727C29.157 18.3139 28.3707 17.7881 27.7085 17.1253C27.7085 17.1253 18.8565 7.67476 15.5249 4.94287H27.704H39.8898C39.8898 5.3438 40.0479 5.72856 40.3299 6.01361C40.6118 6.29867 40.9948 6.46101 41.3957 6.4654V7.34494H41.379C41.1921 7.34436 41.0077 7.38866 40.8415 7.4741C40.6752 7.55954 40.5319 7.68364 40.4235 7.83596C40.3151 7.98828 40.2449 8.16439 40.2187 8.34948C40.1925 8.53458 40.2111 8.72326 40.273 8.89967Z" fill="url(#paint0_linear_2345_12205)"/>
<path id="Vector_2" d="M28.1883 24.2437V39.2358C27.7905 39.2358 27.4084 39.3917 27.1242 39.6701C26.8399 39.9485 26.6762 40.3273 26.668 40.725H25.7863C25.7863 40.4158 25.6634 40.1192 25.4448 39.9005C25.2261 39.6819 24.9295 39.559 24.6202 39.559C24.311 39.559 24.0144 39.6819 23.7957 39.9005C23.577 40.1192 23.4542 40.4158 23.4542 40.725H22.2326C22.2326 40.4158 22.1098 40.1192 21.8911 39.9005C21.6724 39.6819 21.3758 39.559 21.0666 39.559C20.7573 39.559 20.4607 39.6819 20.242 39.9005C20.0234 40.1192 19.9005 40.4158 19.9005 40.725H18.6789C18.6789 40.4158 18.5561 40.1192 18.3374 39.9005C18.1187 39.6819 17.8221 39.559 17.5129 39.559C17.2036 39.559 16.907 39.6819 16.6883 39.9005C16.4697 40.1192 16.3468 40.4158 16.3468 40.725H15.4384C15.4387 40.5252 15.3996 40.3272 15.3232 40.1425C15.2468 39.9578 15.1348 39.7899 14.9935 39.6486C14.8521 39.5073 14.6843 39.3952 14.4996 39.3188C14.3148 39.2425 14.1169 39.2033 13.917 39.2036V19.1964H26.0995H26.105C27.4398 20.537 28.1889 22.352 28.1883 24.2437Z" fill="url(#paint1_linear_2345_12205)"/>
<path id="Vector_3" d="M1.34686 15.2485C1.26874 15.017 1.11908 14.8163 0.919472 14.6754C0.719866 14.5345 0.480645 14.4606 0.236337 14.4645H0.224121V13.2429H0.240779C0.485165 13.2471 0.724546 13.1734 0.92422 13.0324C1.12389 12.8915 1.27348 12.6906 1.3513 12.4589C1.41124 12.2826 1.42823 12.0946 1.40085 11.9104C1.37347 11.7263 1.30252 11.5513 1.1939 11.4001C1.08528 11.2489 0.942122 11.1258 0.776343 11.0411C0.610564 10.9564 0.426952 10.9125 0.240779 10.913H0.224121V9.69145H0.240779C0.485087 9.69533 0.724308 9.62148 0.923914 9.48055C1.12352 9.33963 1.27318 9.13893 1.3513 8.90742C1.41124 8.73115 1.42823 8.54313 1.40085 8.35898C1.37347 8.17483 1.30252 7.99988 1.1939 7.84867C1.08528 7.69747 0.942122 7.57439 0.776343 7.48967C0.610564 7.40494 0.426952 7.36102 0.240779 7.36156H0.224121V6.44427H0.240779C0.440575 6.44427 0.638414 6.40492 0.823001 6.32846C1.00759 6.252 1.17531 6.13993 1.31658 5.99866C1.45786 5.85738 1.56993 5.68966 1.64639 5.50507C1.72285 5.32049 1.7622 5.12265 1.7622 4.92285H8.86956C9.80668 4.92262 10.7346 5.1072 11.6003 5.46602C12.4661 5.82484 13.2525 6.35086 13.9147 7.01397C13.9147 7.01397 22.7678 16.4645 26.0994 19.1975C26.6516 19.7515 27.1092 20.3923 27.4542 21.0943C26.6435 19.8727 25.0866 19.2197 22.4113 19.1998C22.3658 19.1998 22.3202 19.1998 22.2736 19.1998H13.9147H1.72999C1.73089 18.7984 1.57313 18.4129 1.29106 18.1273C1.009 17.8417 0.625504 17.6791 0.224121 17.675L0.224121 16.7944H0.240779C0.426577 16.7942 0.609662 16.7498 0.774864 16.6647C0.940067 16.5797 1.08263 16.4565 1.19075 16.3054C1.29886 16.1543 1.36942 15.9797 1.39657 15.7959C1.42372 15.612 1.40668 15.4244 1.34686 15.2485Z" fill="url(#paint2_linear_2345_12205)"/>
</g>
</g>
<defs>
<linearGradient id="paint0_linear_2345_12205" x1="21.4074" y1="11.9581" x2="36.0952" y2="12.088" gradientUnits="userSpaceOnUse">
<stop stop-color="#CCFFCC"/>
<stop offset="0.21" stop-color="#A3FFA3"/>
<stop offset="0.38" stop-color="#89FF89"/>
<stop offset="0.48" stop-color="#80FF80"/>
<stop offset="0.8" stop-color="#47D96B"/>
<stop offset="0.96" stop-color="#30C963"/>
</linearGradient>
<linearGradient id="paint1_linear_2345_12205" x1="21.0521" y1="39.0815" x2="21.0521" y2="15.4828" gradientUnits="userSpaceOnUse">
<stop offset="0.11" stop-color="#30C963"/>
<stop offset="0.23" stop-color="#2AAE56"/>
<stop offset="0.46" stop-color="#208340"/>
<stop offset="0.65" stop-color="#186330"/>
<stop offset="0.82" stop-color="#145026"/>
<stop offset="0.94" stop-color="#124923"/>
</linearGradient>
<linearGradient id="paint2_linear_2345_12205" x1="21.2619" y1="13.0363" x2="5.80007" y2="12.9009" gradientUnits="userSpaceOnUse">
<stop stop-color="#B8FFB8"/>
<stop offset="0.02" stop-color="#B4FFB4"/>
<stop offset="0.2" stop-color="#97FF97"/>
<stop offset="0.36" stop-color="#86FF86"/>
<stop offset="0.48" stop-color="#80FF80"/>
<stop offset="0.57" stop-color="#6CF279"/>
<stop offset="0.75" stop-color="#4BDB6D"/>
<stop offset="0.9" stop-color="#37CE66"/>
<stop offset="1" stop-color="#30C963"/>
</linearGradient>
</defs>
</svg>
