<svg width="1512" height="866" viewBox="0 0 1512 866" fill="none" xmlns="http://www.w3.org/2000/svg">
<path d="M161.582 -196.93C172.332 -207.68 172.424 -225.27 160.399 -234.57C130.827 -257.44 95.6994 -272.363 58.3782 -277.662C11.9315 -284.256 -35.4007 -275.587 -76.4953 -252.959C-117.59 -230.331 -150.224 -194.969 -169.486 -152.193C-188.748 -109.417 -193.597 -61.5428 -183.301 -15.7738C-173.006 29.9952 -148.125 71.1825 -112.401 101.59C-76.6775 131.997 -32.0444 149.98 14.7815 152.831C61.6073 155.683 108.093 143.249 147.242 117.401C178.699 96.6311 204.053 68.1035 220.984 34.774C227.869 21.2205 220.253 5.36371 205.936 0.252634C191.619 -4.85844 176.064 2.76758 168.599 16.0099C156.077 38.2196 138.404 57.268 116.91 71.4596C87.7141 90.7357 53.0478 100.008 18.1276 97.8818C-16.7927 95.7554 -50.0777 82.345 -76.7185 59.6687C-103.359 36.9925 -121.915 6.27718 -129.592 -27.8549C-137.27 -61.987 -133.654 -97.6894 -119.289 -129.589C-104.925 -161.489 -80.5881 -187.861 -49.9418 -204.735C-19.2956 -221.61 16.0022 -228.075 50.6397 -223.157C76.1407 -219.537 100.268 -209.89 121.094 -195.182C133.511 -186.412 150.833 -186.181 161.582 -196.93Z" fill="#06CC06"/>
<path d="M122.09 174.909C111.34 185.658 111.248 203.249 123.273 212.549C152.846 235.418 187.973 250.341 225.294 255.64C271.741 262.235 319.073 253.566 360.167 230.938C401.262 208.31 433.896 172.947 453.158 130.171C472.42 87.3958 477.269 39.5212 466.974 -6.24781C456.679 -52.0168 431.797 -93.2041 396.073 -123.612C360.35 -154.019 315.717 -172.001 268.891 -174.853C222.065 -177.704 175.58 -165.27 136.43 -139.422C104.973 -118.653 79.6194 -90.1251 62.6883 -56.7956C55.8033 -43.2422 63.4193 -27.3854 77.7363 -22.2743C92.0533 -17.1632 107.608 -24.7892 115.074 -38.0316C127.595 -60.2413 145.268 -79.2897 166.763 -93.4812C195.958 -112.757 230.624 -122.03 265.545 -119.903C300.465 -117.777 333.75 -104.367 360.391 -81.6904C387.032 -59.0141 405.587 -28.2988 413.264 5.83331C420.942 39.9654 417.326 75.6678 402.962 107.568C388.597 139.467 364.26 165.839 333.614 182.714C302.968 199.588 267.67 206.053 233.032 201.135C207.531 197.515 183.404 187.869 162.578 173.16C150.161 164.39 132.839 164.159 122.09 174.909Z" fill="#06CC06"/>
<path d="M823.476 0.0508683C834.226 -10.6985 834.318 -28.2893 822.293 -37.5891C792.721 -60.4583 757.593 -75.3817 720.272 -80.6805C673.826 -87.275 626.493 -78.606 585.399 -55.9781C544.304 -33.3502 511.67 2.0124 492.408 44.7881C473.146 87.5638 468.297 135.438 478.593 181.207C488.888 226.976 513.769 268.164 549.493 298.571C585.217 328.979 629.85 346.961 676.676 349.812C723.501 352.664 769.987 340.23 809.136 314.382C840.593 293.612 865.947 265.085 882.878 231.755C889.763 218.202 882.147 202.345 867.83 197.234C853.513 192.123 837.959 199.749 830.493 212.991C817.971 235.201 800.298 254.249 778.804 268.441C749.608 287.717 714.942 296.989 680.022 294.863C645.101 292.737 611.816 279.326 585.176 256.65C558.535 233.974 539.979 203.258 532.302 169.126C524.624 134.994 528.24 99.2918 542.605 67.3919C556.969 35.4921 581.306 9.12053 611.952 -7.75416C642.598 -24.6288 677.896 -31.0937 712.534 -26.1759C738.035 -22.5553 762.162 -12.9093 782.988 1.79936C795.405 10.5693 812.727 10.8003 823.476 0.0508683Z" fill="#06CC06"/>
<path d="M1248.25 -370.572C1259 -381.322 1259.09 -398.913 1247.06 -408.212C1217.49 -431.082 1182.36 -446.005 1145.04 -451.304C1098.6 -457.898 1051.26 -449.229 1010.17 -426.601C969.074 -403.973 936.44 -368.611 917.178 -325.835C897.916 -283.06 893.067 -235.185 903.363 -189.416C913.658 -143.647 938.539 -102.46 974.263 -72.0522C1009.99 -41.6448 1054.62 -23.6623 1101.45 -20.8109C1148.27 -17.9594 1194.76 -30.3933 1233.91 -56.2414C1265.36 -77.011 1290.72 -105.539 1307.65 -138.868C1314.53 -152.422 1306.92 -168.278 1292.6 -173.389C1278.28 -178.501 1262.73 -170.875 1255.26 -157.632C1242.74 -135.422 1225.07 -116.374 1203.57 -102.183C1174.38 -82.9064 1139.71 -73.6338 1104.79 -75.7603C1069.87 -77.8867 1036.59 -91.2971 1009.95 -113.973C983.305 -136.65 964.749 -167.365 957.072 -201.497C949.394 -235.629 953.01 -271.331 967.375 -303.231C981.739 -335.131 1006.08 -361.503 1036.72 -378.377C1067.37 -395.252 1102.67 -401.717 1137.3 -396.799C1162.8 -393.179 1186.93 -383.533 1207.76 -368.824C1220.18 -360.054 1237.5 -359.823 1248.25 -370.572Z" fill="#06CC06"/>
<path d="M783.984 371.89C773.234 382.639 773.142 400.23 785.167 409.53C814.74 432.399 849.867 447.323 887.188 452.621C933.635 459.216 980.967 450.547 1022.06 427.919C1063.16 405.291 1095.79 369.929 1115.05 327.153C1134.31 284.377 1139.16 236.503 1128.87 190.734C1118.57 144.965 1093.69 103.777 1057.97 73.3698C1022.24 42.9624 977.611 24.9799 930.785 22.1285C883.959 19.277 837.474 31.7109 798.324 57.559C766.867 78.3286 741.513 106.856 724.582 140.186C717.697 153.739 725.313 169.596 739.63 174.707C753.947 179.818 769.502 172.192 776.968 158.95C789.489 136.74 807.162 117.692 828.657 103.5C857.852 84.224 892.518 74.9514 927.439 77.0779C962.359 79.2043 995.644 92.6147 1022.28 115.291C1048.93 137.967 1067.48 168.683 1075.16 202.815C1082.84 236.947 1079.22 272.649 1064.86 304.549C1050.49 336.449 1026.15 362.82 995.508 379.695C964.862 396.57 929.564 403.035 894.926 398.117C869.425 394.496 845.298 384.85 824.472 370.142C812.055 361.372 794.733 361.141 783.984 371.89Z" fill="#06CC06"/>
<path d="M1208.75 1.26684C1198 12.0163 1197.91 29.607 1209.94 38.9068C1239.51 61.7761 1274.64 76.6994 1311.96 81.9982C1358.41 88.5927 1405.74 79.9237 1446.83 57.2958C1487.93 34.6679 1520.56 -0.694661 1539.82 -43.4703C1559.08 -86.246 1563.93 -134.121 1553.64 -179.89C1543.34 -225.659 1518.46 -266.846 1482.74 -297.253C1447.01 -327.661 1402.38 -345.643 1355.56 -348.495C1308.73 -351.346 1262.24 -338.912 1223.09 -313.064C1191.64 -292.295 1166.28 -263.767 1149.35 -230.437C1142.47 -216.884 1150.08 -201.027 1164.4 -195.916C1178.72 -190.805 1194.27 -198.431 1201.74 -211.673C1214.26 -233.883 1231.93 -252.932 1253.43 -267.123C1282.62 -286.399 1317.29 -295.672 1352.21 -293.545C1387.13 -291.419 1420.41 -278.008 1447.06 -255.332C1473.7 -232.656 1492.25 -201.941 1499.93 -167.809C1507.61 -133.676 1503.99 -97.9741 1489.63 -66.0742C1475.26 -34.1744 1450.92 -7.8028 1420.28 9.07189C1389.63 25.9466 1354.33 32.4114 1319.7 27.4936C1294.2 23.873 1270.07 14.227 1249.24 -0.481646C1236.83 -9.25154 1219.5 -9.48257 1208.75 1.26684Z" fill="#06CC06"/>
</svg>
