<svg width="24" height="24" viewBox="0 0 24 24" fill="none"
    xmlns="http://www.w3.org/2000/svg">
    <rect width="24" height="24" rx="12" fill="#E7ECE7"/>
    <path fill-rule="evenodd" clip-rule="evenodd" d="M6.90658 5.51872C6.02177 5.09739 5 5.74253 5 6.72253V14.4756C5 15.247 5.44365 15.9497 6.14013 16.2813L9.18004 17.7289C9.29374 17.783 9.42043 17.8039 9.54548 17.789L14.4207 17.2086L17.0934 18.4813C17.9782 18.9026 19 18.2575 19 17.2775V9.52442C19 8.753 18.5563 8.05036 17.8599 7.7187L14.82 6.27112C14.7089 6.21826 14.5855 6.19713 14.4632 6.21007L11.6132 6.51165C11.6066 6.51235 11.6 6.51314 11.5935 6.51404L9.57379 6.78882L6.90658 5.51872ZM17.6667 17.2775L15.2 16.1029V7.92888L17.2866 8.92251C17.5188 9.03307 17.6667 9.26728 17.6667 9.52442V17.2775ZM13.8667 15.9318V7.61397L11.7634 7.83654L10.1333 8.05831V16.3763L13.8667 15.9318ZM6.33333 6.72253L8.8 7.89714V16.0711L6.71338 15.0775C6.48122 14.967 6.33333 14.7327 6.33333 14.4756V6.72253Z" fill="#141714"/>
</svg>
