<svg width="20" height="20" viewBox="0 0 20 20" fill="none"
    xmlns="http://www.w3.org/2000/svg">
    <path d="M6.667 5.41667C6.667 4.95643 6.2939 4.58333 5.83367 4.58333C5.37343 4.58333 5.00033 4.95643 5.00033 5.41667V7.08333C5.00033 7.54357 5.37343 7.91667 5.83367 7.91667C6.2939 7.91667 6.667 7.54357 6.667 7.08333V5.41667Z" fill="#3E453E"/>
    <path d="M5.83367 8.33333C6.2939 8.33333 6.667 8.70643 6.667 9.16667V10.8333C6.667 11.2936 6.2939 11.6667 5.83367 11.6667C5.37343 11.6667 5.00033 11.2936 5.00033 10.8333V9.16667C5.00033 8.70643 5.37343 8.33333 5.83367 8.33333Z" fill="#3E453E"/>
    <path d="M6.667 12.9167C6.667 12.4564 6.2939 12.0833 5.83367 12.0833C5.37343 12.0833 5.00033 12.4564 5.00033 12.9167V14.5833C5.00033 15.0436 5.37343 15.4167 5.83367 15.4167C6.2939 15.4167 6.667 15.0436 6.667 14.5833V12.9167Z" fill="#3E453E"/>
    <path fill-rule="evenodd" clip-rule="evenodd" d="M18.7503 14.1667L18.7503 13.9235C18.7503 13.406 18.6298 12.8956 18.3984 12.4328L17.6445 10.925C17.377 10.39 17.4167 9.75275 17.7485 9.25511L18.1905 8.59206C18.5555 8.0445 18.7503 7.40114 18.7503 6.74306V5.83333C18.7503 3.99239 17.2579 2.5 15.417 2.5H4.06205C2.0678 2.5 0.52483 4.24785 0.772184 6.2267C0.831945 6.70478 0.995184 7.16409 1.25054 7.57266L2.21554 9.11667C2.55333 9.65712 2.55333 10.3429 2.21554 10.8833L1.34034 12.2837C1.00923 12.8134 0.833666 13.4256 0.833666 14.0503L0.833666 14.1667C0.833666 16.0076 2.32605 17.5 4.167 17.5H15.417C17.2579 17.5 18.7503 16.0076 18.7503 14.1667ZM17.0837 13.9235L17.0837 14.1667C17.0837 15.0871 16.3375 15.8333 15.417 15.8333L4.167 15.8333C3.24652 15.8333 2.50033 15.0871 2.50033 14.1667V14.0503C2.50033 13.738 2.58812 13.4319 2.75367 13.167L3.62887 11.7667C4.30444 10.6858 4.30444 9.31424 3.62887 8.23334L2.66387 6.68933C2.53688 6.48615 2.4557 6.25773 2.42598 6.01998C2.30297 5.03588 3.0703 4.16667 4.06205 4.16667L15.417 4.16667C16.3375 4.16667 17.0837 4.91286 17.0837 5.83333V6.74306C17.0837 7.07211 16.9863 7.39378 16.8037 7.66756L16.3617 8.33061C15.6982 9.3259 15.6188 10.6004 16.1538 11.6703L16.9077 13.1781C17.0234 13.4096 17.0837 13.6648 17.0837 13.9235Z" fill="#3E453E"/>
</svg>
