<svg width="150" height="150" viewBox="0 0 150 150" fill="none" xmlns="http://www.w3.org/2000/svg">
<path d="M74.999 128.201C103.318 128.201 126.275 119.196 126.275 108.086C126.275 96.9769 103.318 87.9709 74.999 87.9709C46.6799 87.9709 23.7227 96.9769 23.7227 108.086C23.7227 119.196 46.6799 128.201 74.999 128.201Z" fill="#F9FAFB"/>
<path d="M109.463 99.4402L111.558 102.783L101.971 104.454L99.875 101.111L109.463 99.4402Z" fill="#D0D5DD"/>
<path d="M101.971 104.743C101.872 104.743 101.779 104.693 101.726 104.607L99.6302 101.264C99.5788 101.182 99.5719 101.08 99.6108 100.993C99.6497 100.905 99.7302 100.843 99.8247 100.826L109.412 99.1554C109.529 99.1345 109.644 99.1873 109.707 99.2859L111.802 102.629C111.854 102.711 111.861 102.812 111.822 102.9C111.783 102.987 111.702 103.05 111.608 103.066L102.021 104.737C102.004 104.741 101.987 104.743 101.971 104.743ZM100.348 101.322L102.112 104.136L111.086 102.572L109.322 99.7582L100.348 101.322Z" fill="#F9FAFB"/>
<path d="M110.561 64.5791L109.753 71.2166C108.592 80.7541 108.493 90.2374 109.464 99.4416L99.875 101.111L104.046 86.8485L110.561 64.5791Z" fill="#98A2B3"/>
<path d="M99.8751 101.4C99.7932 101.4 99.7154 101.365 99.6599 101.304C99.5932 101.229 99.5696 101.126 99.5974 101.03L110.283 64.4985C110.325 64.354 110.472 64.2665 110.62 64.2971C110.767 64.3276 110.867 64.4651 110.849 64.6151L110.04 71.2526C108.882 80.7638 108.785 90.2374 109.752 99.4124C109.768 99.5638 109.664 99.7012 109.514 99.7276L99.9265 101.398C99.9085 101.398 99.8918 101.4 99.8751 101.4ZM109.847 68.0471L100.282 100.747L109.147 99.2026C108.206 90.0679 108.313 80.6429 109.465 71.1818L109.847 68.0471Z" fill="#F9FAFB"/>
<path d="M112.657 67.9222L110.562 64.5791L109.753 71.2166C108.592 80.7541 108.494 90.2374 109.464 99.4416L111.56 102.785C110.591 93.5805 110.688 84.0985 111.849 74.5597L112.657 67.9222Z" fill="#D0D5DD"/>
<path d="M111.559 103.072C111.462 103.072 111.369 103.022 111.315 102.936L109.219 99.593C109.195 99.5555 109.181 99.5139 109.176 99.4694C108.205 90.2514 108.302 80.7333 109.466 71.1792L110.274 64.5417C110.29 64.4208 110.378 64.3208 110.498 64.2944C110.617 64.2681 110.741 64.3194 110.805 64.4236L112.901 67.7667C112.935 67.8222 112.951 67.8889 112.942 67.9555L112.134 74.593C110.976 84.1042 110.878 93.5778 111.845 102.753C111.859 102.886 111.78 103.012 111.652 103.056C111.623 103.068 111.591 103.072 111.559 103.072ZM109.744 99.3444L111.148 101.586C110.31 92.7528 110.449 83.6542 111.56 74.525L112.356 67.9889L110.748 65.4236L110.038 71.2514C108.884 80.7389 108.785 90.1903 109.744 99.3444Z" fill="#F9FAFB"/>
<path d="M98.5658 105.59L100.662 108.933H98.2033L96.1074 105.59H98.5658Z" fill="#D0D5DD"/>
<path d="M100.661 109.222H98.2045C98.1045 109.222 98.0128 109.171 97.96 109.086L95.8642 105.743C95.8086 105.654 95.8058 105.542 95.8558 105.45C95.9072 105.358 96.0031 105.301 96.1086 105.301H98.5656C98.6656 105.301 98.7572 105.353 98.81 105.437L100.906 108.78C100.961 108.869 100.964 108.982 100.914 109.073C100.863 109.165 100.766 109.222 100.661 109.222ZM98.3628 108.644H100.139L98.4058 105.879H96.6308L98.3628 108.644Z" fill="#F9FAFB"/>
<path d="M111.123 62.6609L110.562 64.5789L104.047 86.8484L99.8761 101.111L98.5664 105.59L100.662 108.933L101.972 104.454L106.143 90.1914L112.658 67.922L113.219 66.0039L111.123 62.6609Z" fill="#D0D5DD"/>
<path d="M100.662 109.222C100.563 109.222 100.47 109.172 100.417 109.086L98.3214 105.743C98.2769 105.674 98.2658 105.587 98.2894 105.508L110.846 62.5791C110.878 62.4693 110.971 62.3902 111.084 62.3735C111.196 62.3582 111.307 62.4096 111.369 62.5068L113.464 65.8499C113.509 65.9193 113.52 66.0055 113.496 66.0846L100.938 109.014C100.906 109.124 100.813 109.203 100.701 109.219C100.688 109.221 100.674 109.222 100.662 109.222ZM98.8797 105.546L100.564 108.235L112.905 66.0471L111.22 63.3582L98.8797 105.546Z" fill="#F9FAFB"/>
<path d="M111.123 62.6609L110.562 64.5789L104.046 86.8484L99.8755 101.111L98.5658 105.59H96.1074L100.752 89.7178L108.666 62.6609H111.123Z" fill="#98A2B3"/>
<path d="M98.5656 105.879H96.1087C96.017 105.879 95.9323 105.836 95.8781 105.764C95.824 105.692 95.8059 105.597 95.8323 105.51L100.475 89.6374L108.389 62.5804C108.425 62.4568 108.538 62.3721 108.667 62.3721H111.124C111.216 62.3721 111.3 62.4151 111.355 62.4874C111.409 62.5596 111.427 62.654 111.4 62.7415L98.8434 105.671C98.8073 105.794 98.6934 105.879 98.5656 105.879ZM96.4934 105.301H98.349L110.738 62.9498H108.882L101.028 89.7985L96.4934 105.301Z" fill="#F9FAFB"/>
<path d="M66.7514 44.3528C66.7528 44.325 66.7528 44.2973 66.7528 44.2695C66.7528 44.2528 66.7514 44.2375 66.75 44.2223C66.7486 44.1973 66.7472 44.1736 66.7444 44.15C66.7431 44.1334 66.7403 44.1167 66.7375 44.1C66.7361 44.0848 66.7347 44.0695 66.7319 44.0542C66.7306 44.0486 66.7292 44.0445 66.7292 44.0403C66.7194 43.9875 66.7083 43.9348 66.6931 43.8848C66.6917 43.882 66.6917 43.8792 66.6917 43.8764C66.6889 43.8667 66.6847 43.8584 66.6819 43.85C66.6722 43.8195 66.6611 43.7889 66.6486 43.7598C66.6458 43.7542 66.6444 43.7473 66.6417 43.7403C66.6375 43.732 66.6333 43.7236 66.6292 43.7153C66.6194 43.6931 66.6083 43.6723 66.5972 43.6514C66.5931 43.6431 66.5889 43.6348 66.5847 43.6264C66.5764 43.6125 66.5681 43.5986 66.5597 43.5848L64.4639 40.2417C64.4778 40.2625 64.4889 40.2861 64.5014 40.3084C64.5125 40.3292 64.5236 40.3514 64.5333 40.3723C64.5403 40.3861 64.5472 40.4014 64.5528 40.4167C64.5653 40.4459 64.5764 40.4764 64.5861 40.507C64.5903 40.5181 64.5944 40.5292 64.5972 40.5417C64.6125 40.5917 64.625 40.6431 64.6333 40.6973C64.6375 40.7167 64.6403 40.7361 64.6431 40.757C64.6458 40.7736 64.6472 40.7903 64.65 40.807C64.6528 40.8306 64.6542 40.8556 64.6556 40.8792C64.6569 40.8945 64.6569 40.9111 64.6583 40.9264C64.6583 40.9542 64.6583 40.982 64.6569 41.0098C64.6569 41.0236 64.6569 41.0361 64.6556 41.05C64.6528 41.0917 64.6486 41.1348 64.6431 41.1778L64.375 43.1459L66.4708 46.4889L66.7389 44.5209C66.7444 44.4778 66.7486 44.4361 66.7514 44.3931C66.7514 44.3806 66.7514 44.3667 66.7514 44.3528Z" fill="#E4E7EC"/>
<path d="M66.4702 46.7778C66.3716 46.7778 66.2786 46.7278 66.2258 46.6417L64.1299 43.2986C64.0938 43.2417 64.0799 43.1736 64.0883 43.1056L64.3563 41.1375C64.3605 41.1028 64.3647 41.0667 64.3661 41.032V41C64.3674 40.9764 64.3674 40.9528 64.3674 40.9306L64.3661 40.9056C64.3661 40.9042 64.3647 40.8917 64.3647 40.8903C64.3633 40.8708 64.3633 40.8514 64.3605 40.832L64.3549 40.7945C64.3522 40.7764 64.3494 40.7597 64.348 40.7445C64.3397 40.7 64.3299 40.6583 64.3188 40.6222L64.3091 40.5958C64.3008 40.5722 64.2924 40.5486 64.2827 40.525L64.2674 40.4917C64.2605 40.475 64.2522 40.4583 64.2424 40.4431L64.2355 40.4306C64.2286 40.4181 64.2216 40.4056 64.2147 40.3931V40.3917C64.1299 40.257 64.1702 40.0778 64.3063 39.9931C64.4411 39.9083 64.6202 39.9486 64.7049 40.0833L66.8008 43.4264C66.8119 43.4431 66.8216 43.4597 66.8313 43.4778C66.8383 43.4903 66.8438 43.5014 66.8494 43.5125C66.8619 43.5361 66.8758 43.5625 66.8883 43.5903C66.8924 43.5986 66.898 43.6097 66.9036 43.6208C66.9063 43.6278 66.9133 43.6458 66.9161 43.6542C66.9272 43.6806 66.9411 43.7167 66.9536 43.7542C66.9577 43.7625 66.9619 43.7736 66.9647 43.7861C66.9661 43.7931 66.9688 43.8014 66.9702 43.8083C66.9841 43.8556 66.998 43.9139 67.0105 43.975C67.0133 43.9847 67.0147 43.9931 67.0161 44.0028C67.0188 44.0153 67.0202 44.0292 67.0216 44.0431L66.7369 44.0945L67.0244 44.0681C67.0272 44.0833 67.0286 44.1 67.0299 44.1167C67.0327 44.1445 67.0341 44.1736 67.0355 44.2028C67.0369 44.2292 67.0383 44.2431 67.0383 44.2583C67.0383 44.2931 67.0383 44.325 67.0369 44.3583V44.3597V44.3695C67.0369 44.382 67.0369 44.3931 67.0355 44.4056C67.0327 44.4542 67.0286 44.5042 67.0216 44.5542L66.7563 46.5278C66.7397 46.6486 66.6494 46.7458 66.5313 46.7708C66.5105 46.7764 66.4897 46.7778 66.4702 46.7778ZM64.6744 43.0806L66.2911 45.6597L66.4522 44.482C66.4563 44.4472 66.4605 44.4111 66.4619 44.3764L66.4633 44.3431C66.4647 44.3208 66.4647 44.2972 66.4647 44.275L66.4619 44.2361C66.4605 44.2167 66.4605 44.1972 66.4577 44.1778L66.4494 44.107C66.448 44.1 66.4466 44.0931 66.4452 44.0847C66.4383 44.0458 66.4286 44.0042 66.4174 43.9667C66.4174 43.9639 66.4161 43.9625 66.4161 43.9597C66.4133 43.9542 66.4119 43.9472 66.4091 43.9403C66.4008 43.9167 66.3924 43.8931 66.3827 43.8708C66.3813 43.8667 66.3786 43.8597 66.3758 43.8528C66.373 43.8472 66.3688 43.8389 66.3674 43.8361C66.3605 43.8208 66.3522 43.8042 66.3438 43.7889C66.3411 43.7847 66.3327 43.7681 66.3313 43.7639L66.3161 43.7389L64.8966 41.4736L64.6744 43.0806Z" fill="#F9FAFB"/>
<path d="M63.5686 39.7444C64.2699 39.7444 64.7519 40.3861 64.6436 41.1777L64.3755 43.1458L63.1644 52.0347C63.0561 52.8277 62.4005 53.468 61.6991 53.468H59.3422C58.6408 53.468 58.1588 52.8263 58.2672 52.0347L59.4783 43.1458L59.7463 41.1777C59.8547 40.3847 60.5102 39.7444 61.2116 39.7444H63.5686Z" fill="#F7F9FC"/>
<path d="M61.6968 53.757H59.3398C58.9468 53.757 58.5884 53.5958 58.3329 53.3028C58.0398 52.9681 57.9107 52.4917 57.9787 51.9958L59.4579 41.1389C59.5871 40.1945 60.3565 39.4556 61.2093 39.4556H63.5662C63.9593 39.4556 64.3176 39.6167 64.5732 39.9097C64.8662 40.2445 64.9954 40.7208 64.9273 41.2167L63.4482 52.0736C63.3204 53.0181 62.5509 53.757 61.6968 53.757ZM61.2107 40.0333C60.6496 40.0333 60.1204 40.5639 60.0315 41.2167L58.5523 52.0736C58.5079 52.4042 58.5871 52.7139 58.769 52.9222C58.9162 53.0903 59.1134 53.1792 59.3412 53.1792H61.6982C62.2593 53.1792 62.7884 52.6486 62.8773 51.9958L64.3565 41.1389C64.4009 40.8083 64.3218 40.5 64.1398 40.2903C63.9926 40.1222 63.7954 40.0333 63.5676 40.0333H61.2107Z" fill="#F9FAFB"/>
<path d="M52.2675 62.661H47.6549C47.3174 62.661 47.0063 62.5874 46.73 62.4527C46.6508 62.4138 46.5758 62.3708 46.5022 62.3235C46.3563 62.2277 46.223 62.1138 46.105 61.9833C46.0161 61.886 45.9355 61.7791 45.8633 61.6638L47.9591 65.0069C48.3424 65.618 48.98 66.0041 49.7508 66.0041H54.3633L52.2675 62.661Z" fill="#D0D5DD"/>
<path d="M54.3635 66.2931H49.751C48.9079 66.2931 48.1663 65.8806 47.7149 65.1597L45.6204 61.8181C45.6204 61.8181 45.6204 61.8181 45.6204 61.8167C45.5357 61.6819 45.576 61.5028 45.7121 61.4181C45.8468 61.3333 46.026 61.3736 46.1107 61.5097C46.1732 61.6097 46.2441 61.7028 46.3218 61.7875C46.4246 61.9 46.5399 61.9986 46.6635 62.0806C46.726 62.1222 46.7913 62.1597 46.8593 62.1917C47.1038 62.3111 47.3718 62.3708 47.6579 62.3708H52.2704C52.3704 62.3708 52.4621 62.4222 52.5149 62.5069L54.6107 65.85C54.6663 65.9389 54.6691 66.0514 54.6191 66.1431C54.5649 66.2361 54.4691 66.2931 54.3635 66.2931ZM46.9468 62.8472L48.2038 64.8542C48.5468 65.4014 49.1107 65.7167 49.7496 65.7167H53.8399L52.1066 62.9514H47.6538C47.4093 62.95 47.1718 62.9153 46.9468 62.8472Z" fill="#F9FAFB"/>
<path d="M107.808 44.3527C107.809 44.325 107.809 44.2972 107.809 44.2694C107.809 44.2527 107.808 44.2375 107.807 44.2208C107.805 44.1972 107.804 44.1722 107.801 44.1486C107.8 44.1319 107.797 44.1152 107.794 44.0986C107.793 44.0833 107.791 44.068 107.789 44.0541C107.787 44.0486 107.786 44.0444 107.786 44.0388C107.776 43.9861 107.765 43.9347 107.75 43.8847C107.748 43.8819 107.748 43.8791 107.748 43.8763C107.746 43.868 107.741 43.8597 107.739 43.85C107.729 43.8194 107.718 43.7888 107.705 43.7597C107.702 43.7541 107.701 43.7472 107.698 43.7402C107.694 43.7319 107.69 43.7236 107.686 43.7152C107.676 43.693 107.665 43.6722 107.654 43.65C107.65 43.6416 107.646 43.6333 107.641 43.625C107.633 43.6111 107.625 43.5972 107.616 43.5833L105.521 40.2402C105.534 40.2611 105.546 40.2847 105.558 40.3069C105.569 40.3277 105.58 40.35 105.59 40.3722C105.597 40.3861 105.604 40.4013 105.609 40.4166C105.622 40.4458 105.633 40.4763 105.643 40.5083C105.647 40.5194 105.651 40.5305 105.654 40.5416C105.669 40.5916 105.682 40.643 105.69 40.6972C105.694 40.7166 105.697 40.7361 105.7 40.7569C105.702 40.7736 105.704 40.7902 105.707 40.8069C105.709 40.8305 105.711 40.8555 105.712 40.8791C105.714 40.8958 105.715 40.9111 105.715 40.9277C105.715 40.9555 105.715 40.9833 105.714 41.0111C105.714 41.025 105.714 41.0388 105.712 41.0527C105.709 41.0944 105.705 41.1375 105.7 41.1791L105.432 43.1472L107.527 46.4902L107.796 44.5222C107.801 44.4791 107.805 44.4375 107.808 44.3958C107.808 44.3805 107.808 44.3666 107.808 44.3527Z" fill="#E4E7EC"/>
<path d="M107.527 46.7778C107.428 46.7778 107.335 46.7278 107.282 46.6417L105.187 43.2986C105.15 43.2417 105.137 43.1736 105.145 43.1055L105.413 41.1375C105.417 41.1028 105.421 41.0667 105.423 41.0333V41C105.424 40.9764 105.424 40.9542 105.424 40.9319L105.421 40.893C105.42 40.8736 105.42 40.8542 105.417 40.8361L105.414 40.8083C105.41 40.7806 105.409 40.7639 105.406 40.7486C105.399 40.7069 105.389 40.6653 105.377 40.6264C105.377 40.625 105.369 40.6042 105.369 40.6028C105.36 40.5778 105.352 40.5542 105.342 40.5306C105.338 40.5194 105.332 40.5097 105.328 40.4986C105.32 40.4805 105.312 40.4639 105.303 40.4472C105.292 40.425 105.284 40.4111 105.275 40.3972C105.191 40.2625 105.232 40.0833 105.367 40C105.502 39.9153 105.68 39.9569 105.766 40.0917L107.862 43.4347C107.873 43.4528 107.882 43.4694 107.894 43.4875C107.898 43.4958 107.905 43.5069 107.91 43.5194C107.923 43.5431 107.937 43.5694 107.949 43.5972C107.955 43.6069 107.96 43.6181 107.964 43.6292C107.967 43.6361 107.974 43.6528 107.975 43.6597C107.988 43.6889 108.002 43.7264 108.014 43.7639C108.017 43.7708 108.021 43.7819 108.025 43.7931C108.027 43.7986 108.03 43.8069 108.031 43.8153C108.046 43.8639 108.059 43.9208 108.071 43.9833C108.073 43.9903 108.074 43.9972 108.075 44.0042C108.078 44.0236 108.081 44.0389 108.082 44.0528C108.087 44.0833 108.089 44.1028 108.091 44.1222C108.094 44.1514 108.095 44.1806 108.096 44.2097C108.098 44.2333 108.099 44.25 108.099 44.2681C108.099 44.2986 108.099 44.3319 108.098 44.3639V44.3736C108.098 44.3861 108.098 44.4 108.096 44.4125C108.094 44.4611 108.089 44.5111 108.082 44.5611L107.813 46.5278C107.796 46.6486 107.706 46.7458 107.588 46.7708C107.567 46.7764 107.548 46.7778 107.527 46.7778ZM105.732 43.0805L107.349 45.6597L107.51 44.4819C107.514 44.4472 107.519 44.4111 107.52 44.3778V44.3444V44.343C107.521 44.3208 107.521 44.2986 107.521 44.2764L107.52 44.2514C107.52 44.25 107.519 44.2375 107.519 44.2375C107.517 44.2181 107.517 44.1986 107.514 44.1806L107.506 44.1167C107.506 44.1153 107.505 44.1055 107.502 44.0958C107.494 44.0486 107.484 44.0083 107.473 43.9708C107.473 43.9694 107.471 43.9667 107.471 43.9653C107.469 43.9583 107.466 43.9514 107.464 43.9444C107.456 43.9194 107.448 43.8958 107.438 43.8736C107.437 43.8708 107.434 43.8639 107.432 43.8569C107.428 43.85 107.424 43.8403 107.423 43.8375C107.416 43.8222 107.407 43.8056 107.399 43.7889C107.396 43.7847 107.389 43.7694 107.388 43.7653C107.384 43.7583 107.378 43.7486 107.371 43.7375L105.952 41.4722L105.732 43.0805Z" fill="#F9FAFB"/>
<path d="M104.625 39.7444C105.327 39.7444 105.81 40.3861 105.702 41.1777L105.434 43.1458L104.222 52.0347C104.114 52.8277 103.457 53.468 102.756 53.468H100.399C99.6974 53.468 99.2155 52.8263 99.3238 52.0347L100.535 43.1458L100.803 41.1777C100.911 40.3847 101.568 39.7444 102.268 39.7444H104.625Z" fill="#F7F9FC"/>
<path d="M102.753 53.7569H100.396C100.003 53.7569 99.6451 53.5958 99.3895 53.3013C99.0965 52.9666 98.9673 52.4902 99.0354 51.9944L100.515 41.1374C100.641 40.2097 101.427 39.4541 102.266 39.4541H104.623C105.016 39.4541 105.374 39.6152 105.631 39.9097C105.924 40.2444 106.053 40.7208 105.985 41.2166L104.506 52.0735C104.378 53.018 103.608 53.7569 102.753 53.7569ZM102.267 40.0333C101.716 40.0333 101.176 40.5749 101.088 41.2166L99.609 52.0735C99.5645 52.4027 99.6437 52.7124 99.8256 52.9222C99.9729 53.0902 100.17 53.1791 100.398 53.1791H102.755C103.308 53.1791 103.848 52.6374 103.935 51.9958L105.415 41.1388C105.459 40.8097 105.38 40.4999 105.198 40.2902C105.051 40.1222 104.853 40.0333 104.626 40.0333H102.267Z" fill="#F9FAFB"/>
<path d="M108.666 62.6609L110.761 66.0039H54.3634L52.2676 62.6609H108.666Z" fill="#1D2739"/>
<path d="M110.76 66.2929H54.3627C54.2627 66.2929 54.171 66.2415 54.1182 66.1568L52.0224 62.8137C51.9668 62.7249 51.964 62.6123 52.014 62.5207C52.0654 62.429 52.1613 62.3721 52.2668 62.3721H108.664C108.764 62.3721 108.856 62.4235 108.908 62.5082L111.004 65.8512C111.06 65.9401 111.063 66.0526 111.013 66.1443C110.963 66.236 110.865 66.2929 110.76 66.2929ZM54.5224 65.7151H110.238L108.504 62.9498H52.789L54.5224 65.7151Z" fill="#F9FAFB"/>
<path d="M118.866 49.0209C118.868 48.9654 118.87 48.9098 118.869 48.8556C118.869 48.8237 118.866 48.7918 118.865 48.7598C118.862 48.7112 118.859 48.6626 118.855 48.614C118.852 48.5806 118.847 48.5487 118.843 48.5154C118.838 48.4848 118.836 48.4543 118.832 48.4251C118.829 48.4084 118.825 48.3918 118.822 48.3751C118.818 48.3515 118.813 48.3293 118.808 48.307C118.797 48.2543 118.784 48.2029 118.77 48.1515C118.765 48.132 118.761 48.114 118.755 48.0945C118.752 48.0862 118.751 48.0793 118.748 48.0709C118.743 48.0529 118.734 48.0362 118.729 48.0181C118.708 47.957 118.686 47.8959 118.661 47.8362C118.655 47.8237 118.652 47.8098 118.647 47.7987C118.64 47.782 118.63 47.7654 118.622 47.7487C118.601 47.7043 118.58 47.6612 118.557 47.6195C118.548 47.6029 118.541 47.5862 118.532 47.5709C118.515 47.5431 118.498 47.5154 118.482 47.4876L116.386 44.1445C116.412 44.1876 116.436 44.232 116.461 44.2779C116.483 44.3195 116.505 44.364 116.526 44.407C116.54 44.4362 116.552 44.4654 116.565 44.4945C116.59 44.5529 116.612 44.614 116.633 44.6765C116.641 44.7015 116.651 44.7265 116.659 44.7529C116.665 44.7723 116.669 44.7904 116.675 44.8098C116.688 44.8612 116.701 44.9126 116.712 44.9654C116.716 44.9876 116.722 45.0112 116.726 45.0334C116.734 45.0793 116.741 45.1265 116.748 45.1751C116.752 45.2084 116.758 45.2404 116.761 45.2737C116.765 45.3209 116.768 45.3695 116.77 45.4195C116.772 45.4515 116.775 45.4834 116.775 45.5154C116.776 45.5695 116.775 45.6251 116.772 45.6806C116.77 45.7084 116.772 45.7348 116.77 45.7626C116.765 45.8459 116.758 45.9306 116.745 46.0168L114.868 59.7959C114.855 59.8834 114.839 59.9709 114.82 60.057C114.815 60.0793 114.811 60.1015 114.805 60.1251C114.787 60.2015 114.766 60.2779 114.743 60.3529C114.74 60.3612 114.737 60.3709 114.734 60.3793C114.708 60.4612 114.677 60.5418 114.645 60.6223C114.637 60.6431 114.629 60.664 114.619 60.6848C114.591 60.7515 114.561 60.8168 114.529 60.8806C114.522 60.8945 114.515 60.9098 114.508 60.9237C114.493 60.9543 114.473 60.9834 114.457 61.014C114.423 61.0751 114.39 61.1348 114.352 61.1931C114.329 61.232 114.302 61.2681 114.277 61.3056C114.248 61.3473 114.22 61.389 114.19 61.4293C114.161 61.4681 114.129 61.5056 114.098 61.5431C114.07 61.5765 114.044 61.6112 114.015 61.6431C113.982 61.6806 113.947 61.7168 113.911 61.7529C113.883 61.782 113.855 61.8126 113.826 61.8404C113.791 61.8751 113.754 61.9056 113.716 61.939C113.684 61.9668 113.654 61.9959 113.622 62.0223C113.589 62.0501 113.554 62.0737 113.519 62.1001C113.48 62.1293 113.44 62.1598 113.4 62.1876C113.37 62.207 113.34 62.2251 113.309 62.2431C113.257 62.2765 113.205 62.3084 113.151 62.3376C113.086 62.3737 113.02 62.4084 112.952 62.4376C112.952 62.4376 112.952 62.4376 112.951 62.4376C112.882 62.4681 112.811 62.4959 112.738 62.5209C112.711 62.5306 112.683 62.539 112.654 62.5487C112.604 62.564 112.552 62.5793 112.501 62.5918C112.472 62.5987 112.443 62.6056 112.413 62.6126C112.359 62.6237 112.305 62.632 112.25 62.6404C112.225 62.6445 112.198 62.6487 112.173 62.6515C112.093 62.6598 112.012 62.6654 111.932 62.6654H111.119H108.662L110.758 66.0084H113.215H114.027C114.108 66.0084 114.188 66.0029 114.269 65.9945C114.295 65.9918 114.32 65.9876 114.345 65.9834C114.4 65.9765 114.455 65.9668 114.509 65.9556C114.538 65.9501 114.568 65.9431 114.597 65.9348C114.648 65.9223 114.7 65.9084 114.75 65.8918C114.777 65.8834 114.807 65.8737 114.834 65.864C114.85 65.8584 114.865 65.8556 114.879 65.8501C114.936 65.8293 114.991 65.8056 115.047 65.782C115.047 65.782 115.047 65.782 115.048 65.782C115.104 65.757 115.159 65.7306 115.213 65.7015C115.225 65.6959 115.236 65.6876 115.247 65.682C115.301 65.6529 115.352 65.6209 115.405 65.5876C115.429 65.5737 115.452 65.5612 115.475 65.5459C115.482 65.5418 115.488 65.5362 115.494 65.5306C115.534 65.5029 115.573 65.4737 115.612 65.4431C115.641 65.4223 115.67 65.4029 115.698 65.3793C115.704 65.3751 115.709 65.3695 115.715 65.364C115.747 65.3376 115.777 65.3084 115.809 65.2806C115.84 65.2543 115.87 65.2293 115.9 65.2015C115.907 65.1959 115.912 65.189 115.919 65.182C115.948 65.1543 115.976 65.1237 116.004 65.0945C116.032 65.0668 116.059 65.039 116.087 65.0098C116.094 65.0015 116.101 64.9931 116.108 64.9848C116.137 64.9529 116.164 64.9181 116.191 64.8848C116.215 64.8556 116.24 64.8293 116.262 64.8001C116.269 64.7904 116.276 64.7806 116.283 64.7709C116.313 64.7306 116.341 64.689 116.369 64.6473C116.388 64.6181 116.411 64.5918 116.429 64.5626C116.434 64.5543 116.439 64.5445 116.444 64.5362C116.48 64.4779 116.515 64.4181 116.548 64.357C116.562 64.332 116.577 64.3098 116.59 64.2848C116.593 64.2793 116.595 64.2723 116.598 64.2668C116.605 64.2529 116.612 64.2376 116.619 64.2237C116.651 64.1598 116.682 64.0945 116.709 64.0279C116.718 64.007 116.727 63.9862 116.736 63.9654C116.741 63.9501 116.75 63.9348 116.755 63.9195C116.78 63.8543 116.804 63.789 116.825 63.7223C116.827 63.714 116.83 63.7043 116.833 63.6959C116.857 63.6209 116.876 63.5445 116.895 63.4681C116.901 63.4459 116.907 63.4237 116.911 63.4001C116.929 63.314 116.945 63.2279 116.958 63.139L118.836 49.3598C118.847 49.2737 118.855 49.189 118.861 49.1056C118.866 49.0751 118.865 49.0487 118.866 49.0209Z" fill="#D0D5DD"/>
<path d="M114.03 66.293H110.759C110.659 66.293 110.567 66.2416 110.515 66.1569L108.419 62.8139C108.363 62.725 108.361 62.6125 108.411 62.5208C108.462 62.4291 108.558 62.3722 108.663 62.3722H111.934C111.998 62.3722 112.067 62.368 112.147 62.3597C112.159 62.3583 112.17 62.3569 112.183 62.3541L112.213 62.35C112.262 62.343 112.309 62.3361 112.358 62.3264C112.384 62.3208 112.409 62.3153 112.434 62.3083C112.48 62.2972 112.524 62.2847 112.569 62.2708C112.599 62.2611 112.622 62.2541 112.644 62.2472C112.72 62.2208 112.78 62.1972 112.834 62.1736C112.836 62.1736 112.837 62.1722 112.837 62.1722C112.897 62.1458 112.955 62.1153 113.012 62.0833C113.061 62.0569 113.108 62.0278 113.155 61.9972L113.19 61.9764C113.205 61.9666 113.22 61.9569 113.236 61.9472C113.265 61.9278 113.292 61.9055 113.322 61.8847L113.377 61.843C113.398 61.8278 113.419 61.8125 113.438 61.7972C113.458 61.7805 113.477 61.7639 113.497 61.7472L113.548 61.7028C113.574 61.6805 113.601 61.6569 113.626 61.6333C113.644 61.6153 113.663 61.5958 113.681 61.5764L113.715 61.5416C113.744 61.5125 113.772 61.4833 113.799 61.4528C113.82 61.4291 113.84 61.4055 113.858 61.3819L113.876 61.3597C113.911 61.318 113.936 61.2875 113.959 61.2541C113.983 61.2222 114.005 61.1903 114.027 61.1569L114.055 61.1153C114.073 61.0903 114.091 61.0639 114.108 61.0375C114.141 60.9833 114.173 60.9291 114.204 60.8736L114.226 60.8347C114.234 60.8208 114.242 60.8069 114.249 60.7916L114.269 60.7514C114.298 60.693 114.326 60.6333 114.351 60.5722L114.374 60.5153C114.406 60.4347 114.434 60.3611 114.455 60.293C114.455 60.2903 114.461 60.2722 114.462 60.2694C114.484 60.1986 114.502 60.1291 114.519 60.0583L114.533 59.9972C114.552 59.9055 114.566 59.8305 114.576 59.7583L116.454 45.9791C116.463 45.9041 116.472 45.8264 116.476 45.7472C116.476 45.7347 116.477 45.7208 116.477 45.7083V45.6722C116.479 45.6208 116.48 45.5708 116.48 45.5208C116.48 45.5014 116.479 45.4833 116.477 45.4639L116.476 45.4361C116.473 45.3903 116.472 45.3472 116.467 45.3041C116.465 45.2805 116.462 45.2569 116.458 45.2333L116.455 45.2166C116.449 45.1736 116.444 45.1319 116.436 45.0903C116.431 45.0694 116.427 45.05 116.423 45.0291C116.413 44.9819 116.401 44.9361 116.388 44.8903L116.374 44.8389C116.372 44.8278 116.367 44.8166 116.363 44.8055L116.352 44.7736C116.334 44.718 116.313 44.6639 116.292 44.6111C116.281 44.5847 116.27 44.5597 116.258 44.5347C116.24 44.4958 116.22 44.4569 116.199 44.4194L116.19 44.4014C116.172 44.368 116.154 44.3347 116.134 44.3028C116.049 44.168 116.091 43.9889 116.226 43.9041C116.362 43.8194 116.54 43.8597 116.624 43.9958L118.72 47.3389C118.74 47.3694 118.758 47.4014 118.776 47.4333C118.784 47.4486 118.792 47.4639 118.799 47.4791C118.83 47.5361 118.854 47.5847 118.877 47.6347C118.89 47.6583 118.898 47.675 118.905 47.6916C118.911 47.7028 118.916 47.718 118.92 47.7333C118.948 47.7986 118.972 47.8653 118.995 47.9347C119.005 47.9597 119.012 47.9764 119.017 47.993C119.019 47.9972 119.023 48.0139 119.024 48.018L119.041 48.0805C119.056 48.1375 119.07 48.1944 119.083 48.2528C119.088 48.2791 119.094 48.3028 119.098 48.3278L119.101 48.343C119.104 48.3569 119.106 48.3708 119.109 48.3847C119.113 48.4069 119.116 48.4305 119.119 48.4555L119.126 48.5083C119.13 48.5361 119.133 48.5639 119.137 48.593C119.142 48.6444 119.145 48.6986 119.148 48.7514L119.149 48.7791C119.151 48.8055 119.152 48.8305 119.154 48.8569C119.155 48.9153 119.154 48.975 119.151 49.0361C119.151 49.0361 119.151 49.0361 119.151 49.0375V49.0653C119.151 49.0861 119.151 49.1069 119.149 49.1278C119.144 49.2222 119.136 49.3153 119.123 49.4041L117.245 63.1833C117.234 63.268 117.217 63.3583 117.194 63.4666C117.188 63.4916 117.183 63.5166 117.177 63.5416C117.158 63.6236 117.136 63.7055 117.111 63.7875L117.102 63.818C117.08 63.8889 117.055 63.9597 117.027 64.0305C117.023 64.043 117.017 64.0541 117.013 64.0653L116.983 64.1403C116.949 64.2194 116.916 64.2903 116.881 64.3597L116.848 64.4264C116.838 64.4444 116.827 64.4639 116.816 64.4819L116.804 64.5041C116.767 64.5694 116.73 64.6347 116.691 64.6972C116.686 64.7069 116.68 64.718 116.673 64.7278C116.661 64.7486 116.645 64.7694 116.63 64.7903L116.598 64.8361C116.572 64.875 116.544 64.9139 116.516 64.9514C116.508 64.9639 116.501 64.9736 116.494 64.9833C116.477 65.0055 116.459 65.025 116.442 65.0458L116.402 65.0944C116.379 65.1236 116.354 65.1541 116.329 65.1819C116.32 65.193 116.313 65.2014 116.306 65.2097C116.286 65.2333 116.265 65.2541 116.242 65.275L116.194 65.325C116.17 65.3486 116.148 65.3736 116.123 65.3958C116.117 65.4014 116.111 65.4097 116.102 65.4166C116.08 65.4375 116.058 65.4569 116.034 65.4764L115.98 65.5236C115.954 65.5472 115.929 65.5694 115.901 65.5916C115.897 65.5958 115.89 65.6014 115.883 65.6069C115.861 65.625 115.84 65.6403 115.817 65.6555L115.765 65.6944C115.73 65.7208 115.695 65.7472 115.659 65.7708C115.654 65.775 115.645 65.7819 115.636 65.7875C115.619 65.7986 115.599 65.8097 115.58 65.8208L115.561 65.8319C115.504 65.868 115.447 65.9028 115.387 65.9347C115.374 65.943 115.363 65.95 115.351 65.9555C115.29 65.9875 115.229 66.0166 115.167 66.0444C115.166 66.0444 115.165 66.0458 115.163 66.0458C115.104 66.0722 115.042 66.0972 114.98 66.1208C114.967 66.125 114.954 66.1305 114.94 66.1347C114.902 66.1472 114.873 66.1569 114.844 66.1653C114.781 66.1847 114.724 66.2 114.667 66.2153C114.636 66.2236 114.604 66.2305 114.57 66.2375C114.511 66.25 114.449 66.2597 114.387 66.268L114.363 66.2708C114.342 66.2736 114.322 66.2778 114.299 66.2791C114.204 66.2875 114.115 66.293 114.03 66.293ZM110.92 65.7153H114.03C114.094 65.7153 114.163 65.7111 114.242 65.7028C114.255 65.7014 114.267 65.7 114.279 65.6972L114.309 65.693C114.358 65.6861 114.405 65.6791 114.454 65.6694C114.48 65.6639 114.505 65.6583 114.53 65.6514C114.576 65.6403 114.62 65.6278 114.666 65.6139C114.695 65.6041 114.719 65.5972 114.741 65.5903L114.773 65.5805C114.833 65.5597 114.881 65.5389 114.931 65.5166C114.933 65.5166 114.934 65.5153 114.934 65.5153C114.983 65.493 115.033 65.4694 115.08 65.4444C115.088 65.4389 115.099 65.4319 115.109 65.4264C115.158 65.4 115.205 65.3708 115.252 65.3416C115.266 65.3333 115.28 65.325 115.294 65.3166C115.301 65.3125 115.309 65.3083 115.316 65.3041C115.319 65.3014 115.326 65.2958 115.333 65.2916C115.362 65.2722 115.388 65.2514 115.416 65.2305L115.483 65.1819C115.495 65.1722 115.508 65.1639 115.52 65.1541L115.536 65.1403C115.556 65.1236 115.574 65.1069 115.594 65.0903L115.659 65.0333C115.674 65.0208 115.69 65.0069 115.705 64.993C115.708 64.9903 115.717 64.9791 115.722 64.9764C115.741 64.9583 115.758 64.9403 115.776 64.9222L115.834 64.8625C115.848 64.8486 115.863 64.8333 115.876 64.8194C115.883 64.8111 115.888 64.8028 115.895 64.7958C115.915 64.7736 115.934 64.75 115.954 64.7264L116.004 64.6666C116.015 64.6541 116.026 64.6403 116.037 64.6264C116.042 64.6166 116.049 64.6083 116.055 64.6C116.079 64.568 116.101 64.5361 116.123 64.5041L116.165 64.4458C116.173 64.4333 116.183 64.4222 116.191 64.4083C116.195 64.4 116.201 64.3916 116.206 64.3833C116.24 64.3305 116.27 64.275 116.302 64.2194C116.311 64.2055 116.319 64.1916 116.326 64.1778C116.331 64.1694 116.336 64.1611 116.34 64.1528L116.367 64.0958C116.397 64.0361 116.424 63.9764 116.451 63.9153L116.492 63.8166C116.516 63.7569 116.537 63.6972 116.556 63.6361L116.565 63.6083C116.586 63.543 116.604 63.4722 116.62 63.4014C116.626 63.3805 116.63 63.3597 116.634 63.3403C116.654 63.2472 116.667 63.1708 116.677 63.1014L118.555 49.3222C118.565 49.2472 118.573 49.1694 118.577 49.0903C118.577 49.0778 118.577 49.0666 118.579 49.0541L118.58 49.0153C118.581 48.9653 118.583 48.9153 118.583 48.8666C118.583 48.8472 118.581 48.8291 118.58 48.8125L118.579 48.7791C118.576 48.7361 118.574 48.6916 118.57 48.6486C118.567 48.6264 118.565 48.6055 118.562 48.5847L118.554 48.5194C118.552 48.5055 118.551 48.4916 118.548 48.4778L118.526 48.3694C118.516 48.3236 118.505 48.2778 118.492 48.2319L118.479 48.1805C118.477 48.1778 118.474 48.1639 118.473 48.1597C118.465 48.1389 118.459 48.125 118.455 48.1111C118.437 48.0583 118.417 48.0041 118.395 47.9514C118.39 47.9389 118.386 47.9278 118.381 47.9153C118.372 47.8972 118.366 47.8861 118.361 47.875C118.342 47.8347 118.323 47.7972 118.302 47.7597C118.295 47.7472 118.29 47.7361 118.284 47.7236C118.266 47.6916 118.252 47.6666 118.237 47.643L117.059 45.7653C117.059 45.7708 117.059 45.775 117.058 45.7805C117.052 45.875 117.044 45.968 117.031 46.0569L115.154 59.8361C115.142 59.9222 115.124 60.0152 115.102 60.1194C115.097 60.143 115.091 60.168 115.086 60.1916C115.066 60.275 115.044 60.3583 115.019 60.4389L115.012 60.4639C114.984 60.55 114.954 60.6361 114.915 60.7305L114.891 60.7861C114.856 60.868 114.823 60.9389 114.79 61.0083L114.766 61.0569C114.755 61.0791 114.742 61.1014 114.729 61.125L114.712 61.1541C114.676 61.2194 114.64 61.2847 114.599 61.3472C114.579 61.3805 114.556 61.4125 114.534 61.4444L114.508 61.4833C114.48 61.5236 114.454 61.5625 114.424 61.6014C114.395 61.6403 114.365 61.6778 114.334 61.7153L114.309 61.7458C114.286 61.7764 114.261 61.8055 114.234 61.8347C114.202 61.8722 114.167 61.9069 114.133 61.943L114.102 61.975C114.079 62 114.055 62.025 114.03 62.0486C113.998 62.0791 113.966 62.1083 113.933 62.1375L113.887 62.1791C113.861 62.2028 113.836 62.225 113.808 62.2472C113.781 62.2694 113.754 62.2903 113.724 62.3111L113.674 62.3486C113.638 62.3764 113.602 62.4028 113.565 62.4278C113.542 62.443 113.519 62.4583 113.495 62.4722L113.467 62.4889C113.411 62.525 113.352 62.5597 113.294 62.593C113.23 62.6278 113.155 62.668 113.076 62.7028C113.072 62.7041 113.067 62.7069 113.063 62.7083C112.992 62.7389 112.923 62.7666 112.841 62.7958C112.812 62.8055 112.784 62.8153 112.755 62.8236C112.691 62.843 112.634 62.8597 112.577 62.8736C112.545 62.8819 112.513 62.8889 112.48 62.8958C112.419 62.9083 112.358 62.918 112.297 62.9264L112.273 62.9291C112.252 62.9319 112.231 62.9347 112.211 62.9375C112.112 62.9472 112.023 62.9528 111.938 62.9528H109.19L110.92 65.7153Z" fill="#F9FAFB"/>
<path d="M64.2169 76.1958L66.3128 79.5389H50.4044L48.3086 76.1958H64.2169Z" fill="#98A2B3"/>
<path d="M66.312 79.8278H50.4037C50.3037 79.8278 50.212 79.7764 50.1592 79.6917L48.0634 76.3486C48.0078 76.2598 48.0051 76.1473 48.0551 76.0556C48.1064 75.9639 48.2023 75.907 48.3078 75.907H64.2162C64.3162 75.907 64.4078 75.9584 64.4606 76.0431L66.5564 79.3861C66.612 79.475 66.6148 79.5875 66.5648 79.6792C66.5134 79.7709 66.4176 79.8278 66.312 79.8278ZM50.5634 79.25H65.7898L64.0564 76.4848H48.8301L50.5634 79.25Z" fill="#F9FAFB"/>
<path d="M110.76 66.0042L108.665 62.6611L100.758 89.6931L96.1084 105.59L95.2695 108.457L97.364 111.8L98.2029 108.933L102.85 93.0486L110.76 66.0042Z" fill="#E4E7EC"/>
<path d="M97.4606 112.499L94.9551 108.5L100.702 88.8555L108.568 61.9624L111.073 65.961L111.037 66.086L103.127 93.1305L97.4606 112.499ZM95.5815 108.414L97.2662 111.103L110.445 66.0485L108.761 63.3596L100.813 90.5318L95.5815 108.414Z" fill="#F9FAFB"/>
<path d="M100.733 89.7317L96.1083 105.59L95.2694 108.457H78.6777L100.733 89.7317Z" fill="#D0D5DD"/>
<path d="M95.2689 108.746H78.6772C78.5564 108.746 78.448 108.671 78.4064 108.557C78.3647 108.443 78.398 108.315 78.4911 108.237L100.547 89.5124C100.644 89.4304 100.784 89.4207 100.891 89.4901C100.998 89.5596 101.047 89.6915 101.012 89.8137L96.3869 105.672L95.548 108.54C95.5092 108.661 95.3967 108.746 95.2689 108.746ZM79.4633 108.168H95.0508L95.8286 105.508L100.184 90.5749L79.4633 108.168Z" fill="#F9FAFB"/>
<path d="M52.2669 62.6609H108.666L100.752 89.7178L84.1558 89.7317L78.678 108.457H38.8711L41.61 99.0942H57.5183L64.2169 76.1956H48.3086L52.2669 62.6609Z" fill="#F7F9FC"/>
<path d="M78.6773 108.746H38.8704C38.7787 108.746 38.694 108.703 38.6398 108.63C38.5857 108.558 38.5676 108.464 38.594 108.376L41.3329 99.0137C41.369 98.8901 41.4815 98.8054 41.6107 98.8054H57.3023L63.8315 76.4846H48.3079C48.2162 76.4846 48.1315 76.4415 48.0773 76.3693C48.0232 76.2971 48.0051 76.2026 48.0315 76.1151L51.9912 62.5804C52.0273 62.4568 52.1398 62.3721 52.269 62.3721H108.666C108.758 62.3721 108.843 62.4151 108.897 62.4874C108.951 62.5596 108.969 62.654 108.943 62.7415L101.029 89.7985C100.993 89.9221 100.88 90.0068 100.752 90.0068L84.3732 90.0207L78.9565 108.539C78.919 108.661 78.8051 108.746 78.6773 108.746ZM39.2565 108.168H78.4607L83.8773 89.6498C83.9135 89.5262 84.026 89.4415 84.1537 89.4415L100.533 89.4276L108.277 62.9485H52.4829L48.6926 75.9054H64.2162C64.3079 75.9054 64.3926 75.9485 64.4468 76.0207C64.501 76.0929 64.519 76.1873 64.4926 76.2748L57.794 99.1735C57.7579 99.2971 57.6454 99.3818 57.5162 99.3818H41.826L39.2565 108.168Z" fill="#F9FAFB"/>
<path d="M66.3473 62.5291L66.3084 62.661L66.1959 63.0443L61.4418 79.2957L61.2904 79.811L56.5376 96.0624L56.3862 96.5791L52.9112 108.457H52.457L55.932 96.5791L56.0834 96.0638L60.8362 79.8124L60.9876 79.2971L65.7418 63.0443L65.8529 62.661L65.8918 62.5291H66.3473Z" fill="#F9FAFB"/>
<path d="M81.1191 62.5139L81.076 62.6611L80.969 63.0292L76.2149 79.2806L76.0649 79.7959H76.0635L71.3107 96.0486L71.1593 96.5639L67.6802 108.457H67.2246L70.7052 96.5639L70.8552 96.0486L75.6093 79.7972L75.7593 79.282L80.5135 63.0292H80.5149L80.6218 62.6611L80.6635 62.5139H81.1191Z" fill="#F9FAFB"/>
<path d="M95.8908 62.4985L95.8436 62.661L95.7408 63.0138L90.9866 79.2652L90.8366 79.7805L86.0811 96.0333L85.9311 96.5485L82.4477 108.457H81.9922L85.4769 96.5485L85.6269 96.0333L90.3811 79.7819L90.5325 79.2666L95.2852 63.0152L95.3894 62.661L95.4366 62.4985H95.8908Z" fill="#F9FAFB"/>
<path d="M103.813 79.2527L103.661 79.768L90.8364 79.7805L90.3808 79.7819L76.0641 79.7957H76.0628L75.6086 79.7971L61.2905 79.811L60.8364 79.8124L47.2461 79.8263L47.3975 79.311L60.9878 79.2971L61.4419 79.2957L75.7586 79.2819L76.2141 79.2805L90.5322 79.2666L90.9864 79.2652L103.813 79.2527Z" fill="#F9FAFB"/>
<path d="M98.9085 96.0193L98.7571 96.5346L85.9307 96.5485H85.4765L71.1585 96.5637H70.7043L56.3862 96.579H55.9321L42.3418 96.5929L42.4932 96.0776L56.0835 96.0637L56.5376 96.0623L70.8543 96.0484H71.3099L85.6265 96.0332H86.0807L98.9085 96.0193Z" fill="#F9FAFB"/>
<path d="M95.2697 108.457H78.678H38.8711L40.9669 111.8H80.7739H97.3642L95.2697 108.457Z" fill="#98A2B3"/>
<path d="M97.3634 112.089H40.9662C40.8662 112.089 40.7745 112.037 40.7217 111.953L38.6259 108.611C38.5703 108.522 38.5676 108.41 38.6176 108.318C38.6689 108.226 38.7648 108.169 38.8703 108.169H95.2676C95.3676 108.169 95.4592 108.221 95.512 108.306L97.6078 111.649C97.6634 111.737 97.6662 111.85 97.6162 111.942C97.5662 112.032 97.469 112.089 97.3634 112.089ZM41.1259 111.511H96.8412L95.1078 108.746H39.3926L41.1259 111.511Z" fill="#F9FAFB"/>
<path d="M48.31 76.1958H64.2183L57.5197 99.0944H41.6114H25.6836L32.3822 76.1958H48.31ZM57.6475 82.5C57.9294 82.5 58.1919 82.243 58.235 81.9264C58.278 81.6083 58.0864 81.3527 57.8044 81.3527H35.4391C35.1586 81.3527 34.8961 81.6097 34.853 81.9264C34.81 82.243 35.003 82.5 35.2822 82.5H57.6475ZM56.428 86.6722C56.71 86.6722 56.9725 86.4152 57.0155 86.0986C57.0586 85.7805 56.8669 85.525 56.585 85.525H34.2197C33.9391 85.525 33.6766 85.7819 33.6336 86.0986C33.5905 86.4152 33.7836 86.6722 34.0628 86.6722H56.428ZM55.2072 90.8458C55.4892 90.8458 55.7516 90.5889 55.7947 90.2722C55.8378 89.9555 55.6447 89.6986 55.3641 89.6986H40.6225C40.3405 89.6986 40.078 89.9555 40.035 90.2722C39.9919 90.5903 40.1836 90.8458 40.4655 90.8458H55.2072Z" fill="#D0D5DD"/>
<path d="M57.519 99.3834H25.6829C25.5912 99.3834 25.5065 99.3403 25.4523 99.2681C25.3982 99.1959 25.3801 99.1014 25.4065 99.0139L32.1051 76.1153C32.1412 75.9917 32.2537 75.907 32.3829 75.907H64.219C64.3107 75.907 64.3954 75.95 64.4496 76.0223C64.5037 76.0945 64.5218 76.1889 64.4954 76.2764L57.7968 99.175C57.7607 99.2986 57.6468 99.3834 57.519 99.3834ZM26.0676 98.8056H57.3023L63.8315 76.4848H32.5982L26.0676 98.8056ZM55.2065 91.1348H40.4648C40.2565 91.1348 40.0662 91.0486 39.9315 90.8931C39.7815 90.7209 39.7148 90.4806 39.7482 90.232C39.8107 89.7709 40.194 89.4098 40.6218 89.4098H55.3621C55.5704 89.4098 55.7607 89.4959 55.8968 89.6514C56.0468 89.8236 56.1135 90.0639 56.0801 90.3111C56.0162 90.7723 55.6329 91.1348 55.2065 91.1348ZM40.6218 89.9875C40.501 89.9875 40.3468 90.1209 40.3204 90.3111C40.3093 90.3945 40.326 90.4681 40.3662 90.5139C40.3912 90.5431 40.4246 90.557 40.4648 90.557H55.2065C55.3273 90.557 55.4815 90.4236 55.5079 90.232C55.519 90.15 55.5023 90.0764 55.4621 90.0306C55.4371 90.0014 55.4037 89.9875 55.3635 89.9875H40.6218ZM56.4273 86.9611H34.0621C33.8537 86.9611 33.6648 86.875 33.5287 86.7195C33.3787 86.5473 33.3121 86.307 33.3454 86.0598C33.4079 85.5973 33.7912 85.2361 34.2176 85.2361H56.5815C56.7898 85.2361 56.9801 85.3223 57.1148 85.4778C57.2648 85.65 57.3315 85.8903 57.2982 86.1389C57.2371 86.6 56.8537 86.9611 56.4273 86.9611ZM34.219 85.8139C34.0982 85.8139 33.9454 85.9473 33.919 86.1389C33.9079 86.2209 33.9246 86.2945 33.9648 86.3403C33.9898 86.3695 34.0218 86.3834 34.0621 86.3834H56.426C56.5468 86.3834 56.701 86.25 56.7273 86.0598C56.7385 85.9764 56.7218 85.9028 56.6815 85.857C56.6565 85.8278 56.6232 85.8139 56.5829 85.8139H34.219ZM57.6468 82.7889H35.2829C35.0746 82.7889 34.8857 82.7028 34.7496 82.5473C34.5996 82.375 34.5329 82.1348 34.5662 81.8875C34.6287 81.425 35.0121 81.0639 35.4385 81.0639H57.8037C58.0121 81.0639 58.2023 81.15 58.3371 81.3056C58.4871 81.4778 58.5537 81.7181 58.5204 81.9667C58.4579 82.4278 58.0732 82.7889 57.6468 82.7889ZM35.4385 81.6417C35.3176 81.6417 35.1648 81.775 35.1385 81.9667C35.1273 82.0486 35.144 82.1223 35.1843 82.1681C35.2093 82.1973 35.2412 82.2111 35.2815 82.2111H57.6454C57.7662 82.2111 57.9204 82.0778 57.9468 81.8875C57.9579 81.8042 57.9412 81.7306 57.901 81.6848C57.876 81.6556 57.8426 81.6417 57.8023 81.6417H35.4385Z" fill="#F9FAFB"/>
<path d="M57.5178 99.0942H41.6094H25.6816L27.7761 102.437H43.7053H59.6136L57.5178 99.0942Z" fill="#D0D5DD"/>
<path d="M59.6142 102.726H27.7767C27.6767 102.726 27.585 102.675 27.5323 102.59L25.4364 99.2471C25.3809 99.1582 25.3781 99.0457 25.4281 98.954C25.4795 98.8624 25.5753 98.8054 25.6809 98.8054H57.517C57.617 98.8054 57.7087 98.8568 57.7614 98.9415L59.8573 102.285C59.9128 102.373 59.9156 102.486 59.8656 102.578C59.8156 102.669 59.7184 102.726 59.6142 102.726ZM27.9364 102.148H59.0906L57.3573 99.3832H26.2031L27.9364 102.148Z" fill="#F9FAFB"/>
<path d="M64.2181 76.1958L66.314 79.5389L59.6154 102.437L57.5195 99.0944L64.2181 76.1958Z" fill="#D0D5DD"/>
<path d="M59.6148 102.726C59.5162 102.726 59.4231 102.676 59.3703 102.59L57.2745 99.2471C57.2301 99.1776 57.219 99.0915 57.2426 99.0123L63.9412 76.1137C63.9731 76.004 64.0662 75.9248 64.1787 75.9082C64.2912 75.8929 64.4023 75.9443 64.4634 76.0415L66.5592 79.3846C66.6037 79.454 66.6148 79.5401 66.5912 79.6193L59.8926 102.518C59.8606 102.628 59.7676 102.707 59.6551 102.723C59.6412 102.726 59.6273 102.726 59.6148 102.726ZM57.8328 99.0512L59.5176 101.74L65.9995 79.5832L64.3148 76.8943L57.8328 99.0512Z" fill="#F9FAFB"/>
<path d="M100.735 89.7319L78.6797 108.457L84.1575 89.7319H100.735Z" fill="#98A2B3"/>
<path d="M78.6788 108.746C78.6247 108.746 78.5691 108.731 78.5219 108.699C78.4149 108.629 78.3663 108.497 78.4024 108.375L83.8802 89.65C83.9163 89.5264 84.0288 89.4417 84.158 89.4417H100.736C100.857 89.4417 100.965 89.5167 101.007 89.6305C101.048 89.7444 101.015 89.8722 100.922 89.95L78.8663 108.675C78.8122 108.724 78.7455 108.746 78.6788 108.746ZM84.3733 90.0208L79.226 107.612L99.9469 90.0208H84.3733Z" fill="#F9FAFB"/>
<path d="M114.594 43.1458C115.997 43.1458 116.96 44.4305 116.744 46.0152L114.867 59.7944C114.651 61.3777 113.337 62.6624 111.935 62.6624H111.122H108.665H52.2666H47.6541C46.25 62.6624 45.2875 61.3777 45.5028 59.7944L47.3805 46.0152C47.5972 44.4305 48.9097 43.1458 50.3139 43.1458H59.4778L58.2666 52.0346C58.1583 52.8277 58.6389 53.468 59.3416 53.468H61.6986C62.4 53.468 63.0569 52.8263 63.1639 52.0346L64.375 43.1458H100.533L99.3222 52.0346C99.2139 52.8277 99.6958 53.468 100.397 53.468H102.754C103.456 53.468 104.112 52.8263 104.221 52.0346L105.432 43.1458H114.594Z" fill="#98A2B3"/>
<path d="M111.934 62.95H47.6535C46.9507 62.95 46.3132 62.6625 45.8563 62.1389C45.3257 61.5305 45.0924 60.6625 45.216 59.7542L47.0938 45.975C47.3285 44.2555 48.7716 42.8569 50.3132 42.8569H59.4771C59.5605 42.8569 59.6396 42.893 59.6952 42.9555C59.7507 43.018 59.7757 43.1014 59.7632 43.1847L58.5521 52.0736C58.5077 52.4042 58.5869 52.7139 58.7688 52.9222C58.916 53.0903 59.1132 53.1792 59.341 53.1792H61.698C62.2591 53.1792 62.7882 52.6486 62.8771 51.9958L64.0882 43.1069C64.1077 42.9639 64.2299 42.8569 64.3743 42.8569H100.533C100.616 42.8569 100.695 42.893 100.751 42.9555C100.805 43.018 100.83 43.1014 100.819 43.1847L99.6077 52.0736C99.5632 52.4028 99.6424 52.7125 99.8243 52.9222C99.9716 53.0903 100.169 53.1792 100.397 53.1792H102.754C103.306 53.1792 103.847 52.6375 103.934 51.9958L105.145 43.1069C105.165 42.9639 105.287 42.8569 105.431 42.8569H114.595C115.297 42.8569 115.934 43.1444 116.391 43.668C116.922 44.2764 117.155 45.1458 117.031 46.0542L115.154 59.8333C114.917 61.5514 113.474 62.95 111.934 62.95ZM50.3132 43.4347C49.0507 43.4347 47.8632 44.6097 47.666 46.0542L45.7882 59.8333C45.6868 60.575 45.8702 61.2778 46.291 61.7597C46.6368 62.1555 47.1202 62.3736 47.6535 62.3736H111.934C113.197 62.3736 114.383 61.2 114.58 59.7555L116.458 45.9764C116.559 45.2333 116.376 44.5305 115.955 44.0486C115.61 43.6528 115.127 43.4361 114.594 43.4361H105.683L104.505 52.075C104.376 53.0194 103.606 53.7583 102.752 53.7583H100.395C100.002 53.7583 99.6438 53.5972 99.3882 53.3028C99.0952 52.968 98.966 52.4917 99.0341 51.9958L100.201 43.4347H64.6271L63.4493 52.0736C63.3202 53.018 62.5507 53.7569 61.698 53.7569H59.341C58.948 53.7569 58.5896 53.5958 58.3341 53.3028C58.041 52.968 57.9118 52.4917 57.9799 51.9958L59.1466 43.4347H50.3132Z" fill="#F9FAFB"/>
<path d="M55.3612 89.6985C55.6431 89.6985 55.8348 89.9554 55.7917 90.2721C55.7487 90.5902 55.4862 90.8457 55.2042 90.8457H40.4639C40.182 90.8457 39.9903 90.5888 40.0334 90.2721C40.0764 89.9554 40.3389 89.6985 40.6209 89.6985H55.3612Z" fill="#98A2B3"/>
<path d="M55.205 91.1347H40.4634C40.255 91.1347 40.0647 91.0486 39.93 90.893C39.78 90.7208 39.7134 90.4805 39.7467 90.2319C39.8092 89.7708 40.1925 89.4097 40.6203 89.4097H55.3606C55.5689 89.4097 55.7592 89.4958 55.8953 89.6513C56.0453 89.8236 56.112 90.0638 56.0786 90.3111C56.0147 90.7722 55.6314 91.1347 55.205 91.1347ZM40.6203 89.9874C40.4995 89.9874 40.3453 90.1208 40.3189 90.3111C40.3078 90.3944 40.3245 90.468 40.3648 90.5138C40.3898 90.543 40.4231 90.5569 40.4634 90.5569H55.205C55.3259 90.5569 55.48 90.4236 55.5064 90.2319C55.5175 90.1499 55.5009 90.0763 55.4606 90.0305C55.4356 90.0013 55.4022 89.9874 55.362 89.9874H40.6203Z" fill="#98A2B3"/>
<path d="M57.8017 81.3525C58.0837 81.3525 58.2754 81.6095 58.2323 81.9262C58.1892 82.2428 57.9267 82.4998 57.6448 82.4998H35.2809C35.0004 82.4998 34.8087 82.2428 34.8517 81.9262C34.8948 81.6081 35.1573 81.3525 35.4379 81.3525H57.8017Z" fill="#98A2B3"/>
<path d="M57.6456 82.7887H35.2817C35.0734 82.7887 34.8845 82.7026 34.7484 82.5471C34.5984 82.3748 34.5317 82.1346 34.5651 81.8873C34.6276 81.4248 35.0109 81.0637 35.4373 81.0637H57.8012C58.0095 81.0637 58.1998 81.1498 58.3345 81.3054C58.4845 81.4776 58.5512 81.7179 58.5178 81.9665C58.4567 82.4276 58.072 82.7887 57.6456 82.7887ZM35.4373 81.6415C35.3164 81.6415 35.1637 81.7748 35.1373 81.9665C35.1262 82.0484 35.1428 82.1221 35.1831 82.1679C35.2081 82.1971 35.2401 82.2109 35.2803 82.2109H57.6442C57.7651 82.2109 57.9192 82.0776 57.9456 81.8873C57.9567 81.804 57.9401 81.7304 57.8998 81.6846C57.8748 81.6554 57.8414 81.6415 57.8012 81.6415H35.4373Z" fill="#98A2B3"/>
<path d="M56.581 85.5249C56.863 85.5249 57.0547 85.7818 57.0116 86.0985C56.9685 86.4152 56.706 86.6721 56.4241 86.6721H34.0602C33.7797 86.6721 33.588 86.4152 33.631 86.0985C33.6741 85.7805 33.9366 85.5249 34.2172 85.5249H56.581Z" fill="#98A2B3"/>
<path d="M56.4263 86.9611H34.061C33.8527 86.9611 33.6638 86.875 33.5277 86.7194C33.3777 86.5472 33.311 86.3069 33.3443 86.0597C33.4068 85.5972 33.7902 85.2361 34.2166 85.2361H56.5805C56.7888 85.2361 56.9791 85.3222 57.1138 85.4777C57.2638 85.65 57.3305 85.8903 57.2971 86.1389C57.236 86.6 56.8527 86.9611 56.4263 86.9611ZM34.218 85.8139C34.0971 85.8139 33.9444 85.9472 33.918 86.1389C33.9069 86.2208 33.9235 86.2944 33.9638 86.3403C33.9888 86.3694 34.0207 86.3833 34.061 86.3833H56.4249C56.5457 86.3833 56.6999 86.25 56.7263 86.0597C56.7374 85.9764 56.7207 85.9027 56.6805 85.8569C56.6555 85.8277 56.6221 85.8139 56.5819 85.8139H34.218Z" fill="#98A2B3"/>
<path d="M118.864 77.0667C120.005 77.0667 120.93 76.1414 120.93 75C120.93 73.8586 120.005 72.9333 118.864 72.9333C117.722 72.9333 116.797 73.8586 116.797 75C116.797 76.1414 117.722 77.0667 118.864 77.0667Z" fill="#F9FAFB"/>
<path d="M22.4397 96.0042C23.5811 96.0042 24.5064 95.0789 24.5064 93.9375C24.5064 92.7961 23.5811 91.8708 22.4397 91.8708C21.2983 91.8708 20.373 92.7961 20.373 93.9375C20.373 95.0789 21.2983 96.0042 22.4397 96.0042Z" fill="#F9FAFB"/>
<path d="M23.4739 97.675C23.8758 97.675 24.2016 97.3492 24.2016 96.9473C24.2016 96.5453 23.8758 96.2195 23.4739 96.2195C23.0719 96.2195 22.7461 96.5453 22.7461 96.9473C22.7461 97.3492 23.0719 97.675 23.4739 97.675Z" fill="#F9FAFB"/>
<path d="M119.61 41.5152C120.751 41.5152 121.676 40.5899 121.676 39.4485C121.676 38.3071 120.751 37.3818 119.61 37.3818C118.468 37.3818 117.543 38.3071 117.543 39.4485C117.543 40.5899 118.468 41.5152 119.61 41.5152Z" fill="#F9FAFB"/>
<path d="M116.462 39.7056C116.864 39.7056 117.19 39.3797 117.19 38.9778C117.19 38.5758 116.864 38.25 116.462 38.25C116.06 38.25 115.734 38.5758 115.734 38.9778C115.734 39.3797 116.06 39.7056 116.462 39.7056Z" fill="#F9FAFB"/>
<path d="M40.1981 71.357C42.1618 71.357 43.7537 69.7651 43.7537 67.8014C43.7537 65.8377 42.1618 64.2458 40.1981 64.2458C38.2345 64.2458 36.6426 65.8377 36.6426 67.8014C36.6426 69.7651 38.2345 71.357 40.1981 71.357Z" fill="#E4E7EC"/>
<path d="M36.6423 66.0472C37.5773 66.0472 38.3353 65.2892 38.3353 64.3542C38.3353 63.4191 37.5773 62.6611 36.6423 62.6611C35.7072 62.6611 34.9492 63.4191 34.9492 64.3542C34.9492 65.2892 35.7072 66.0472 36.6423 66.0472Z" fill="#F9FAFB"/>
</svg>
