<svg width="32" height="33" viewBox="0 0 32 33" fill="none" xmlns="http://www.w3.org/2000/svg">
<path fill-rule="evenodd" clip-rule="evenodd" d="M6.99999 5.0332C4.05447 5.0332 1.66666 7.42102 1.66666 10.3665V19.4332C1.66666 22.3787 4.05447 24.7665 6.99999 24.7665H12.3333V25.2999H9.99994C9.26356 25.2999 8.66661 25.8968 8.66661 26.6332C8.66661 27.3696 9.26356 27.9666 9.99994 27.9666H17.3333C18.0697 27.9666 18.6666 27.3696 18.6666 26.6332C18.6666 25.8968 18.0697 25.2999 17.3333 25.2999H15V24.7665H18.8688C18.7494 25.0189 18.6705 25.3053 18.6668 25.6203C18.661 26.1107 18.8395 26.5249 19.0732 26.8388C19.4932 27.4026 20.1459 27.7228 20.6411 27.9125C21.6965 28.3167 23.0578 28.5 24 28.5C24.9422 28.5 26.3034 28.3167 27.3589 27.9125C27.8541 27.7228 28.5068 27.4026 28.9267 26.8388C29.1605 26.5249 29.3389 26.1107 29.3332 25.6203C29.3275 25.1387 29.146 24.724 28.913 24.3954C28.15 23.3194 26.757 22.2533 25.0463 21.9313C25.0789 21.87 25.1103 21.8079 25.1405 21.7452C25.1546 21.7159 25.1675 21.6864 25.1793 21.6566C26.8128 21.1534 28 19.632 28 17.8333C28 16.219 27.0437 14.828 25.6667 14.196V10.3665C25.6667 7.42102 23.2788 5.0332 20.3333 5.0332H6.99999ZM20 17.8333C20 19.3764 20.8737 20.7153 22.1534 21.3825C21.6761 21.8282 21.0359 22.0999 20.3333 22.0999H6.99999C5.52723 22.0999 4.33332 20.906 4.33332 19.4332V10.3665C4.33332 8.89378 5.52723 7.69987 6.99999 7.69987H20.3333C21.8061 7.69987 23 8.89378 23 10.3665V13.9594C21.2748 14.4034 20 15.9695 20 17.8333ZM24 16.5C23.2636 16.5 22.6667 17.097 22.6667 17.8333C22.6667 18.5697 23.2636 19.1667 24 19.1667C24.7364 19.1667 25.3333 18.5697 25.3333 17.8333C25.3333 17.097 24.7364 16.5 24 16.5ZM21.6894 25.4569C22.3709 25.6974 23.3352 25.8333 24 25.8333C24.6648 25.8333 25.6291 25.6974 26.3105 25.4569C25.7399 24.9294 24.9 24.5 24 24.5C23.1 24.5 22.26 24.9294 21.6894 25.4569Z" fill="#06CC06"/>
</svg>
