<svg width="41" height="41" viewBox="0 0 41 41" fill="none"
    xmlns="http://www.w3.org/2000/svg">
    <rect x="0.5" y="0.5" width="40" height="40" rx="20" fill="#E5FFE5"/>
    <path fill-rule="evenodd" clip-rule="evenodd" d="M14.5626 13.8333H25.9175C27.2982 13.8333 28.4175 14.9526 28.4175 16.3333V17.2431C28.4175 17.7366 28.2714 18.2191 27.9976 18.6298L27.5556 19.2929C27.058 20.0393 26.9985 20.9952 27.3997 21.7976L28.1536 23.3055C28.3272 23.6526 28.4175 24.0354 28.4175 24.4235L28.4175 24.6667C28.4175 26.0474 27.2982 27.1667 25.9175 27.1667H14.6675C13.2868 27.1667 12.1675 26.0474 12.1675 24.6667L12.1675 24.5503C12.1675 24.0818 12.2992 23.6226 12.5475 23.2253L13.4227 21.825C13.9294 21.0143 13.9294 19.9857 13.4227 19.175L12.4577 17.631C12.2666 17.3251 12.1444 16.9812 12.0996 16.6233C11.9144 15.1419 13.0696 13.8333 14.5626 13.8333ZM17.1675 15.9167C17.1675 15.4564 16.7944 15.0833 16.3342 15.0833C15.874 15.0833 15.5009 15.4564 15.5009 15.9167V17.5833C15.5009 18.0436 15.874 18.4167 16.3342 18.4167C16.7944 18.4167 17.1675 18.0436 17.1675 17.5833V15.9167ZM16.3342 18.8333C16.7944 18.8333 17.1675 19.2064 17.1675 19.6667V21.3333C17.1675 21.7936 16.7944 22.1667 16.3342 22.1667C15.874 22.1667 15.5009 21.7936 15.5009 21.3333V19.6667C15.5009 19.2064 15.874 18.8333 16.3342 18.8333ZM17.1675 23.4167C17.1675 22.9564 16.7944 22.5833 16.3342 22.5833C15.874 22.5833 15.5009 22.9564 15.5009 23.4167V25.0833C15.5009 25.5436 15.874 25.9167 16.3342 25.9167C16.7944 25.9167 17.1675 25.5436 17.1675 25.0833V23.4167Z" fill="#06CC06"/>
</svg>
