<svg width="16" height="12" viewBox="0 0 16 12" fill="none" xmlns="http://www.w3.org/2000/svg">
<path d="M3.33464 2.33341C2.96645 2.33341 2.66797 2.63189 2.66797 3.00008C2.66797 3.36827 2.96645 3.66675 3.33464 3.66675H4.66797C5.03616 3.66675 5.33464 3.36827 5.33464 3.00008C5.33464 2.63189 5.03616 2.33341 4.66797 2.33341H3.33464Z" fill="#141714"/>
<path d="M10.668 3.00008C10.668 2.63189 10.9664 2.33341 11.3346 2.33341H12.668C13.0362 2.33341 13.3346 2.63189 13.3346 3.00008C13.3346 3.36827 13.0362 3.66675 12.668 3.66675H11.3346C10.9664 3.66675 10.668 3.36827 10.668 3.00008Z" fill="#141714"/>
<path d="M3.33464 8.33341C2.96645 8.33341 2.66797 8.63189 2.66797 9.00008C2.66797 9.36827 2.96645 9.66675 3.33464 9.66675H4.66797C5.03616 9.66675 5.33464 9.36827 5.33464 9.00008C5.33464 8.63189 5.03616 8.33341 4.66797 8.33341H3.33464Z" fill="#141714"/>
<path d="M10.668 9.00008C10.668 8.63189 10.9664 8.33341 11.3346 8.33341H12.668C13.0362 8.33341 13.3346 8.63189 13.3346 9.00008C13.3346 9.36827 13.0362 9.66675 12.668 9.66675H11.3346C10.9664 9.66675 10.668 9.36827 10.668 9.00008Z" fill="#141714"/>
<path fill-rule="evenodd" clip-rule="evenodd" d="M8.0013 4.00008C9.10587 4.00008 10.0013 4.89551 10.0013 6.00008C10.0013 7.10465 9.10587 8.00008 8.0013 8.00008C6.89673 8.00008 6.0013 7.10465 6.0013 6.00008C6.0013 4.89551 6.89673 4.00008 8.0013 4.00008ZM8.66797 6.00008C8.66797 5.63189 8.36949 5.33341 8.0013 5.33341C7.63311 5.33341 7.33463 5.63189 7.33463 6.00008C7.33463 6.36827 7.63311 6.66675 8.0013 6.66675C8.36949 6.66675 8.66797 6.36827 8.66797 6.00008Z" fill="#141714"/>
<path fill-rule="evenodd" clip-rule="evenodd" d="M3.33464 0.666748C1.86188 0.666748 0.667969 1.86066 0.667969 3.33341V8.66675C0.667969 10.1395 1.86188 11.3334 3.33464 11.3334H12.668C14.1407 11.3334 15.3346 10.1395 15.3346 8.66675V3.33341C15.3346 1.86066 14.1407 0.666748 12.668 0.666748H3.33464ZM2.0013 3.33341C2.0013 2.59703 2.59826 2.00008 3.33464 2.00008H12.668C13.4043 2.00008 14.0013 2.59703 14.0013 3.33341V8.66675C14.0013 9.40313 13.4043 10.0001 12.668 10.0001H3.33464C2.59826 10.0001 2.0013 9.40313 2.0013 8.66675V3.33341Z" fill="#141714"/>
</svg>
