<svg width="19" height="16" viewBox="0 0 19 16" fill="none" xmlns="http://www.w3.org/2000/svg">
<path d="M6.667 3.41667C6.667 2.95643 6.2939 2.58333 5.83367 2.58333C5.37343 2.58333 5.00033 2.95643 5.00033 3.41667V5.08333C5.00033 5.54357 5.37343 5.91667 5.83367 5.91667C6.2939 5.91667 6.667 5.54357 6.667 5.08333V3.41667Z" fill="#141714"/>
<path d="M5.83367 6.33333C6.2939 6.33333 6.667 6.70643 6.667 7.16667V8.83333C6.667 9.29357 6.2939 9.66667 5.83367 9.66667C5.37343 9.66667 5.00033 9.29357 5.00033 8.83333V7.16667C5.00033 6.70643 5.37343 6.33333 5.83367 6.33333Z" fill="#141714"/>
<path d="M6.667 10.9167C6.667 10.4564 6.2939 10.0833 5.83367 10.0833C5.37343 10.0833 5.00033 10.4564 5.00033 10.9167V12.5833C5.00033 13.0436 5.37343 13.4167 5.83367 13.4167C6.2939 13.4167 6.667 13.0436 6.667 12.5833V10.9167Z" fill="#141714"/>
<path fill-rule="evenodd" clip-rule="evenodd" d="M18.7503 12.1667L18.7503 11.9235C18.7503 11.406 18.6298 10.8956 18.3984 10.4328L17.6445 8.92496C17.377 8.39001 17.4167 7.75275 17.7485 7.25511L18.1905 6.59206C18.5555 6.0445 18.7503 5.40114 18.7503 4.74306V3.83333C18.7503 1.99239 17.2579 0.5 15.417 0.5H4.06205C2.0678 0.5 0.52483 2.24785 0.772184 4.2267C0.831945 4.70478 0.995184 5.16409 1.25054 5.57266L2.21554 7.11667C2.55333 7.65712 2.55333 8.34288 2.21554 8.88333L1.34034 10.2837C1.00923 10.8134 0.833666 11.4256 0.833666 12.0503L0.833666 12.1667C0.833666 14.0076 2.32605 15.5 4.167 15.5H15.417C17.2579 15.5 18.7503 14.0076 18.7503 12.1667ZM17.0837 11.9235L17.0837 12.1667C17.0837 13.0871 16.3375 13.8333 15.417 13.8333L4.167 13.8333C3.24652 13.8333 2.50033 13.0871 2.50033 12.1667V12.0503C2.50033 11.738 2.58812 11.4319 2.75367 11.167L3.62887 9.76666C4.30444 8.68576 4.30444 7.31424 3.62887 6.23334L2.66387 4.68933C2.53688 4.48615 2.4557 4.25773 2.42598 4.01998C2.30297 3.03588 3.0703 2.16667 4.06205 2.16667L15.417 2.16667C16.3375 2.16667 17.0837 2.91286 17.0837 3.83333V4.74306C17.0837 5.07211 16.9863 5.39378 16.8037 5.66756L16.3617 6.33061C15.6982 7.3259 15.6188 8.60041 16.1538 9.67031L16.9077 11.1781C17.0234 11.4096 17.0837 11.6648 17.0837 11.9235Z" fill="#141714"/>
</svg>
