<svg width="24" height="25" viewBox="0 0 24 25" fill="none"
    xmlns="http://www.w3.org/2000/svg">
    <path d="M0 12.2891C0 18.9165 5.37258 24.2891 12 24.2891C18.6274 24.2891 24 18.9165 24 12.2891C24 5.66165 18.6274 0.289062 12 0.289062C5.37258 0.289062 0 5.66165 0 12.2891Z" fill="#141714"/>
    <path d="M18 8.53906C17.55 8.76406 17.1 8.83906 16.575 8.91406C17.1 8.61406 17.475 8.16406 17.625 7.56406C17.175 7.86406 16.65 8.01406 16.05 8.16406C15.6 7.71406 14.925 7.41406 14.25 7.41406C12.675 7.41406 11.475 8.91406 11.85 10.4141C9.825 10.3391 8.025 9.36406 6.75 7.86406C6.075 8.98906 6.45 10.4141 7.5 11.1641C7.125 11.1641 6.75 11.0141 6.375 10.8641C6.375 11.9891 7.2 13.0391 8.325 13.3391C7.95 13.4141 7.575 13.4891 7.2 13.4141C7.5 14.3891 8.4 15.1391 9.525 15.1391C8.625 15.8141 7.275 16.1891 6 16.0391C7.125 16.7141 8.4 17.1641 9.75 17.1641C14.325 17.1641 16.875 13.3391 16.725 9.81406C17.25 9.51406 17.7 9.06406 18 8.53906Z" fill="white"/>
</svg>
